<?xml version="1.0" standalone="no"?>
<!DOCTYPE svg PUBLIC "-//W3C//DTD SVG 1.1//EN" "http://www.w3.org/Graphics/SVG/1.1/DTD/svg11.dtd" >
<svg xmlns="http://www.w3.org/2000/svg">
<metadata>Generated by IcoMoon</metadata>
<defs>
<font id="iconfont" horiz-adv-x="1024">
<font-face units-per-em="1024" ascent="960" descent="-64" />
<missing-glyph horiz-adv-x="1024" />
<glyph unicode="&#x20;" horiz-adv-x="512" d="" />
<glyph unicode="&#xe900;" glyph-name="arrow-down" d="M512 193.6l128 243.52h-96v265.28h-64v-265.28h-96l128-243.52z" />
<glyph unicode="&#xe901;" glyph-name="arrow-left" d="M257.6 448l243.52-128v96h265.28v64h-265.28v96l-243.52-128z" />
<glyph unicode="&#xe902;" glyph-name="arrow-right" d="M766.4 448l-243.52 128v-96h-265.28v-64h265.28v-96l243.52 128z" />
<glyph unicode="&#xe903;" glyph-name="arrow-up" d="M512 702.4l-128-243.52h96v-265.28h64v265.28h96l-128 243.52z" />
<glyph unicode="&#xe904;" glyph-name="chevron-down" d="M512 274.88l-278.72 278.4 45.44 45.44 233.28-233.6 233.28 233.6 45.44-45.44-278.72-278.4z" />
<glyph unicode="&#xe905;" glyph-name="chevron-left" d="M617.28 169.28l-278.4 278.72 278.4 278.72 45.44-45.44-233.6-233.28 233.6-233.28-45.44-45.44z" />
<glyph unicode="&#xe906;" glyph-name="chevron-right" d="M406.72 169.28l-45.44 45.44 233.6 233.28-233.6 233.28 45.44 45.44 278.4-278.72-278.4-278.72z" />
<glyph unicode="&#xe907;" glyph-name="chevron-up" d="M745.28 297.28l-233.28 233.6-233.28-233.6-45.44 45.44 278.72 278.4 278.72-278.4-45.44-45.44z" />
<glyph unicode="&#xe908;" glyph-name="eye" horiz-adv-x="1475" d="M1309.155 456.347c-8.347 16-213.917 391.653-571.475 391.653s-563.475-375.653-571.825-391.653l-4.525-8.347 4.525-8.347c8.347-16 214.264-391.653 571.825-391.653s563.125 375.653 571.475 391.653l4.175 8.347zM936.28 444.525v0c-0.786-109.475-89.723-197.923-199.306-197.923-110.075 0-199.312 89.229-199.312 199.312 0 0.486 0.002 0.975 0.007 1.471l-0.001-0.075c-0.181 1.875-0.289 4.058-0.289 6.264s0.107 4.38 0.316 6.53l-0.025-0.275v4.875c9.343 102.027 94.498 181.326 198.175 181.326 97.625 0 178.829-70.324 195.725-163.075l0.179-1.221c1.924-10.42 3.055-22.437 3.125-34.719v-0.072z" />
<glyph unicode="&#xe909;" glyph-name="eye-o" horiz-adv-x="1475" d="M1309.155 456.347c-8.347 16-213.917 391.653-571.475 391.653s-563.475-375.653-571.825-391.653l-4.525-8.347 4.525-8.347c8.347-16 214.264-391.653 571.825-391.653s563.125 375.653 571.475 391.653l4.175 8.347zM737.675 82.778c-308.525 0-504.347 310.264-536.694 365.222 32.347 54.958 227.825 365.222 536.694 365.222s504.347-310.264 536.694-365.222c-32.347-54.958-228.175-365.222-536.694-365.222zM737.675 646.958c-0.201 0.001-0.435 0.001-0.675 0.001-103.55 0-188.525-79.525-197.182-180.828l-0.051-0.729v-4.875c-0.181-1.875-0.289-4.058-0.289-6.264s0.107-4.38 0.316-6.53l-0.025 0.275c-0.004-0.417-0.006-0.903-0.006-1.389 0-110.075 89.229-199.312 199.312-199.312 109.582 0 198.52 88.44 199.305 197.841l0.001 0.075v3.475c-0.075 12.341-1.215 24.372-3.325 36.053l0.187-1.275c-17.415 93.575-98.425 163.483-195.775 163.483-0.626 0-1.266-0.004-1.89-0.011l0.095 0.001zM902.197 447.306c0.005-0.417 0.008-0.903 0.008-1.389 0-91.060-73.822-164.875-164.875-164.875-90.574 0-164.077 73.025-164.874 163.412l-0.001 0.075v3.475c-0.076 1.039-0.125 2.255-0.125 3.475s0.046 2.434 0.134 3.635l-0.012-0.162c0.075 0.985 0.119 2.139 0.119 3.306s-0.039 2.32-0.125 3.46l0.011-0.154c7.714 84.193 77.975 149.625 163.525 149.625 80.619 0 147.661-58.104 161.535-134.721l0.151-1.002c1.741-8.249 2.757-17.734 2.778-27.459v-0.025z" />
<glyph unicode="&#xe90a;" glyph-name="bell" d="M944.469 170.155l-39.936 48.128c-74.093 88.010-119.202 202.552-119.467 327.623v108.942c-0.212 108.048-76.456 198.228-178.066 219.896l-1.476 0.264c-3.024 47.876-42.594 85.561-90.965 85.561s-87.942-37.685-90.952-85.297l-0.013-0.264c-105.264-19.812-183.945-110.693-184.661-220.083v-108.962c0-0.053 0-0.116 0-0.179 0-124.939-44.751-239.426-119.099-328.307l0.656 0.806-34.816-43.349c-10.76-12.333-17.321-28.571-17.321-46.343 0-10.939 2.486-21.297 6.923-30.54l-0.184 0.424c10.879-24.132 34.724-40.627 62.421-40.627 0.375 0 0.75 0.003 1.123 0.009l-0.056-0.001h236.885c8.731-69.856 67.748-123.369 139.264-123.369s130.533 53.513 139.194 122.681l0.070 0.688h238.933c36.95 0.967 66.535 31.151 66.535 68.245 0 16.215-5.653 31.109-15.096 42.819l0.102-0.131z" />
<glyph unicode="&#xe90b;" glyph-name="lock" d="M512 960c-218.919 0-396.387-177.469-396.387-396.387v0-627.613h792.774v627.613c0 218.919-177.469 396.387-396.387 396.387v0zM875.355-30.968h-726.71v495.484h726.71zM148.645 497.548v66.065c0 200.675 162.68 363.355 363.355 363.355s363.355-162.68 363.355-363.355v0-66.065zM478.968 181.099v-75.314c0-18.243 14.789-33.032 33.032-33.032s33.032 14.789 33.032 33.032v0 75.314c19.774 11.569 32.882 32.645 33.032 56.794v0.021c0 36.486-29.578 66.065-66.065 66.065s-66.065-29.578-66.065-66.065v0c0.151-24.171 13.258-45.246 32.72-56.647l0.312-0.169z" />
<glyph unicode="&#xe90c;" glyph-name="plus" d="M976 535h-377v377h-174v-377h-377v-174h377v-377h174v377h377v174z" />
<glyph unicode="&#xe90d;" glyph-name="remove-sm" d="M744 631.209l-48.793 48.793-183.035-183.035-183.383 183.035-48.793-48.793 183.035-183.383-183.035-183.035 48.793-48.793 183.383 183.035 183.035-183.035 48.793 48.793-183.035 183.035 183.035 183.383z" />
<glyph unicode="&#xe90e;" glyph-name="remove" d="M1024 869.997l-90.003 90.003-421.997-421.997-421.997 421.997-90.003-90.003 421.997-421.997-421.997-421.997 90.003-90.003 421.997 421.997 421.997-421.997 90.003 90.003-421.997 421.997 421.997 421.997z" />
<glyph unicode="&#xe90f;" glyph-name="info" d="M512 960c-282.77 0-512-229.23-512-512s229.23-512 512-512c282.77 0 512 229.23 512 512v0c0 282.77-229.23 512-512 512v0zM512-30.968c-264.527 0-478.968 214.441-478.968 478.968s214.441 478.968 478.968 478.968c264.527 0 478.968-214.441 478.968-478.968v0c-0.188-264.451-214.517-478.78-478.95-478.968h-0.017zM512 609.197c0.098 0 0.214-0.001 0.33-0.001 40.135 0 72.671 32.536 72.671 72.671s-32.536 72.671-72.671 72.671c-40.135 0-72.671-32.535-72.671-72.67v0c0 0 0 0 0-0.001 0-40.019 32.348-72.483 72.323-72.67h0.018zM561.548 562.952h-148.645v-24.774h49.548v-371.613h-49.548v-24.774h198.194v24.774h-49.548v396.387z" />
<glyph unicode="&#xe910;" glyph-name="Metamaskwallet" d="M994.24 484.16l-21.12 16.96 33.92 21.12-29.44 16.96 33.6 20.8-16.96 12.48 29.76 144.32-59.2 131.2-317.44-114.24h-270.72l-317.44 114.24-59.2-131.2 29.76-144-16.96-12.8 32-21.12-29.44-16.96 33.92-21.12-21.12-16.96 45.12-45.44-73.28-195.52 59.2-203.2 241.28 67.84 46.72-33.6 105.6-34.24h118.4l105.6 34.24 46.72 33.6 241.28-67.84 59.2 203.2-74.88 195.84zM317.44 336l80.32 33.92 33.92-59.2zM579.84 120.32h-135.68l-8.32-8.64 8.32 80.32 21.44 16.96h92.8l21.44-16.96 8.32-80zM592.32 310.72l33.92 59.2 80.32-33.92z" />
<glyph unicode="&#xe911;" glyph-name="pencil" horiz-adv-x="855" d="M806.023 655.814c30.834 30.664 49.917 73.117 49.917 120.027s-19.083 89.363-49.909 120.020l-14.375 14.375c-30.703 30.749-73.144 49.77-120.027 49.77s-89.324-19.022-120.025-49.768l-0.002-0.002-442.261-440.86-109.339-364.463 364.112 109.339zM73.944 229.322l57.823 192.394 183.633-185.035-190.992-57.823zM146.486 456.411l385.489 385.489 203.959-206.412-385.489-385.489zM671.102 924.956c0.037 0 0.081 0 0.126 0 37.207 0 70.878-15.139 95.189-39.594l14.374-14.374c24.367-24.408 39.435-58.105 39.435-95.321s-15.068-70.913-39.437-95.323l-20.324-20.324-205.010 205.010 20.326 20.326c24.103 24.453 57.588 39.602 94.612 39.602 0.249 0 0.498-0.001 0.747-0.002h-0.038zM0-28.956h855.086v-35.044h-855.086v35.044z" />
<glyph unicode="&#xe912;" glyph-name="star-o" d="M514.731 865.792l136.192-276.139 17.749-2.731 287.061-41.643-207.872-202.752-12.971-12.288 3.072-17.749 49.152-286.037-272.725 145.067-272.725-145.067 48.811 286.037 3.413 16.043-12.629 12.288-207.872 204.459 304.811 44.373 8.192 16.043 128.341 260.096zM514.731 942.933l-159.061-322.219-355.669-53.248 257.365-249.173-60.757-354.304 318.123 167.253 318.123-167.253-60.757 354.304 257.365 249.173-355.669 53.248-159.061 322.219z" />
<glyph unicode="&#xe913;" glyph-name="star" d="M514.731 942.933l159.061-322.219 355.669-51.883-257.365-250.539 60.757-354.304-318.123 167.253-318.123-167.253 60.757 354.304-257.365 250.539 355.669 51.883 159.061 322.219z" />
<glyph unicode="&#xe914;" glyph-name="json" d="M125.287 772.215v-184.632c0-51.075-20.936-76.771-63.447-76.771h-25.696v-104.053h26.648c41.559 0 63.447-24.109 63.447-72.015v-180.824c-0.223-2.815-0.347-6.090-0.347-9.4 0-29.464 10.040-56.584 26.888-78.121l-0.21 0.28c23.773-20.357 54.892-32.749 88.905-32.749 5.899 0 11.713 0.373 17.413 1.095l-0.677-0.071h76.136v103.101h-57.104c-1.44-0.176-3.103-0.276-4.792-0.276-13.521 0-25.548 6.408-33.203 16.354l-0.074 0.098c-4.152 11.064-6.556 23.849-6.556 37.199 0 3.768 0.19 7.497 0.565 11.167l-0.037-0.46v162.744c0 0.071 0 0.152 0 0.236 0 18.081-2.432 35.59-6.984 52.224l0.324-1.385c0 6.346-6.662 20.301-14.593 41.876 11.99 27.161 19.369 58.757 20.297 91.969l0.008 0.347v175.433q0 46.632 49.488 46.632h50.757v104.053h-84.069q-123.407 0-123.089-104.053zM970.724 510.812q-63.447 0-63.447 77.088v184.315q0.635 104.053-123.089 104.053h-84.069v-104.053h50.123c31.725 0 49.805-15.545 49.805-46.632v-175.433c1.199-33.763 8.314-65.537 20.334-94.776l-0.663 1.826c-11.826-27.2-18.995-58.834-19.666-92.062l-0.004-0.254v-162.744c0.29-2.941 0.451-6.357 0.451-9.815 0-13.455-2.495-26.33-7.043-38.185l0.245 0.729c-7.452-10.372-19.484-17.047-33.074-17.047-1.537 0-3.052 0.084-4.545 0.25l0.184-0.018h-56.152v-104.371h75.501c51.709 0 86.921 11.103 106.275 31.725 16.422 21.542 26.31 48.835 26.31 78.438 0 3.097-0.109 6.171-0.322 9.214l0.025-0.409v180.824c0 47.901 20.936 72.015 63.447 72.015h26.648v105.323zM588.453 454.978c0-43.8-35.509-79.309-79.309-79.309s-79.309 35.509-79.309 79.309c0 43.8 35.509 79.309 79.309 79.309s79.309-35.509 79.309-79.309z" />
<glyph unicode="&#xe915;" glyph-name="key" d="M507.221-64l69.973 68.267 82.603 82.603-75.776 77.483 64.512 64.171-68.267 68.267v9.899l68.267 68.267-68.267 68.267v60.416c94.256 31.711 160.939 119.275 160.939 222.414 0 129.32-104.835 234.155-234.155 234.155s-234.155-104.835-234.155-234.155c0-103.138 66.683-190.702 159.288-221.93l1.651-0.483v-479.915zM440.32 792.747c0 37.703 30.564 68.267 68.267 68.267s68.267-30.564 68.267-68.267c0-37.703-30.564-68.267-68.267-68.267v0c-37.703 0-68.267 30.564-68.267 68.267v0z" />
<glyph unicode="&#xe916;" glyph-name="ledgerwallet" d="M80 556h251.885v-216h-251.885v216zM836 880h-432v-540h540v432c-0.189 59.573-48.427 107.811-107.979 108h-0.021zM404 267.885h216v-251.885h-216v251.885zM692.115 16h143.885c59.573 0.189 107.811 48.427 108 107.979v143.906h-251.885zM80 124c0.189-59.573 48.427-107.811 107.979-108h143.906v251.885h-251.885zM80 772v-143.885h251.885v251.885h-143.885c-59.573-0.189-107.811-48.427-108-107.979v-0.021z" />
<glyph unicode="&#xe917;" glyph-name="mnemonic" d="M36.571 813.714h329.143c20.198 0 36.571-16.374 36.571-36.571v-73.143c0-20.198-16.374-36.571-36.571-36.571h-329.143c-20.198 0-36.571 16.374-36.571 36.571v73.143c0 20.198 16.374 36.571 36.571 36.571zM475.429 813.714h182.857c20.198 0 36.571-16.374 36.571-36.571v-73.143c0-20.198-16.374-36.571-36.571-36.571h-182.857c-20.198 0-36.571 16.374-36.571 36.571v73.143c0 20.198 16.374 36.571 36.571 36.571zM768 813.714h219.429c20.198 0 36.571-16.374 36.571-36.571v-73.143c0-20.198-16.374-36.571-36.571-36.571h-219.429c-20.198 0-36.571 16.374-36.571 36.571v73.143c0 20.198 16.374 36.571 36.571 36.571zM36.571 521.143h219.429c20.198 0 36.571-16.374 36.571-36.571v-73.143c0-20.198-16.374-36.571-36.571-36.571h-219.429c-20.198 0-36.571 16.374-36.571 36.571v73.143c0 20.198 16.374 36.571 36.571 36.571zM36.571 228.571h292.571c20.198 0 36.571-16.374 36.571-36.571v-73.143c0-20.198-16.374-36.571-36.571-36.571h-292.571c-20.198 0-36.571 16.374-36.571 36.571v73.143c0 20.198 16.374 36.571 36.571 36.571zM365.714 521.143h256c20.198 0 36.571-16.374 36.571-36.571v-73.143c0-20.198-16.374-36.571-36.571-36.571h-256c-20.198 0-36.571 16.374-36.571 36.571v73.143c0 20.198 16.374 36.571 36.571 36.571zM731.429 521.143h146.286c20.198 0 36.571-16.374 36.571-36.571v-73.143c0-20.198-16.374-36.571-36.571-36.571h-146.286c-20.198 0-36.571 16.374-36.571 36.571v73.143c0 20.198 16.374 36.571 36.571 36.571zM438.857 228.571h182.857c20.198 0 36.571-16.374 36.571-36.571v-73.143c0-20.198-16.374-36.571-36.571-36.571h-182.857c-20.198 0-36.571 16.374-36.571 36.571v73.143c0 20.198 16.374 36.571 36.571 36.571z" />
<glyph unicode="&#xe918;" glyph-name="Trezorwallet" horiz-adv-x="720" d="M599.68 600.32v119.68c0 132.548-107.452 240-240 240s-240-107.452-240-240v0-119.68h-119.68v-520.32l359.68-144 360 144v520.32zM240 720c0 66.274 53.726 120 120 120s120-53.726 120-120v0-119.68h-240zM599.68 160l-240-96-239.68 96v320h480z" />
<glyph unicode="&#xe919;" glyph-name="cog-o" d="M638.006-64l-6.061 5.104c-32.668 26.801-74.886 43.051-120.899 43.065h-0.003c-0.186 0.001-0.406 0.001-0.626 0.001-45.815 0-87.833-16.26-120.597-43.324l-6.059-4.847-6.699 3.19c-49.451 13.287-92.72 31.608-132.689 54.961l2.536-1.369-7.018 4.147v7.975c-4.514 45.739-24.758 86.053-55.169 116.099l-0.019 0.018c-30.556 29.836-70.99 49.676-115.946 54.165l-0.81 0.065h-7.975l-4.147 7.018c-22.294 37.632-40.737 81.131-53.075 127.129l-0.836 3.663-1.914 8.932 5.104 6.061c26.491 32.46 42.593 74.307 42.746 119.911v0.034c0.002 0.334 0.003 0.73 0.003 1.126 0 45.603-16.136 87.436-43.011 120.103l0.261-0.327-5.104 6.38 1.914 7.656c13.235 49.431 31.671 92.708 55.243 132.589l-1.332-2.435 4.147 7.018h7.975c45.672 5.115 85.793 25.615 115.771 56.117l0.027 0.027c30.411 29.959 50.653 70.165 55.124 115.015l0.063 0.783v7.975l7.018 4.147c37.725 22.32 81.335 40.768 127.451 53.080l3.66 0.831 7.656 1.914 6.38-5.104c32.34-26.613 74.173-42.75 119.776-42.75 0.396 0 0.792 0.001 1.187 0.004h-0.061c0.1 0 0.218 0 0.336 0 45.858 0 87.95 16.128 120.912 43.020l-0.346-0.273 5.104 5.104 7.975-1.914c49.443-13.307 92.714-31.738 132.625-55.259l-2.472 1.347 7.018-4.147v-7.975c4.841-45.564 25.014-85.686 55.184-115.795l0.003-0.003c30.721-30.871 72.002-51.209 117.967-55.139l0.702-0.048h8.294l3.828-7.018c21.567-37.735 39.292-81.4 50.907-127.494l0.772-3.616 2.233-7.656-5.104-6.38c-26.785-32.673-43.019-74.892-43.019-120.902s16.235-88.229 43.288-121.24l-0.268 0.338 5.104-6.061-2.233-7.975c-13.235-49.431-31.671-92.708-55.243-132.589l1.332 2.435-3.828-7.018h-8.294c-90.532-10.076-161.491-82.019-169.971-172.136l-0.058-0.764v-8.294l-7.018-4.147c-37.626-21.286-81.173-38.892-127.089-50.562l-3.702-0.798zM269.877 15.751c30.855-17.831 66.541-33.057 104.109-43.828l3.395-0.833c37.244 27.216 83.945 43.546 134.46 43.546s97.215-16.33 135.111-43.999l-0.651 0.453c41.070 11.546 76.869 26.776 110.152 45.893l-2.329-1.233c13.839 99.644 91.758 177.563 190.229 191.268l1.173 0.134c17.359 30.571 32.163 65.959 42.58 103.18l0.805 3.368c-28.102 36.945-45.020 83.727-45.020 134.46s16.919 97.515 45.422 135.010l-0.401-0.55c-11.604 40.963-26.829 76.649-45.9 109.845l1.24-2.341c-50.218 7.526-94.075 30.483-127.613 63.812l0.012-0.012c-33.579 33.359-56.607 77.302-63.66 126.405l-0.141 1.196c-30.523 17.148-65.892 31.938-103.033 42.528l-3.514 0.857c-37.244-27.216-83.945-43.546-134.46-43.546s-97.215 16.33-135.111 43.999l0.651-0.453c-41.004-11.665-76.684-26.776-109.968-45.625l2.464 1.284c-7.456-50.235-30.428-94.11-63.807-127.608l0.006 0.006c-33.491-33.373-77.366-56.344-126.358-63.648l-1.243-0.152c-17.175-30.529-31.967-65.901-42.534-103.052l-0.85-3.495c27.882-36.855 44.661-83.459 44.661-133.983 0-0.224 0-0.448-0.001-0.671v0.035c0-0.095 0-0.207 0-0.319 0-50.523-16.779-97.127-45.068-134.543l0.407 0.562c11.591-41.106 26.708-76.9 45.614-110.265l-1.273 2.442c50.299-7.193 94.242-30.221 127.589-63.789l0.012-0.012c32.736-33.304 55.321-76.682 62.685-125.062l0.158-1.264zM512 208.748c-132.135 0-239.252 107.117-239.252 239.252s107.117 239.252 239.252 239.252c132.135 0 239.252-107.117 239.252-239.252v0c-0.181-132.062-107.19-239.071-239.235-239.252h-0.018zM512 655.352c-114.517 0-207.352-92.835-207.352-207.352s92.835-207.352 207.352-207.352c114.517 0 207.352 92.835 207.352 207.352v0c0 114.517-92.835 207.352-207.352 207.352v0z" />
<glyph unicode="&#xe91a;" glyph-name="cog" d="M512 547.097c-54.73 0-99.097-44.367-99.097-99.097s44.367-99.097 99.097-99.097c54.73 0 99.097 44.367 99.097 99.097v0c0 54.73-44.367 99.097-99.097 99.097v0zM1024 583.432c-13.090 50.149-31.522 94.109-55.194 134.634l1.352-2.505c-101.342 10.576-181.164 90.285-191.836 190.648l-0.081 0.939c-37.646 22.010-81.184 40.117-127.207 52.058l-3.601 0.793c-36.522-30.024-83.752-48.227-135.234-48.227-0.070 0-0.14 0-0.209 0h0.011c-0.059 0-0.129 0-0.198 0-51.482 0-98.712 18.203-135.606 48.524l0.372-0.296c-50.135-13.053-94.102-31.604-134.542-55.491l2.413 1.318c-10.753-101.302-90.575-181.011-190.99-191.509l-0.927-0.079c-21.764-37.636-39.753-81.168-51.71-127.133l-0.812-3.675c30.024-36.522 48.227-83.752 48.227-135.234 0-0.070 0-0.14 0-0.209v0.011c0-0.059 0-0.129 0-0.198 0-51.482-18.203-98.712-48.524-135.606l0.296 0.372c13.090-50.149 31.522-94.109 55.194-134.634l-1.352 2.505c101.442-10.604 181.314-90.476 191.839-190.989l0.079-0.928c38.019-22.32 81.979-40.752 128.444-53.016l3.685-0.827c36.598 30.008 83.891 48.197 135.432 48.197s98.834-18.189 135.81-48.497l-0.378 0.3c50.149 13.090 94.109 31.522 134.634 55.194l-2.505-1.352c10.604 101.442 90.476 181.314 190.989 191.839l0.928 0.079c22.32 38.019 40.752 81.979 53.016 128.444l0.827 3.685c-30.008 36.598-48.197 83.891-48.197 135.432s18.189 98.834 48.497 135.81l-0.3-0.378zM512 183.742c-145.946 0-264.258 118.312-264.258 264.258s118.312 264.258 264.258 264.258c145.946 0 264.258-118.312 264.258-264.258v0c0-145.946-118.312-264.258-264.258-264.258v0z" />
<glyph unicode="&#xe91b;" glyph-name="gift-o" d="M944 720h-252.16c28.2 23.642 46.004 58.886 46.004 98.288 0 70.692-57.308 128-128 128-49.326 0-92.136-27.901-113.508-68.783l-0.336-0.706c-21.708 41.587-64.517 69.488-113.844 69.488-70.692 0-128-57.308-128-128 0-39.402 17.804-74.646 45.805-98.126l0.199-0.162h-220.16c-44.183 0-80-35.817-80-80v0-128c-0.010-0.48-0.016-1.046-0.016-1.613 0-38.525 27.231-70.69 63.495-78.296l0.521-0.091v-368c0-61.856 50.144-112 112-112v0h640c61.856 0 112 50.144 112 112v0 368h16c44.183 0 80 35.817 80 80v0 128c0 44.183-35.817 80-80 80v0zM608 912c53.019 0 96-42.981 96-96s-42.981-96-96-96c-53.019 0-96 42.981-96 96v0c0 53.019 42.981 96 96 96v0zM288 816c0 53.019 42.981 96 96 96s96-42.981 96-96c0-53.019-42.981-96-96-96v0c-53.019 0-96 42.981-96 96v0zM32 512v128c0 26.51 21.49 48 48 48v0h400v-224h-400c-26.51 0-48 21.49-48 48v0zM96 64v368h384v-448h-304c-44.183 0-80 35.817-80 80v0zM896 64c0-44.183-35.817-80-80-80v0h-304v448h384zM992 512c0-26.51-21.49-48-48-48v0h-432v224h432c26.51 0 48-21.49 48-48v0z" />
<glyph unicode="&#xe91c;" glyph-name="plus-o" d="M512 960c-282.77 0-512-229.23-512-512s229.23-512 512-512c282.77 0 512 229.23 512 512v0c0 282.77-229.23 512-512 512v0zM512-32c-265.097 0-480 214.903-480 480s214.903 480 480 480c265.097 0 480-214.903 480-480v0c0-265.097-214.903-480-480-480v0zM783.68 480h-239.68v239.36c0 17.673-14.327 32-32 32s-32-14.327-32-32v0-239.36h-239.68c-17.673 0-32-14.327-32-32s14.327-32 32-32v0h239.68v-239.68c0-17.673 14.327-32 32-32s32 14.327 32 32v0 239.68h239.68c17.673 0 32 14.327 32 32s-14.327 32-32 32v0z" />
<glyph unicode="&#xe91d;" glyph-name="search" d="M812.8 241.28c55.906 72.349 89.61 164.332 89.61 264.187 0 1.059-0.004 2.118-0.011 3.175l0.001-0.162c0.009 1.046 0.014 2.282 0.014 3.52 0 247.424-200.576 448-448 448-0.005 0-0.010 0-0.015 0h0.001c-249.877-0.175-452.587-201.873-454.399-451.348l-0.001-0.172c1.813-249.647 204.523-451.345 454.383-451.52h0.017c2.405-0.049 5.24-0.077 8.081-0.077 98.636 0 189.447 33.504 261.674 89.752l-0.955-0.716 192-192c11.277-11.867 27.177-19.248 44.8-19.248s33.523 7.382 44.775 19.222l0.025 0.026c11.834 11.171 19.201 26.965 19.201 44.48s-7.367 33.309-19.172 44.452l-0.030 0.028zM454.4 190.4c-1.906-0.041-4.153-0.064-6.405-0.064-176.079 0-318.942 142.213-319.994 318.044v0.1c0 180.266 146.134 326.4 326.4 326.4s326.4-146.134 326.4-326.4v0c-1.053-175.931-143.916-318.144-319.995-318.144-2.252 0-4.499 0.023-6.74 0.070l0.335-0.005z" />
<glyph unicode="&#xe91e;" glyph-name="caret" d="M456.615 246.406l-263.065 303.491c-8.556 9.696-13.777 22.513-13.777 36.552 0 30.559 24.76 55.34 55.307 55.385h531.115c30.585 0 55.385-24.793 55.385-55.385v0c0.003-0.168 0.004-0.358 0.004-0.557 0-13.781-5.035-26.381-13.355-36.073l0.065 0.071-265.834-303.491c-10.197-11.529-25.021-18.755-41.537-18.755-14.035 0-26.85 5.216-36.61 13.824l0.065-0.053z" />
<glyph unicode="&#xe91f;" glyph-name="export" d="M880 263.68c-8.837 0-16-7.163-16-16v0-154.24c0-44.183-35.817-80-80-80v0h-672c-44.183 0-80 35.817-80 80v0 672c0 44.183 35.817 80 80 80v0h316.16c8.837 0 16 7.163 16 16s-7.163 16-16 16v0h-316.16c-61.856 0-112-50.144-112-112v-672c0-61.856 50.144-112 112-112v0h672c61.856 0 112 50.144 112 112v0 154.24c0 8.837-7.163 16-16 16v0zM1003.52 673.28l-250.24 232.32c-4.136 3.986-9.771 6.441-15.979 6.441-3.366 0-6.564-0.722-9.447-2.020l0.145 0.059c-8.355-3.682-14.082-11.892-14.082-21.439 0-0.113 0.001-0.226 0.002-0.338v0.017-180.8c-209.42-6.218-376.939-176.985-377.92-387.105v-50.975c0-8.837 7.163-16 16-16s16 7.163 16 16v0 50.88c0.846 193.772 155.886 351.055 348.704 355.512l0.416 0.008c15.944 0.181 28.8 13.148 28.8 29.118 0 0.001 0 0.001 0 0.002v0 164.16l229.44-213.12-229.44-213.12v156.8c0 8.837-7.163 16-16 16v0c-8.837 0-16-7.163-16-16v0-176c-0.001-0.096-0.002-0.208-0.002-0.321 0-9.547 5.727-17.756 13.933-21.38l0.149-0.059c2.737-1.239 5.935-1.961 9.301-1.961 6.208 0 11.843 2.455 15.986 6.448l-0.007-0.007 250.56 232.32c4.451 4.425 7.242 10.515 7.36 17.258v0.022c-0.094 6.829-3.025 12.955-7.665 17.266l-0.015 0.014z" />
<glyph unicode="&#xe920;" glyph-name="eye-slash" d="M1017.92 469.76c-37.326 60.386-78.32 112.779-124.379 160.227l0.219-0.227-196.8-196.8c-6.547-92.438-80.007-165.788-171.903-172.128l-0.577-0.032-160-160c43.786-16.904 94.44-26.851 147.373-27.199l0.147-0.001c301.44 0 497.6 334.72 505.6 349.12 4.124 6.795 6.564 15.009 6.564 23.792 0 8.561-2.319 16.581-6.362 23.466l0.118-0.218zM963.84 898.24c-8.411 8.487-20.072 13.741-32.96 13.741s-24.549-5.254-32.957-13.738l-0.003-0.003-149.76-149.44c-67.003 42.799-148.419 68.726-235.799 70.076l-0.361 0.004c-304.32 0-497.92-335.040-505.92-349.44-3.764-6.638-5.982-14.58-5.982-23.040s2.218-16.402 6.105-23.276l-0.123 0.236c53.012-86.677 116.756-160.606 190.643-222.886l1.357-1.114-137.92-138.88c-8.49-8.412-13.746-20.074-13.746-32.965 0-25.396 20.403-46.027 45.711-46.395h0.035c12.48 0.289 23.722 5.362 32.010 13.449l-0.010-0.009 839.68 838.080c8.469 8.36 13.714 19.967 13.714 32.8s-5.246 24.44-13.71 32.795l-0.005 0.005zM325.76 446.4c0.182 102.784 83.456 186.058 186.223 186.24h0.017c34.699-0.060 67.078-9.938 94.524-27.003l-0.764 0.443-253.76-253.44c-16.294 26.774-26.023 59.108-26.24 93.699v0.061z" />
<glyph unicode="&#xe921;" glyph-name="minus-circle" d="M512 960c-282.77 0-512-229.23-512-512s229.23-512 512-512c282.77 0 512 229.23 512 512v0c0 282.77-229.23 512-512 512v0zM512-32c-265.097 0-480 214.903-480 480s214.903 480 480 480c265.097 0 480-214.903 480-480v0c0-265.097-214.903-480-480-480v0zM783.68 480h-544c-17.673 0-32-14.327-32-32s14.327-32 32-32v0h544c17.673 0 32 14.327 32 32s-14.327 32-32 32v0z" />
<glyph unicode="&#xe922;" glyph-name="ppoweroff" d="M790.72 877.44c-2.593 1.886-5.84 3.018-9.352 3.018-8.837 0-16-7.163-16-16 0-5.92 3.215-11.090 7.995-13.857l0.077-0.041c132.288-86.919 218.424-234.633 218.424-402.465 0-265.097-214.903-480-480-480s-480 214.903-480 480c0 164.978 83.231 310.517 209.995 396.916l1.662 1.069c5.153 2.727 8.603 8.055 8.603 14.188 0 8.837-7.163 16-16 16-4.038 0-7.726-1.496-10.542-3.963l0.018 0.016c-136.875-93.313-225.572-248.491-225.572-424.385 0-282.77 229.23-512 512-512s512 229.23 512 512c0 179.156-92.017 336.82-231.368 428.31l-1.94 1.196zM512 384c17.673 0 32 14.327 32 32v0 512c0 17.673-14.327 32-32 32s-32-14.327-32-32v0-512c0-17.673 14.327-32 32-32v0z" />
<glyph unicode="&#xe923;" glyph-name="gift" d="M698.311 557.227c-21.333 13.938-40.107 21.333-44.942 25.316-23.893 13.653-79.36 42.667-142.222 77.653-99.271-54.044-187.164-101.547-187.164-102.969s-7.396-6.258-7.396-21.333v-499.484l145.92-85.333c13.595-8.306 30.045-13.223 47.644-13.223s34.049 4.918 48.052 13.454l-0.407-0.231 148.196 85.333v499.484c0 15.076-5.12 20.196-7.68 21.333zM202.524 259.982v275.911c-0.086 1.802-0.135 3.913-0.135 6.036 0 50.366 27.501 94.309 68.306 117.632l0.664 0.35 121.742 66.56c-83.911 46.364-155.591 85.333-159.289 87.893l-129.138-75.093c-28.688-15.846-47.794-45.912-47.794-80.441 0-0.42 0.003-0.839 0.008-1.258l-0.001 0.063v-415.573c0-0.050 0-0.109 0-0.169 0-35.142 19.024-65.841 47.334-82.361l0.453-0.244 97.849-56.889zM674.702 881.209l-115.484 66.56c-13.801 7.666-30.267 12.179-47.787 12.179s-33.986-4.513-48.299-12.439l0.512 0.26-113.778-66.56 162.133-89.031zM706.56 36.693v0.569l-0.569-0.284v-0.569l0.569 0.284zM820.907 102.4l0.569 0.284v0.569l-0.569-0.284v-0.569zM919.324 739.271l-128 74.24-159.289-87.893 121.742-66.56c-1.422 0-2.56 0-3.982 2.56 43.023-23.177 71.771-67.903 71.771-119.344 0-1.744-0.033-3.479-0.098-5.207l0.007 0.249v-434.062l97.849 56.889c28.651 16.566 47.652 47.009 47.787 81.901v415.592c0.005 0.355 0.008 0.774 0.008 1.194 0 34.529-19.107 64.595-47.324 80.202l-0.471 0.239z" />
<glyph unicode="&#xe924;" glyph-name="question" d="M507.52 279.68h13.76c26.686 0 48.32-21.634 48.32-48.32v-9.92c0-26.686-21.634-48.32-48.32-48.32h-13.76c-26.686 0-48.32 21.634-48.32 48.32v9.92c0 26.686 21.634 48.32 48.32 48.32zM676.16 484.8c-19.42-24.048-41.895-44.59-67.074-61.398l-1.086-0.682c-13.858-9.093-25.457-20.386-34.61-33.512l-0.27-0.408c-3.007-5.533-5.433-11.944-6.946-18.701l-0.094-0.499c-5.072-22.168-24.395-38.538-47.626-39.039l-0.054-0.001h-4.48c-26.91 0.171-48.658 22.025-48.658 48.959 0 2.826 0.239 5.596 0.699 8.29l-0.041-0.289c1.894 10.744 4.781 20.302 8.648 29.342l-0.328-0.862c15.787 27.812 37.374 50.628 63.25 67.385l0.75 0.455c26.822 15.129 45.093 42.672 47.028 74.624l0.012 0.256c0.144 1.704 0.225 3.688 0.225 5.692 0 21.548-9.465 40.884-24.465 54.079l-0.080 0.069c-12.681 9.431-28.649 15.099-45.941 15.099-1.062 0-2.119-0.021-3.17-0.064l0.151 0.005c-1.184 0.064-2.57 0.101-3.965 0.101-19.724 0-37.74-7.314-51.484-19.377l0.088 0.076c-9.213-9.227-16.102-20.778-19.711-33.697l-0.129-0.543c-6.169-19.662-24.136-33.714-45.416-33.92h-12.184c-0.251-0.005-0.548-0.007-0.845-0.007-26.51 0-48 21.49-48 48 0 4.209 0.542 8.291 1.559 12.181l-0.074-0.334c9.274 31.524 27.556 57.99 51.841 77.197l0.319 0.243c31.5 24.613 71.666 39.465 115.3 39.465 2.215 0 4.422-0.038 6.619-0.114l-0.319 0.009c3.487 0.201 7.567 0.316 11.673 0.316 49.947 0 95.928-16.978 132.488-45.477l-0.481 0.361c30.756-26.282 50.128-65.109 50.128-108.461 0-2.708-0.076-5.399-0.225-8.070l0.017 0.371c0.018-0.809 0.028-1.762 0.028-2.718 0-27.805-8.628-53.595-23.354-74.838l0.285 0.435z" />
<glyph unicode="&#xe925;" glyph-name="clock" d="M731.52 374.72h-292.8v288c0 0 0 0 0 0.001 0 42.592 34.528 77.12 77.12 77.12 0.112 0 0.225 0 0.337-0.001h-0.017c42.592 0 77.12-34.528 77.12-77.12v0-142.080h138.24c40.11-0.179 72.599-32.556 72.96-72.606v-0.034c0 0 0 0 0-0.001 0-40.359-32.626-73.098-72.943-73.279h-0.017z" />
<glyph unicode="&#xe926;" glyph-name="qrcode" d="M469.44 490.56h-469.44v469.44h469.44zM85.44 576h298.56v298.56h-298.56zM1024 490.56h-469.44v469.44h469.44zM640 576h298.56v298.56h-298.56zM469.44-64h-469.44v469.44h469.44zM85.44 21.44h298.56v298.56h-298.56zM1024 106.56h-85.44v213.44h-85.12v-128h-256v213.44h85.12v-128h85.44v128h256v-298.88zM1024-64h-426.56v170.56h85.12v-85.12h341.44v-85.44zM170.56 789.44h128v-128h-128v128zM725.44 789.44h128v-128h-128v128zM170.56 234.56h128v-128h-128v128z" />
<glyph unicode="&#xe927;" glyph-name="warning" d="M471.040 226.56c-10.094-10.688-16.381-25.066-16.639-40.909l-0.001-0.051c0.325-15.883 6.597-30.242 16.672-40.994l-0.032 0.034c10.584-10.258 25.033-16.582 40.96-16.582s30.376 6.323 40.975 16.597l-0.015-0.015c10.043 10.718 16.315 25.077 16.639 40.896l0.001 0.064c-0.259 15.894-6.546 30.272-16.668 40.989l0.028-0.029c-10.708 9.975-25.119 16.097-40.96 16.097s-30.252-6.123-40.996-16.131l0.036 0.033zM512 301.44c0 0 0.001 0 0.001 0 21.031 0 38.080 17.049 38.080 38.080 0 0.113 0 0.225-0.001 0.337v-0.017l34.88 347.52c0.204 2.051 0.32 4.432 0.32 6.841 0 40.471-32.809 73.28-73.28 73.28s-73.28-32.809-73.28-73.28c0-2.409 0.116-4.79 0.343-7.139l-0.023 0.298 34.88-347.52c-0.001-0.095-0.001-0.207-0.001-0.32 0-21.031 17.049-38.080 38.080-38.080 0 0 0.001 0 0.001 0v0z" />
<glyph unicode="&#xe928;" glyph-name="convert" d="M512 960c-282.77 0-512-229.23-512-512s229.23-512 512-512c282.77 0 512 229.23 512 512v0c0 282.77-229.23 512-512 512v0zM512-32c-265.097 0-480 214.903-480 480s214.903 480 480 480c265.097 0 480-214.903 480-480v0c0-265.097-214.903-480-480-480v0zM759.040 549.12l-171.84 165.12c-5.8 5.846-13.837 9.466-22.72 9.466s-16.92-3.619-22.718-9.463l-0.002-0.002c-5.751-5.784-9.305-13.757-9.305-22.56s3.555-16.776 9.307-22.562l-0.002 0.002 114.88-110.4h-368.64c-17.673 0-32-14.327-32-32s14.327-32 32-32v0h448c17.673 0 32 14.327 32 32v0c0 0.057 0.001 0.125 0.001 0.192 0 8.63-3.416 16.462-8.97 22.217l0.009-0.010zM736 402.24h-451.52c-16.093-1.833-28.481-15.373-28.481-31.806 0-0.068 0-0.136 0.001-0.205v0.010c0.119-9.267 4.159-17.567 10.533-23.336l0.027-0.024 171.84-165.12c5.716-5.515 13.497-8.925 22.073-8.96h0.007c9.061 0.036 17.228 3.832 23.028 9.908l0.012 0.012c5.751 5.784 9.305 13.757 9.305 22.56s-3.555 16.776-9.307 22.562l0.002-0.002-114.88 110.4h367.36c17.673 0 32 14.327 32 32s-14.327 32-32 32v0z" />
<glyph unicode="&#xe929;" glyph-name="error" d="M512 960c-282.77 0-512-229.23-512-512s229.23-512 512-512c282.77 0 512 229.23 512 512v0c0 282.77-229.23 512-512 512v0zM186.24 448c-0.004 0.572-0.006 1.249-0.006 1.926 0 178.852 144.988 323.84 323.84 323.84 0.677 0 1.354-0.002 2.030-0.006l-0.104 0.001c56.156-0.279 108.995-14.213 155.45-38.647l-1.85 0.887-441.6-441.6c-23.547 44.605-37.481 97.444-37.76 153.512v0.088zM512 122.24c-56.156 0.279-108.995 14.213-155.45 38.647l1.85-0.887 441.6 441.6c23.547-44.605 37.481-97.444 37.76-153.512v-0.088c0.004-0.572 0.006-1.249 0.006-1.926 0-178.852-144.988-323.84-323.84-323.84-0.677 0-1.354 0.002-2.030 0.006l0.104-0.001z" />
<glyph unicode="&#xe92a;" glyph-name="send2" d="M633.92-64c-0.123-0.001-0.269-0.002-0.415-0.002-18.821 0-35.113 10.833-42.979 26.604l-0.126 0.278-144.96 288c-3.754 6.79-5.963 14.886-5.963 23.498 0 10.343 3.187 19.942 8.632 27.869l-0.109-0.167 233.6 316.48-315.52-234.56c-7.746-5.443-17.372-8.699-27.759-8.699-7.964 0-15.48 1.914-22.115 5.307l0.275-0.128-288 144.64c-17.34 7.691-29.216 24.755-29.216 44.593 0 21.167 13.52 39.176 32.396 45.861l0.34 0.105 928 341.44c4.963 1.884 10.701 2.975 16.693 2.975 13.513 0 25.73-5.547 34.499-14.487l0.008-0.008c8.892-8.865 14.394-21.127 14.394-34.673 0-5.927-1.053-11.608-2.983-16.866l0.109 0.34-343.040-926.4c-6.827-17.975-23.376-30.761-43.059-31.993l-0.141-0.007z" />
<glyph unicode="&#xe92b;" glyph-name="success" d="M420.48 227.84l-213.76 242.88 61.12 60.8 152.64-121.6 336 258.24 60.8-45.76-396.8-394.56z" />
<glyph unicode="&#xe92c;" glyph-name="trade" d="M512 960c-282.77 0-512-229.23-512-512s229.23-512 512-512c282.77 0 512 229.23 512 512v0c0 282.77-229.23 512-512 512v0zM512-32c-265.097 0-480 214.903-480 480s214.903 480 480 480c265.097 0 480-214.903 480-480v0c0-265.097-214.903-480-480-480v0zM465.28 677.44c-2.45 15.45-15.675 27.12-31.626 27.12-8.91 0-16.969-3.641-22.771-9.517l-0.003-0.003-165.12-171.84c-5.471-5.731-8.838-13.513-8.838-22.080 0-17.63 14.258-31.931 31.872-32h0.007c0.056 0 0.121-0.001 0.187-0.001 8.949 0 17.041 3.674 22.848 9.595l0.005 0.005 110.4 114.88v-371.2c0-17.673 14.327-32 32-32s32 14.327 32 32v0 449.6c-0.022 1.956-0.372 3.823-0.997 5.558l0.037-0.118zM732.16 416l-110.4-114.88v370.88c0 17.673-14.327 32-32 32s-32-14.327-32-32v0-451.2c-0.069-0.576-0.109-1.243-0.109-1.92s0.040-1.344 0.117-2l-0.008 0.080c2.45-15.45 15.675-27.12 31.626-27.12 8.91 0 16.969 3.641 22.771 9.517l0.003 0.003 165.12 171.84c7.347 5.914 12.008 14.906 12.008 24.987 0 17.673-14.327 32-32 32-10.161 0-19.216-4.736-25.078-12.121l-0.051-0.066z" />
<glyph unicode="&#xe92d;" glyph-name="send" d="M512-64c282.77 0 512 229.23 512 512s-229.23 512-512 512c-282.77 0-512-229.23-512-512v0c0-282.77 229.23-512 512-512v0zM512 928c265.097 0 480-214.903 480-480s-214.903-480-480-480c-265.097 0-480 214.903-480 480v0c0 265.097 214.903 480 480 480v0zM360 484.16l105.28 111.040v-380.48c0-17.673 14.327-32 32-32s32 14.327 32 32v0 388.8l104.64-118.4c5.892-6.66 14.46-10.837 24.003-10.837 8.109 0 15.513 3.016 21.152 7.987l-0.035-0.030c6.754 5.898 10.997 14.525 10.997 24.142 0 8.193-3.079 15.667-8.144 21.328l0.027-0.031-154.56 176.32c-5.793 6.401-14.093 10.441-23.339 10.56h-0.021c-0.072 0.001-0.158 0.001-0.244 0.001-9.413 0-17.877-4.064-23.732-10.534l-0.024-0.027-166.4-175.68c-5.465-5.734-8.828-13.514-8.828-22.080 0-17.688 14.339-32.028 32.028-32.028 9.123 0 17.354 3.814 23.188 9.935l0.012 0.013z" />
<glyph unicode="&#xe92e;" glyph-name="receive" d="M512 960c-282.77 0-512-229.23-512-512s229.23-512 512-512c282.77 0 512 229.23 512 512v0c0 282.77-229.23 512-512 512v0zM512-32c-265.097 0-480 214.903-480 480s214.903 480 480 480c265.097 0 480-214.903 480-480v0c0-265.097-214.903-480-480-480v0zM664 411.84l-105.28-111.040v380.48c0 17.673-14.327 32-32 32s-32-14.327-32-32v0-388.8l-104.64 118.4c-5.892 6.66-14.46 10.837-24.003 10.837-8.109 0-15.513-3.016-21.152-7.987l0.035 0.030c-6.754-5.898-10.997-14.525-10.997-24.142 0-8.193 3.079-15.667 8.144-21.328l-0.027 0.031 154.56-176.32c5.793-6.401 14.093-10.441 23.339-10.56h0.021c0.072-0.001 0.158-0.001 0.244-0.001 9.413 0 17.877 4.064 23.732 10.534l0.024 0.027 166.4 175.040c5.465 5.734 8.828 13.514 8.828 22.080 0 17.688-14.339 32.028-32.028 32.028-9.123 0-17.354-3.814-23.188-9.935l-0.012-0.013z" />
<glyph unicode="&#xe92f;" glyph-name="AE" d="M912.060 373.364c-28.485-53.565-83.941-89.414-147.77-89.414-15.539 0-30.58 2.125-44.848 6.097l1.174-0.279c-33.791 10.002-62.556 28.27-84.976 52.499l-0.112 0.121c-23.268 23.798-45.157 49.235-65.366 76.011l-1.434 1.985c-37.32 49.636-72.024 101.136-109.344 149.276-23.79 30.824-53.411 55.917-87.365 73.933l-1.455 0.703c-30.993 16.495-67.775 26.181-106.818 26.181-1.805 0-3.61-0.022-5.407-0.061l0.269 0.004c-33.386-0.051-64.954-7.755-93.069-21.453l1.265 0.557c-76.201-36.814-127.836-113.502-127.836-202.251 0-19.626 2.525-38.666 7.269-56.805l-0.345 1.56c12.077-48.379 39.367-89.128 76.396-117.94l0.48-0.36c37.729-31.245 86.63-50.204 139.955-50.204 37.683 0 73.155 9.465 104.162 26.15l-1.174-0.578c24.354 13.662 45.353 28.237 64.836 44.565l-0.648-0.529c21.272 17.912 39.556 37.32 58.964 57.844l-40.304 59.712c-12.688-16.792-23.512-33.588-37.32-48.14-13.985-14.947-28.854-28.63-44.684-41.152l-0.844-0.644c-27.885-21.937-63.502-35.183-102.212-35.183-91.717 0-166.068 74.351-166.068 166.068 0 17.072 2.577 33.543 7.36 49.048l-0.312-1.177c9.357 32.674 28.856 59.918 54.813 78.827l0.419 0.289c27.809 21.857 63.321 35.053 101.917 35.053 12.95 0 25.558-1.486 37.654-4.296l-1.119 0.22c43.807-11.178 80.468-36.681 105.616-71.122l0.368-0.53c34.332-41.796 65.68-85.832 96.656-130.244 28.431-45.774 61.413-85.168 99.177-119.38l0.467-0.416c17.727-14.881 37.682-28.16 59.038-39.097l1.794-0.835c29.434-15.219 64.245-24.144 101.144-24.144 3.805 0 7.584 0.093 11.341 0.282l-0.529-0.022c29.050 1.184 56.21 8.077 80.779 19.573l-1.291-0.541c34.661 15.123 63.538 37.892 85.462 66.3l0.37 0.5c15.233 19.459 27.851 41.939 36.768 66.209l0.552 1.711h-56.352c-3.111-0.357-5.772-2.030-7.441-4.442l-0.023-0.034zM982.964 489.424c-10.964 56.392-42.177 104.071-85.605 136.165l-0.599 0.423c-36.045 29.002-82.377 46.554-132.808 46.554-22.118 0-43.448-3.375-63.504-9.638l1.508 0.404c-36.628-10.265-68.225-28.326-94.191-52.38l0.147 0.136c-22.020-20.152-42.172-41.424-62.696-63.068-0.878-1.682-1.396-3.673-1.396-5.784s0.514-4.102 1.429-5.856l-0.033 0.068c10.448-16.42 22.020-32.468 33.588-49.26 17.496 27.2 37.345 50.722 59.83 71.422l0.254 0.23c32.831 32.229 77.864 52.125 127.55 52.125 11.372 0 22.503-1.042 33.295-3.036l-1.122 0.172c42.372-7.55 78.235-30.95 101.933-63.72l0.319-0.468c16.561-23.683 27.271-52.571 29.451-83.81l0.029-0.53h-210.852v-50.38h256.38s3.36 0 4.104 0 5.596 3.732 5.596 5.972c0.304 6.256 0.476 13.586 0.476 20.958 0 18.783-1.122 37.306-3.304 55.506l0.216-2.196z" />
<glyph unicode="&#xe930;" glyph-name="DASH" d="M390.818 394.142c13.858 36.436 27.722 73.264 41.58 112.866-107.722 0-213.852 0-319.596 0-4.249-0.661-7.804-3.169-9.867-6.666l-0.035-0.064c-13.858-35.64-26.932-71.286-39.602-108.114h317.612c3.166-3.166 9.106-1.188 9.902 1.978zM864.070 699.078c-184.942-1.978-371.078 0-557.208 0-13.858 0-27.722 0-41.58 0-4.599-0.028-8.651-2.354-11.060-5.896l-0.030-0.050c-12.67-39.602-26.534-77.226-39.602-118.806h548.497c-1.978-5.94-2.774-9.902-3.962-13.858-25.744-74.054-52.278-148.512-77.226-222.566-1.28-8.694-8.69-15.293-17.639-15.293-1.041 0-2.064 0.090-3.059 0.259l0.104-0.012h-453.448c-22.97 0-46.73 0-69.302 0-3.962 0-11.88-2.774-13.068-6.73-13.858-39.602-26.534-76.436-39.602-116.828 2.199 0.342 4.743 0.535 7.324 0.535s5.125-0.194 7.603-0.57l-0.279 0.034h601.96c1.032-0.053 2.244-0.082 3.461-0.082 6.22 0 12.262 0.751 18.045 2.165l-0.521-0.105c70.522 16.615 126.383 67.231 150.031 133.187l0.459 1.461c6.73 20.992 13.858 39.602 20.594 61.384 20.992 60.594 43.564 118.806 61.384 180.19 3.376 9.135 5.332 19.69 5.332 30.698 0 50.308-40.782 91.084-91.084 91.084-2.154 0-4.289-0.072-6.407-0.221l0.285 0.019z" />
<glyph unicode="&#xe931;" glyph-name="RHOC" d="M556.78 495.47h-179.12v64.48l179.12 60.45v107.92l-206.88-73.44c-17.937 30.062-49.648 50.281-86.196 51.934l-0.234 0.006h-68.51c-2.161 0.15-4.668 0.243-7.21 0.243-29.056 0-55.427-11.532-74.77-30.273l0.030 0.030c-21.832-29.93-34.932-67.449-34.932-108.024 0-4.53 0.167-9.032 0.487-13.483l-0.035 0.596v-155.38h565.12v-64.93l-179.12-60v-107.92l202.85 72.99c17.773-29.933 49.375-50.036 85.776-51.485l0.204-0.005h72.1c1.055-0.037 2.302-0.063 3.543-0.063 30.949 0 58.759 13.482 77.863 34.89l0.094 0.103c21.839 29.843 34.947 67.271 34.947 107.757 0 4.625-0.172 9.212-0.502 13.746l0.036-0.603h4.030v150.46zM302.43 495.47h-148.67v60.45c0 38.96 17.020 55.97 44.78 55.97h68.96c0.846 0.105 1.828 0.168 2.83 0.168 10.859 0 20.044-7.154 23.098-17.006l0.043-0.172c8.137-9.487 13.099-21.905 13.099-35.49 0-1.222-0.039-2.428-0.115-3.636l0.006 0.167zM872.030 340.080c0-38.96-17.46-55.97-44.78-55.97h-67.17c-0.946-0.135-2.037-0.21-3.15-0.21-10.791 0-19.899 7.195-22.78 17.060l-0.040 0.17c-8.137 9.487-13.099 21.905-13.099 35.49 0 1.222 0.039 2.428 0.115 3.636l-0.006-0.167v60.45h151.35z" />
<glyph unicode="&#xe932;" glyph-name="VERI" d="M893.808 549.135c-32.573 27.1-74.843 43.547-120.955 43.547-1.718 0-3.432-0.023-5.139-0.068l0.252 0.005c-77.086 0-131.771-24.048-164.714-82.028-18.284-33.51-29.036-73.399-29.036-115.798 0-1.678 0.016-3.352 0.050-5.022l-0.004 0.249c-0.384-5.027-0.602-10.887-0.602-16.798 0-59.922 22.47-114.595 59.443-156.054l-0.203 0.232c34.24-30.263 79.513-48.74 129.102-48.74 5.578 0 11.101 0.234 16.56 0.692l-0.713-0.048c2.163-0.092 4.702-0.144 7.253-0.144 36.725 0 70.913 10.867 99.521 29.562l-0.698-0.427c33.996 24.727 59.412 59.418 72.099 99.751l0.376 1.384h-111.017c-4.941-14.495-9.553-28.99-24.048-32.943-12.779-5.338-27.583-8.876-43.082-9.862l-0.403-0.021c-1.758-0.114-3.811-0.18-5.88-0.18-23.832 0-45.64 8.667-62.444 23.021l0.133-0.111c-16.337 21.291-26.909 47.782-28.964 76.627l-0.026 0.459h280.344v14.495c0.425 5.183 0.668 11.221 0.668 17.315 0 63.062-25.982 120.056-67.825 160.861l-0.046 0.045zM680.997 423.952c-0.054 1.117-0.084 2.426-0.084 3.743 0 22.997 9.352 43.811 24.459 58.845l0.003 0.003c14.493 14.846 34.704 24.053 57.066 24.053 0.321 0 0.641-0.002 0.962-0.006h-0.048c1.162 0.067 2.521 0.104 3.889 0.104 18.99 0 36.274-7.304 49.197-19.255l-0.048 0.044c15.592-18.352 26.061-41.505 28.937-66.958l0.053-0.574zM299.519 317.876l-115.959 409.809h-120.9l178.88-544.875h111.017l188.433 544.875h-120.9l-120.571-409.809z" />
<glyph unicode="&#xe933;" glyph-name="LSK" horiz-adv-x="673" d="M59.477 622.3l279.204 257.7 257.7-266.622-52.352-401.767 56.817-30.433 19.888-43.425-284.074-121.743-284.074 130.274 24.349 43.826 47.885 21.512-65.337 410.693z" />
<glyph unicode="&#xe934;" glyph-name="KMD" horiz-adv-x="1004" d="M789.964 744.473l-296.473 135.527-296.473-135.527-118.589-288.003 118.589-296.473 300.702-143.997 296.473 139.767 131.298 292.233zM671.375 278.586l-173.644-84.702-173.644 84.702-67.764 173.644 72.003 165.175 169.414 80.473 173.644-80.473 80.473-169.414zM506.2 625.884l-122.823-55.055-50.825-118.589 46.586-122.823 122.823-59.295 118.589 59.295 63.531 118.589-55.055 122.823-122.823 55.055z" />
<glyph unicode="&#xe935;" glyph-name="KNC" horiz-adv-x="577" d="M45.080 652.894l37.981-400.286 152.674-233.568-13.294 857.548-177.361-223.695zM515.246 686.694l-255.214 193.306 7.972-393.454 247.239 200.148zM273.706 16l230.147 198.627-236.223 191.785 6.075-390.413zM278.267 446.675l242.3-196.727 11.393 402.186-253.693-205.459z" />
<glyph unicode="&#xe936;" glyph-name="LTC" horiz-adv-x="936" d="M815.989 16h-712.576l73.036 272.565-103.328-37.408 34.741 127.819 101.984 37.856 123.808 463.178h267.221l-93.525-356.288 130.492 47.655v-2.229l-33.399-124.704-133.611-48.992-53.44-210.208h445.365l-46.763-169.237z" />
<glyph unicode="&#xe937;" glyph-name="GAS" horiz-adv-x="724" d="M272.51 395.773c-58.511-4.538-104.275-53.134-104.275-112.419 0-61.189 48.745-110.992 109.519-112.693l0.157-0.004h36.017c9.268 22.872 14.648 49.396 14.648 77.188 0 7.071-0.352 14.055-1.027 20.944l0.072-0.873c-2.176 43.636-17.965 83.206-43.178 114.96l0.315-0.41c-3.966 4.837-7.969 9.185-12.209 13.291l-0.038 0.036zM545.543 547.777h2.52v63.393c-0.045 1.763-0.076 3.847-0.076 5.934 0 43.773 11.656 84.832 32.032 120.222l-0.623-1.166v2.52h2.52c0.266-0.004 0.58-0.007 0.895-0.007 39.788 0 72.043 32.255 72.043 72.043s-32.255 72.043-72.043 72.043c-39.788 0-72.043-32.255-72.043-72.043 0-24.351 12.078-45.873 30.573-58.917l0.229-0.15c-13.591-53.389-43.265-98.492-83.474-131.115l-0.459-0.354-26.297-21.253c-21.466 5.267-46.107 8.284-71.453 8.284-0.203 0-0.406 0-0.618-0.001h0.028c-24.793-0.043-48.901-2.931-72.024-8.348l2.141 0.422-26.297 21.253c-39.358 33.403-67.901 78.446-80.338 129.792l-0.348 1.681c18.428 13.22 30.291 34.581 30.291 58.713 0 39.788-32.255 72.043-72.043 72.043s-72.043-32.255-72.043-72.043c0-39.788 32.255-72.043 72.043-72.043 0.244 0 0.481 0.001 0.726 0.004h3.207v-2.52c20.413-34.956 32.471-76.956 32.471-121.771 0-1.761-0.022-3.526-0.056-5.284l0.005 0.26v-63.393c-73.699-52.883-121.144-138.316-121.144-234.824 0-82.925 35.029-157.668 91.089-210.234l0.155-0.142c53.892-52.592 127.646-85.033 208.987-85.033 1.372 0 2.737 0.011 4.098 0.027l-0.205-0.003h2.16c1.728-0.032 3.766-0.056 5.813-0.056 164.225 0 297.711 131.626 300.716 295.14l0.005 0.283c-0.637 97.354-48.745 183.341-122.307 236.050l-0.883 0.6zM308.537 143.637c-17.456-31.488-48.819-53.429-85.577-57.581l-0.515-0.046h-6.48c-35.665 1.195-67.061 18.461-87.328 44.755l-0.196 0.268c-25.527 33.029-41.794 74.373-44.281 119.39l-0.027 0.56c-0.525 5.585-0.831 12.072-0.831 18.633 0 39.207 10.75 75.91 29.453 107.322l-0.53-0.962c17.367 31.566 48.778 53.558 85.594 57.584l0.499 0.042c1.036 0.031 2.249 0.054 3.473 0.054 36.643 0 69.175-17.588 89.608-44.789l0.206-0.291c26.279-32.977 42.894-74.702 45.005-120.204l0.020-0.461c0.468-5.291 0.737-11.456 0.737-17.676 0-39.279-10.708-76.057-29.373-107.575l0.536 0.981zM507.367 85.643h-6.48c-37.412 4.089-68.926 26.054-86.155 57.059l-0.295 0.569c-17.749 30.288-28.237 66.699-28.237 105.561 0 6.712 0.311 13.357 0.925 19.91l-0.065-0.84c6.48 95.813 68.795 169.65 138.32 164.607 37.124-3.836 68.487-25.415 85.802-56.001l0.291-0.556c18.161-30.428 28.899-67.115 28.899-106.304 0-6.45-0.294-12.83-0.859-19.135l0.060 0.812c-6.847-93.289-65.197-165.688-131.83-165.688zM452.613 395.773c-33.020-32.921-54.177-77.717-56.537-127.431l-0.019-0.435c-0.406-4.907-0.637-10.632-0.637-16.4 0-29.178 5.933-56.967 16.65-82.235l-0.516 1.382h33.5c61.69 0.757 111.399 50.94 111.399 112.737 0 59.133-45.523 107.632-103.431 112.365l-0.406 0.027z" />
<glyph unicode="&#xe938;" glyph-name="PIVX" horiz-adv-x="838" d="M769.747 806.968l-352.184 73.152-47.256-10.273-143.422-30.819-156.985-31.643c-2.569-0.187-4.59-2.314-4.59-4.919 0-0.298 0.027-0.581 0.079-0.863l-0.005 0.027q0-242.463 0-485.332c0.135-8.662 1.17-17.012 3.033-25.044l-0.154 0.795c4.966-21.362 13.942-40.108 26.156-56.262l-0.269 0.371c19.936-27.43 42.701-51.098 68.29-71.345l0.747-0.568c28.411-22.437 60.338-44.544 93.609-64.635l4.192-2.353c39.869-24.952 88.336-51.638 138.22-75.869l9.723-4.261c3.002-1.479 6.518-2.375 10.247-2.461l0.027-0.001c3.609 0.096 6.993 1.001 9.994 2.524l-0.135-0.063c58.553 25.55 107.392 51.24 154.185 79.936l-5.419-3.091c46.615 27.749 86.995 58.317 123.642 92.794l-0.355-0.336c21.265 19.561 39.302 42.188 53.529 67.262l0.715 1.369c9.626 16.667 15.505 36.565 16.027 57.796l0.003 0.148v493.138zM727.007 263.685c-14.612-21.669-31.445-40.328-50.548-56.376l-0.408-0.339c-36.922-30.999-78.243-59.203-122.236-83.111l-3.922-1.952c-34.347-19.706-76.090-40.223-119.122-58.299l-7.867-2.933c-0.555-0.183-1.189-0.286-1.851-0.286s-1.296 0.103-1.893 0.298l0.042-0.014h-2.878c-76.476 30.782-142.070 65.672-203.359 106.511l4.051-2.54c-28.382 18.76-53.127 39.066-75.596 61.63l-0.018 0.018c-16.655 15.278-30.426 33.375-40.606 53.588l-0.487 1.063c-5.166 11.364-8.195 24.638-8.218 38.619v0.012c2.055 149.589 2.055 303.28 2.055 454.924v5.34l41.092 6.164 68.219 11.921 67.395 9.866 71.098 11.504c21.777 3.702 43.971 6.572 65.748 10.683 1.85 0.189 3.992 0.299 6.164 0.299s4.314-0.11 6.429-0.325l-0.265 0.026c8.518-0.604 16.255-1.624 23.851-3.074l-1.25 0.195 124.925-20.139 61.232-9.042 110.959-17.668h4.933v-463.143c-0.941-20.041-7.406-38.389-17.902-53.786l0.234 0.356zM714.262 748.198s-5.34 0-8.218 0l-71.098 11.097-133.145 21.37-66.572 13.152c-2.351 0.376-5.056 0.592-7.812 0.592s-5.461-0.215-8.098-0.626l0.297 0.035c-13.152 0-26.303-3.702-41.092-5.757l-57.946-9.449-62.462-9.866-62.055-10.273-35.752-5.34-32.467-5.34c-3.702 0-4.517 0-4.517-5.34v-410.953c-0.001-0.149-0.002-0.332-0.002-0.514 0-11.51 2.264-22.494 6.372-32.531l-0.206 0.569c10.483-21.936 24.287-40.6 40.986-56.202l0.106-0.097c16.462-15.876 34.305-30.589 53.243-43.851l1.418-0.944c55.261-37.99 118.447-72.068 185.234-99.117l6.68-2.393c0.791-0.298 1.709-0.468 2.675-0.468s1.874 0.175 2.729 0.489l-0.054-0.021c49.187 19.554 89.754 39.006 128.843 60.785l-5.556-2.84c43.229 23.353 80.54 49.397 114.557 79.108l-0.729-0.622 6.988 6.164c16.085 13.884 29.723 30.017 40.595 48.010l0.501 0.893c7.177 12.941 11.438 28.365 11.504 44.769v406.453c-4.109 2.878-3.285 6.988-4.933 9.042zM276.192 542.726v30.819h168.899c2.878 0 4.109 0 4.109-3.702 0-9.866 0-19.722 0-29.588v-3.285h-168.489c-4.517 0.407-4.517 0.407-4.517 4.933zM599.61 493.822c-16.579-36.619-49.033-63.53-88.339-72.175l-0.838-0.153c-11.913-2.878-25.586-4.523-39.645-4.523-0.514 0-1.017 0.003-1.529 0.008l0.081-0.001h-110.959v-178.762h-46.437v215.338c0 3.285 0 4.109 4.109 4.109h149.173c0.559-0.011 1.217-0.017 1.867-0.017 15.109 0 29.576 2.719 42.954 7.69l-0.85-0.279c23.881 9.412 41.971 28.989 49.166 53.253l0.145 0.579c3.524 10.744 5.551 23.119 5.551 35.956s-2.028 25.212-5.791 36.805l0.24-0.839c-7.786 29.999-31.346 53.019-61.092 59.893l-0.556 0.108c-8.984 2.010-19.331 3.203-29.939 3.285h-161.159v36.983c0 3.285 0 4.517 4.109 4.517h129.858c14.382 0 28.765 0 43.147 0 48.298-0.934 90.127-27.766 112.263-67.149l0.345-0.663c9.166-16.253 15.093-35.453 16.417-55.903l0.024-0.397c0.514-4.701 0.805-10.152 0.805-15.673 0-22.443-4.84-43.757-13.524-62.955l0.391 0.96z" />
<glyph unicode="&#xe939;" glyph-name="REP" horiz-adv-x="869" d="M801.159 249.484c0.010-0.288 0.016-0.621 0.016-0.956 0-12.701-6.891-23.786-17.144-29.725l-0.165-0.084-163.537-97.664-165.066-98.941c-5.643-3.822-12.605-6.106-20.094-6.106s-14.447 2.283-20.222 6.183l0.131-0.081-329.117 196.605c-10.242 5.39-17.286 15.654-18.056 27.621l-0.006 0.097c-0.027 0.496-0.035 1.074-0.035 1.654 0 6.694 1.809 12.967 4.962 18.352l-0.090-0.173 50.868 92.578 281.557 503.596c5.545 10.494 16.388 17.522 28.872 17.522 7.553 0 14.504-2.569 20.030-6.886l-0.075 0.054c4.354-3.294 7.873-7.464 10.338-12.263l0.091-0.198c37.131-65.874 73.758-131.999 110.637-197.873l221.275-396.77c2.818-4.74 4.577-10.403 4.833-16.46l0.003-0.074zM417.865 814.629v0l-299.106-535.135c1.161 0.239 2.186 0.675 3.082 1.289l-0.027-0.022 31.287 17.037c21.381 11.758 46.582 22.93 72.769 31.997l3.534 1.060c5.287 1.647 11.366 2.604 17.672 2.604 0.945 0 1.877-0.025 2.811-0.065l-0.135 0.006c16.049-1.503 30.722-6.129 43.831-13.265l-0.596 0.297c21.401-11.18 39.807-24.476 56.042-40.016l-0.085 0.081c15.677-14.090 35.134-24.272 56.67-28.854l0.809-0.141c5.853-1.269 11.696-2.032 17.801-3.051 0 0 0 0 0-1.269-8.351-7.695-15.458-16.585-21.085-26.425l-0.286-0.538c-0.692-1.034-1.861-1.701-3.175-1.701-0.405 0-0.803 0.067-1.171 0.188l0.027-0.009c-10.429 3.56-21.11 6.356-31.026 10.681-15.151 6.059-28.205 14.12-39.586 24.050l0.163-0.135c-12.082 11.031-25.483 21.032-39.818 29.633l-1.134 0.628c-8.994 5.868-19.381 10.721-30.432 14.023l-0.845 0.218c-2.357 0.729-5.073 1.147-7.885 1.147s-5.527-0.416-8.077-1.198l0.193 0.051c-6.869-2.293-13.738-4.576-20.6-7.372-32.038-13.208-58.788-26.679-84.424-41.846l3.033 1.658-19.33-11.193 299.609-178.040v120.815c-0.062 0.946-0.093 2.062-0.093 3.178s0.031 2.232 0.102 3.327l-0.009-0.149c1.909 13.099 7.656 24.604 16.061 33.613l-0.030-0.033c15.691 16.925 34.642 30.58 55.888 40.010l1.085 0.429c31.065 14.017 55.062 39.097 67.354 70.093l0.3 0.87c0 1.269 0 2.293 1.529 4.073l2.032-3.309 14.498-23.654c1.269-2.293 4.325-4.325 4.576-6.615s-2.544-4.833-4.073-7.372c-15.874-27.214-38.771-48.802-66.231-62.664l-0.909-0.414c-9.153-4.833-18.062-9.665-26.963-15.005-9.908-5.932-18.321-13.207-25.298-21.706l-0.135-0.168c-3.363-3.807-5.522-8.745-5.849-14.174l-0.004-0.068c0-39.424 0-79.099 0-118.522v-4.073l298.593 178.040s-1.269 0-1.78 0l-121.575 62.062c-9.531 4.91-17.562 11.4-24.059 19.204l-0.098 0.126c-18.656 23.030-31.868 51.216-37.231 82.094l-0.154 1.078c-3.537 17.919-9.711 33.857-18.192 48.278l0.391-0.718c-10.403 17.306-23.95 31.669-39.983 42.685l-0.459 0.297c-14.432 10.038-31.58 17.269-50.108 20.492l-0.76 0.11-11.958 1.529c8.431 7.941 15.619 17.073 21.32 27.151l0.297 0.567c0.379 0.135 0.817 0.219 1.269 0.219s0.891-0.081 1.299-0.229l-0.027 0.010 11.958-3.051c27.492-8.171 51.086-22.307 70.229-40.982l-0.031 0.030c18.548-18.131 32.8-40.58 41.121-65.736l0.334-1.161c2.293-7.633 2.796-15.769 4.325-23.654 4.455-21.596 12.122-40.755 22.587-58.038l-0.459 0.814c6.048-10.212 14.714-18.305 25.082-23.497l0.351-0.157 101.737-50.868 4.576-1.78-300.122 540.727v-3.812c0-76.303 0-152.605 0-226.869 0-3.051 0-6.356 0-9.413-2.522-14.287-9.345-26.679-19.058-36.097l-0.020-0.019c-14.733-15.261-32.292-27.689-51.85-36.458l-1.053-0.421c-6.755-3.026-12.341-5.999-17.722-9.289l0.676 0.388c-19.953-13.076-35.813-30.886-46.198-51.882l-0.346-0.767c-8.718-16.769-13.826-36.624-13.826-57.663 0-8.667 0.867-17.127 2.513-25.298l-0.135 0.816c0-5.089 2.032-10.178 3.309-15.518v0l-35.611 13.476c-0.901 0.453-1.562 1.272-1.775 2.267l-0.005 0.026c0 11.193-1.529 22.125 0 33.068 1.665 25.227 9.102 48.4 20.997 68.64l-0.4-0.729c15.421 28.974 38.493 52.133 66.543 67.232l0.859 0.421c9.916 5.34 20.094 10.429 29.759 16.021 10.954 6.53 20.049 15.052 27.026 25.146l0.189 0.288c3.296 4.601 5.288 10.331 5.34 16.519v229.426z" />
<glyph unicode="&#xe93a;" glyph-name="WTC" horiz-adv-x="1366" d="M290.341 729.159c11.662 0.259 22.392 4.032 31.24 10.289l-0.178-0.12 141.917-102.825s0 0 0 0c0-11.833 9.589-21.419 21.419-21.419s21.419 9.589 21.419 21.419v0c0.137 0.564 0.223 1.209 0.223 1.873s-0.081 1.316-0.237 1.929l0.014-0.055 166.023 140.312c5.721-3.884 12.745-6.259 20.309-6.422l0.040-0.001c8.817 0.063 16.865 3.296 23.074 8.612l-0.048-0.038 83.012-63.733c-2.036-5.232-3.216-11.281-3.216-17.607 0-0.21 0.002-0.419 0.005-0.629v0.028c0-26.619 21.576-48.201 48.201-48.201s48.201 21.576 48.201 48.201v0c0.127 0.725 0.191 1.559 0.191 2.409s-0.074 1.689-0.206 2.498l0.014-0.084 133.889 44.99c14.532-30.055 44.787-50.413 79.803-50.413 48.807 0 88.364 39.566 88.364 88.364 0 0.212-0.001 0.424-0.003 0.635v-0.029c0 49.098-39.801 88.899-88.899 88.899s-88.899-39.801-88.899-88.899v0c0.134-5.966 0.716-11.69 1.704-17.274l-0.098 0.672-132.818-44.455c-8.495 13.893-23.583 23.027-40.802 23.027-0.15 0-0.3-0.001-0.457-0.003h0.027c-12.366-0.069-23.625-4.727-32.181-12.36l0.047 0.040-84.617 58.907c0.387 1.853 0.609 3.98 0.609 6.155s-0.222 4.309-0.64 6.366l0.031-0.201c0 20.708-16.788 37.487-37.487 37.487s-37.487-16.788-37.487-37.487v0c-0.003-0.146-0.004-0.323-0.004-0.501 0-5.263 1.187-10.246 3.304-14.702l-0.085 0.206-163.343-140.312-9.643 1.070c-1.288 0.242-2.767 0.385-4.282 0.385s-2.994-0.136-4.432-0.403l0.147 0.027-134.959 99.079c6.366 8.994 10.18 20.179 10.18 32.26 0 0.139-0.001 0.287-0.002 0.425v-0.026c0 32.241-26.136 58.371-58.371 58.371s-58.371-26.136-58.371-58.371c0-32.241 26.136-58.371 58.371-58.371v0zM1104.371 815.382c13.486-0.295 24.343-11.147 24.632-24.608l0.001-0.027c-0.296-13.373-11.209-24.096-24.632-24.096-0.002 0-0.005 0-0.007 0v0c-13.307 0-24.096 10.788-24.096 24.096v0c0 0.002 0 0.004 0 0.007 0 13.415 10.723 24.328 24.073 24.632l0.027 0.001zM290.341 803.071c8.574 0 15.532-6.957 15.532-15.532s-6.957-15.532-15.532-15.532c-8.574 0-15.532 6.957-15.532 15.532v0c0 8.574 6.957 15.532 15.532 15.532v0zM1061.53 429.257h-17.138l14.997 40.163 101.755 53.554-76.581 111.393-132.283-57.835-57.3-155.308c-31.064-3.211-63.198-6.958-95.867-12.32l-58.371 167.629h-118.357l-78.73-220.647-50.877-11.785-95.867 232.43h-125.315v-32.134l93.181-242.067c-38.557-14.461-74.438-29.458-107.107-44.455-74.973-35.881-160.661-89.97-150.491-142.988s113.005-65.874 196.006-67.48h21.419c41.233 0 86.758 0 134.424 6.958l13.926-35.881 91.040 25.169 9.106 25.169c45.525 6.958 92.646 15.532 139.777 25.706 149.057 30.605 280.539 74.227 404.66 131.142l-11.567-4.754c74.973 35.881 160.661 89.97 150.491 142.988s-111.93 63.733-194.936 65.339zM304.802 66.692c-103.36 0-169.234 21.419-175.657 50.877s45.525 73.903 138.706 119.428c31.599 14.997 66.944 29.458 107.107 43.381l79.265-206.721c-39.088-4.534-84.385-7.118-130.288-7.118-6.729 0-13.442 0.056-20.139 0.167l1.007-0.016zM519.016 280.906l-16.067 39.627 32.669 10.715zM711.285 111.672c-42.844-9.106-85.688-17.138-126.921-23.56l93.181 258.669 85.152-223.323zM845.165 280.906l-36.951 107.107c27.317 4.282 53.554 7.494 79.8 10.179zM1238.258 355.354c6.423-29.458-45.525-73.903-138.706-118.892-38.229-18.461-86.407-38.034-135.822-54.918l-9.852-2.927 84.082 227.605h24.632c103.36 0 169.234-21.419 175.657-50.877z" />
<glyph unicode="&#xe93b;" glyph-name="XVG" horiz-adv-x="836" d="M771.066 757.224l-352.873-741.224-352.873 741.224h56.389l-56.389 122.776h705.753l-56.389-122.776h56.389z" />
<glyph unicode="&#xe93c;" glyph-name="ZEC" horiz-adv-x="582" d="M536.169 645.202l-306.029-394.404h306.029v-125.75h-180.279v-109.048h-130.151v109.048h-180.279v125.75l310.42 394.404h-310.42v125.75h180.279v109.048h130.151v-109.048h180.279v-125.75z" />
<glyph unicode="&#xe93d;" glyph-name="ZIL" horiz-adv-x="722" d="M534.735 458.722v130.539l-473.766 230.034-4.563-121.861 326.342-156.092-326.342-165.22v-134.647l482.895-225.475v134.647l-321.773 156.092 317.214 151.983zM178.271 880l-117.302-56.597 478.325-230.034 121.861 52.029-482.895 234.603zM543.864 146.078v-130.078l121.41 56.136v386.586l-117.302-56.136-4.108-256.508zM543.864 589.261v-130.539l121.41 60.705v121.861l-121.41-52.029z" />
<glyph unicode="&#xe93e;" glyph-name="ZRX" d="M406.43 709.787l109.824-101.74 69.383 77.043 11.917 12.349 8.512 4.254 122.172 122.172c-57.783 31.59-125.901 51.889-198.337 56.127l-1.303 0.062c-4.605 0.178-10.010 0.277-15.433 0.277-144.019 0-271.603-70.396-350.2-178.656l-0.864-1.251 126.002-118.335zM239.146 313.489l110.248 114.078-93.645 89.391-16.603 16.178-113.654 105.994c-28.695-56.302-45.509-122.796-45.509-193.213 0-147.427 73.692-277.646 186.261-355.816l1.429-0.94 97.905 105.994zM626.078 162.8l-97.475 93.645-193.253-203.894c46.615-19.428 100.611-32.499 157.121-36.509l1.653-0.092c5.255-0.235 11.415-0.362 17.603-0.362 138.941 0 262.338 66.566 340.034 169.556l0.784 1.079-109.824 101.74zM789.116 777.472l-134.511-127.7 127.7-118.335-85.137-93.645 203.469-187.298c26.683 52.182 43.134 113.554 45.102 178.564l0.018 0.643c0.135 4.081 0.216 8.881 0.216 13.698 0 134.027-60.725 253.876-156.168 333.518l-0.691 0.567z" />
<glyph unicode="&#xe93f;" glyph-name="WAVES" horiz-adv-x="1029" d="M516.47 16l-436.077 432 436.077 432 432-432-432-432z" />
<glyph unicode="&#xe940;" glyph-name="WETH" horiz-adv-x="634" d="M39.624 386.5l275.721-386.5 275.721 386.5-275.721-160.467-275.721 160.467zM594.735 440.26l-275.721 455.74-275.721-455.74 275.721-160.871 275.721 160.871z" />
<glyph unicode="&#xe941;" glyph-name="XLM" horiz-adv-x="1035" d="M930.44 828.771c-4.049 10.649-12.308 18.908-22.687 22.87l-0.27 0.087c-32.849 7.638-70.566 12.020-109.301 12.020-138.433 0-263.804-55.905-354.771-146.371l0.026 0.026c-18.466-16.151-34.574-34.274-48.215-54.219l-0.635-0.977c-5.014-4.504-11.353-7.644-18.359-8.762l-0.206-0.026c-72.937-15.597-135.955-50.946-185.132-100.14l-0.001-0.001c-21.703-23.661-41.385-49.867-58.359-77.912l-1.234-2.206c-2.375-4.139-3.778-9.11-3.778-14.4 0-16.185 13.12-29.31 29.31-29.31 4.007 0 7.82 0.805 11.301 2.26l-0.19-0.076c39.671 13.951 85.436 22.313 133.049 22.953l0.299 0.004v-13.68c32.24-36.637 63.987-73.274 101.115-110.392s73.274-66.921 109.911-101.606h13.68c-0.338-47.693-8.717-93.325-23.856-135.743l0.9 2.884c-1.741-3.61-2.767-7.841-2.767-12.316 0-15.921 12.907-28.816 28.816-28.816 5.741 0 11.091 1.681 15.577 4.568l-0.116-0.073c30.006 16.516 55.751 36.345 78.065 59.495l0.094 0.099c45.863 50.749 80.746 112.351 100.313 180.427l0.803 3.247c0.122 7.539 3.707 14.211 9.223 18.523l0.054 0.037c18.072 18.072 36.637 31.752 54.709 48.849 93.281 93.918 150.925 223.335 150.925 366.207 0 32.689-3.018 64.666-8.791 95.682l0.494-3.208zM717.464 512.719c-18.316-18.409-43.671-29.798-71.677-29.798-55.841 0-101.115 45.274-101.115 101.115s45.274 101.115 101.115 101.115c28.014 0 53.364-11.393 71.677-29.798l0.005-0.005c18.191-18.278 29.435-43.485 29.435-71.314s-11.249-53.035-29.435-71.318l0.005 0.005zM227.517 295.838c-32.727-32.24-160.709-220.303-124.072-256.94s225.188 92.32 253.029 123.584c13.432 15.925 21.601 36.685 21.601 59.351 0 25.222-10.106 48.078-26.501 64.736l0.015-0.015c-16.22 18.783-40.066 30.603-66.674 30.603-21.993 0-42.097-8.077-57.511-21.418l0.112 0.091z" />
<glyph unicode="&#xe942;" glyph-name="XMR" horiz-adv-x="1023" d="M698.574 451.456c-62.988-62.218-124.436-124.815-187.414-187.029l-187.029 187.029v-227.741h-180.117c76.207-125.355 212.042-207.805 367.135-207.805 18.142 0 36.021 1.127 53.579 3.323l-2.093-0.213c68.366 7.878 130.042 31.156 183.221 66.258l-1.563-0.969c55.596 36.153 101.295 82.824 135.256 137.545l1.078 1.865h-182.043zM935.913 523.657c-18.072 103.139-71.365 191.464-146.778 254.064l-0.694 0.565c-73.166 63.58-169.388 102.33-274.655 102.33-31.265 0-61.744-3.422-91.058-9.906l2.783 0.513c-100.654-19.495-186.373-72.994-246.704-147.833l-0.622-0.795c-55.936-66.137-92.046-150.649-98.247-243.356l-0.071-1.28c-0.725-9.328-1.132-20.208-1.132-31.181 0-45.77 7.16-89.87 20.405-131.246l-0.838 3.046c0-4.996 4.226-6.527 9.983-6.527h122.896v361.775l281.506-281.506 279.975 279.975v-361.39h120.978c0.363-0.054 0.784-0.081 1.216-0.081 4.505 0 8.218 3.371 8.766 7.721l0.005 0.041c12.17 38.249 19.18 82.246 19.18 127.883 0 27.287-2.511 53.99-7.306 79.89l0.41-2.684z" />
<glyph unicode="&#xe943;" glyph-name="XRB" horiz-adv-x="954" d="M564.664 32h-180.256l-294.966 189.15v457.903l312.756 184.936h149.36l308.074-198.047v-449.006h4.683l-299.646-184.936z" />
<glyph unicode="&#xe944;" glyph-name="XRP" horiz-adv-x="945" d="M730.076 20.606c-11.37-2.508-24.425-3.954-37.825-3.954-88.246 0-161.902 62.448-179.19 145.562l-0.205 1.188c-1.664 9.385-2.612 20.182-2.612 31.211 0 32.792 8.424 63.622 23.219 90.436l-0.49-0.966c8.802 14.344 14.030 31.695 14.083 50.272v0.017c-2.074 29.789-22.401 54.318-49.787 62.619l-0.501 0.134c-6.099 2.055-13.114 3.24-20.416 3.24-21.054 0-39.806-9.864-51.887-25.224l-0.107-0.138c-10.858-14.083-20.921-30.171-32.18-44.244-31.049-40.036-79.147-65.552-133.218-65.552-15.861 0-31.211 2.195-45.761 6.303l1.184-0.289c-67.809 13.689-120.459 65.94-134.561 132.428l-0.196 1.118c-3.615 13.423-5.687 28.833-5.687 44.728 0 86.566 61.587 158.747 143.33 175.119l1.143 0.189c11.621 2.806 24.963 4.413 38.689 4.413 58.984 0 111.024-29.729 141.944-75.020l0.382-0.591c10.054-13.276 18.103-27.352 28.96-40.224 12.63-12.145 29.818-19.624 48.763-19.624 32.263 0 59.455 21.703 67.78 51.302l0.121 0.498c1.423 5.476 2.235 11.768 2.235 18.247 0 14.030-3.817 27.163-10.475 38.423l0.189-0.35c-17.49 30.036-27.916 66.067-28.156 104.512v0.074c4.766 95.941 83.715 171.92 180.4 171.92 88.139 0 161.542-63.142 177.429-146.656l0.182-1.127c2.535-9.291 4.003-19.954 4.019-30.959v-0.016c-0.494-89.377-66.415-163.217-152.28-176.068l-0.986-0.123c-16.088-2.015-32.988-2.015-49.077-5.23-32.817-6.598-57.179-35.196-57.179-69.475 0-17.588 6.418-33.688 17.039-46.070l-0.081 0.093c13.963-15.423 33.984-25.125 56.277-25.34h0.035c24.433-1.278 47.4-5.162 69.378-11.391l-2.198 0.532c64.764-19.147 112.647-74.461 120.603-142.006l0.080-0.789c1.252-7.974 1.966-17.166 1.966-26.526 0-86.843-61.425-159.336-143.188-176.408l-1.168-0.202z" />
<glyph unicode="&#xe945;" glyph-name="NAS" horiz-adv-x="998" d="M31.188 460.089l289.326-77.205 77.205 250.722-366.531-173.517zM682.366 561.469l-183.267 366.531-159.092-554.865 240.976 130.234 101.38 58.1zM499.098-32l96.313 270.218-250.722 110.738 154.412-380.96zM354.435 368.456l193.013-86.955 53.029-24.175 72.138 279.968-318.18-168.838zM696.79 551.719l-72.138-284.647 342.356 173.909-270.218 110.738z" />
<glyph unicode="&#xe946;" glyph-name="NEM" horiz-adv-x="1023" d="M435.095 543.81c52.652 93.222 133.791 239.105 287.873 231.334 0 0-600.341 263.699-640.91-43.159-28.488-216.657 259.385-358.655 353.038-188.173zM438.98 434.192c-109.628-4.315-275.791-12.513-349.154 125.593 0 0 86.318-653.433 369.444-527.408 198.966 89.338 170.478 405.699-20.284 401.815zM877.481 701.775c-174.793 129.477-438.494-48.768-340.956-215.794 52.652-93.222 141.99-235.653 56.535-365.129 0 0.863 531.724 390.156 284.421 580.924z" />
<glyph unicode="&#xe947;" glyph-name="TRX" horiz-adv-x="906" d="M700.675 745.051l-629.895 134.949 315.156-864 449.688 620.847zM754.573 641.371l-260.847-123.426 184.731 184.323zM637.729 713.374l-205.713-211.476-257.553 310.632zM385.936 150.949l-225.048 605.625 242.745-292.527zM430.779 155.473l18.105 301.575 301.575 143.997z" />
<glyph unicode="&#xe948;" glyph-name="USDT" horiz-adv-x="1220" d="M706.904 664.485v74.753h286.386v140.761h-796.041v-140.761h286.386v-75.724c-224.25-10.676-388.315-48.538-388.315-97.076s166.491-87.856 388.315-97.076v-453.352h223.279v448.5c235.897 8.735 417.442 48.538 417.442 99.988s-178.138 91.738-417.442 99.988zM600.122 515.958c-257.259 0-461.127 29.127-461.127 63.098s147.555 53.391 344.629 58.244v-97.076h223.279v99.988c201.927-6.794 354.335-32.039 354.335-61.155s-203.868-63.098-461.127-63.098z" />
<glyph unicode="&#xe949;" glyph-name="VEN" horiz-adv-x="1065" d="M592.934 63.993c-51.647-103.295-111.558-9.297-111.558-9.297l-398.209 825.344h154.942s287.163-572.78 291.812-577.943c13.994-27.274 40.959-46.155 72.53-48.534l0.297-0.021c48.547 4.649 68.174 72.822 68.174 72.822l261.861 529.396h48.547c5.161 4.649-334.684-689.509-388.4-791.77z" />
<glyph unicode="&#xe94a;" glyph-name="SC" d="M708.624 250.485s46.55 257.141-38.124 341.822c-38.121 39.033-91.271 63.236-150.077 63.236s-111.954-24.203-150.030-63.192l-0.037-0.039c-39.23-37.943-63.581-91.053-63.581-149.854s24.352-111.911 63.523-149.798l0.059-0.056c80.247-84.681 338.272-42.118 338.272-42.118zM395.623 448.668c-0.001 0.136-0.001 0.291-0.001 0.445 0 65.375 52.996 118.371 118.371 118.371s118.371-52.996 118.371-118.371c0-65.375-52.995-118.371-118.37-118.371v0c0 0-0.001 0-0.001 0-65.22 0-118.122 52.747-118.37 117.907v0.028zM263.95 744.378c0-23.262-18.857-42.118-42.118-42.118s-42.118 18.857-42.118 42.118c0 23.262 18.857 42.118 42.118 42.118s42.118-18.857 42.118-42.118zM511.777 880.040c-86.644-0.19-167.276-25.793-234.877-69.739l1.678 1.022 19.062-27.93c60.426 39.742 134.508 63.402 214.107 63.402 0.011 0 0.022 0 0.028 0h-0.002c220.372 0 399.008-178.646 399.008-399.008s-178.646-399.008-399.008-399.008c-220.372 0-399.008 178.646-399.008 399.008v0c0 0.11 0 0.244 0 0.37 0 81.117 24.503 156.507 66.513 219.181l-0.894-1.425-23.941 23.941c-46.628-67.422-74.485-150.931-74.485-240.941 0-0.244 0-0.48 0.001-0.725v0.034c0-0.136 0-0.291 0-0.445 0-238.735 193.528-432.263 432.263-432.263s432.263 193.528 432.263 432.263c0 238.735-193.528 432.263-432.263 432.263-0.155 0-0.31 0-0.464 0h0.028z" />
<glyph unicode="&#xe94b;" glyph-name="SNT" horiz-adv-x="1023" d="M310.392 400.447c-225.544-4.235-230.249-188.347-230.249-188.347s-4.709-230.249 316.416-188.347 356.914 352.673 361.149 356.914c-216.598 10.832-243.901 24.484-447.315 19.78zM626.815 875.067c-320.651-42.381-358.324-356.914-358.324-356.914 217.066-13.652 243.901-27.314 447.315-22.6 226.014 4.235 226.014 188.347 226.014 188.347s5.65 231.664-315.001 191.167z" />
<glyph unicode="&#xe94c;" glyph-name="STEEM" horiz-adv-x="965" d="M296.93 414.202c-28.759 65.357-61.628 129.602-91.505 194.957-7.113 13.504-12.571 29.163-15.539 45.695l-0.145 0.995c-2.131 14.916-3.354 32.141-3.354 49.658 0 23.378 2.174 46.245 6.325 68.415l-0.352-2.292c0.277 2.406 0.433 5.205 0.433 8.028s-0.156 5.623-0.459 8.369l0.027-0.34c-5.272-2.63-9.8-5.486-14.013-8.735l0.193 0.142c-35.536-25.511-64.878-57.237-86.982-93.831l-0.786-1.411c-9.705-15.432-15.461-34.194-15.461-54.302 0-8.97 1.147-17.668 3.299-25.966l-0.157 0.719c13.851-53.97 32.125-101.062 55.17-145.268l-1.762 3.719c28.014-59.754 56.024-119.892 82.913-179.273 8.4-16.671 13.323-36.333 13.323-57.152 0-10.194-1.179-20.112-3.415-29.63l0.175 0.877c-4.483-24.276-11.949-47.808-17.558-70.966-1.161-4.879-2.217-10.978-2.92-17.182l-0.071-0.745s2.992 0 3.737-1.864c5.422 2.351 10.101 5.234 14.298 8.672l-0.105-0.081c44.861 35.163 82.225 77.523 110.897 125.659l1.148 2.077c4.365 8.938 6.922 19.45 6.922 30.561 0 8.734-1.581 17.101-4.463 24.832l0.16-0.491c-12.729 46.365-26.358 84.979-42.321 122.366l2.353-6.212zM595.712 405.612c-34.733 78.43-72.084 156.86-109.431 234.545-19.11 38.112-30.291 83.037-30.291 130.578 0 17.463 1.51 34.579 4.403 51.22l-0.253-1.771c1.864 18.676 3.737 37.352 6.346 59.754-5.26-1.4-9.866-3.583-13.958-6.447l0.137 0.091c-54.977-36.441-98.957-85.318-128.607-142.799l-0.995-2.115c-6.207-15.389-9.806-33.23-9.806-51.917s3.599-36.528 10.148-52.874l-0.342 0.956c23.796-73.754 50.359-136.393 81.674-196.15l-3.243 6.793q46.689-98.224 91.505-196.075c9.845-21.395 15.59-46.426 15.59-72.801 0-13.911-1.594-27.45-4.617-40.441l0.239 1.203c-6.346-29.877-15.684-59.754-23.158-90.010-0.436-3.031-0.681-6.528-0.681-10.083s0.245-7.052 0.728-10.481l-0.044 0.398c7.462 1.429 14.102 4.019 20.066 7.625l-0.272-0.15c55.835 44.982 102.494 98.662 138.563 159.377l1.492 2.722c7.374 13.958 11.707 30.51 11.707 48.080 0 7.846-0.863 15.484-2.504 22.836l0.134-0.695c-13.413 56.421-32.135 105.971-56.24 152.265l1.712-3.619zM868.355 361.541c-30.623 71.339-64.237 140.431-95.988 210.269-10.208 20.408-20.325 45.124-28.721 70.621l-1.16 4.073c-4.004 16.643-6.295 35.755-6.295 55.404 0 16.471 1.611 32.557 4.687 48.125l-0.256-1.568c0 11.949 2.616 23.158 3.737 35.105 0 0-1.864 0-3.737 0-4.828-2.077-8.874-4.198-12.743-6.59l0.413 0.243c-34.553-24.906-63.403-55.303-85.856-90.194l-0.785-1.311c-10.509-15.962-16.765-35.535-16.765-56.571 0-8.146 0.942-16.073 2.715-23.679l-0.135 0.702c13.818-53.802 31.701-100.639 54.131-144.796l-1.84 3.992q42.207-90.76 84.031-180.019c8.122-15.885 12.887-34.646 12.887-54.515 0-7.128-0.616-14.107-1.789-20.904l0.103 0.728c-5.601-28.014-13.075-56.024-19.421-84.031-1.441-5.745-2.509-12.507-2.969-19.441l-0.023-0.353c6.177 2.621 11.461 5.499 16.42 8.819l-0.353-0.226c47.365 36.105 85.911 81.217 113.588 133.010l1.065 2.185c3.926 8.281 6.225 17.992 6.225 28.241 0 3.21-0.227 6.369-0.663 9.462l0.039-0.352c-4.276 27.573-11.437 52.325-21.323 75.65l0.782-2.075z" />
<glyph unicode="&#xe94d;" glyph-name="STRAT" horiz-adv-x="1089" d="M993.37 464.45c-3.026 1.776-6.668 2.829-10.55 2.829s-7.524-1.053-10.648-2.883l0.098 0.054-433.68-274.212-411.32 267.89v74.67l407.1-256.92c3.129-2.162 7.001-3.452 11.18-3.452s8.051 1.29 11.249 3.493l-0.069-0.041 436.63 276.32c5.446 4.11 9.003 10.471 9.278 17.679l0.002 0.041c0.016 0.274 0.025 0.593 0.025 0.915 0 7.046-3.68 13.242-9.219 16.759l-0.081 0.047-436.63 289.4c-3.366 1.809-7.361 2.87-11.6 2.87s-8.234-1.059-11.738-2.938l0.135 0.067-438.74-288.14c-4.812-2.289-8.373-6.539-9.679-11.69l-0.027-0.125c-0.245-0.422-0.399-0.936-0.399-1.48s0.144-1.053 0.405-1.487l-0.009 0.017v-128.67c0-0.045-0.001-0.101-0.001-0.156 0-7.483 3.822-14.077 9.627-17.935l0.081-0.049 431.15-280.12c3.267-2.182 7.281-3.481 11.6-3.481s8.338 1.298 11.682 3.528l-0.081-0.047 414.7 260.29v-75.94l-418.917-268.73-426.93 268.73c-3.258 2.022-7.208 3.213-11.428 3.213-7.48 0-14.093-3.752-18.055-9.472l-0.047-0.076c-2.112-3.267-3.369-7.262-3.369-11.554 0-7.478 3.817-14.068 9.615-17.927l0.081-0.049 437.48-276.32c3.39-1.99 7.441-3.223 11.77-3.375l0.040-0.001c0.059-0.001 0.13-0.001 0.192-0.001 4.173 0 8.047 1.264 11.265 3.426l-0.076-0.045 438.74 282.65c5.873 3.807 9.704 10.34 9.704 17.754 0 0.135-0.002 0.27-0.005 0.405v-0.024 126.56c-0.448 7.482-4.509 13.935-10.449 17.665l-0.091 0.055zM544.92 834.85l398.668-262.82-398.668-253.12-399.51 253.12z" />
<glyph unicode="&#xe94e;" glyph-name="LRC" horiz-adv-x="948" d="M473.93 880l-399.87-537.57 409.050-326.43 390.69 321.57zM414.26 227.41l-170.1 137.97 174.69 229.77zM533.060 585.97l170.1-229.77-170.1-137.97z" />
<glyph unicode="&#xe94f;" glyph-name="MKR" horiz-adv-x="1368" d="M149.621 48h103.226v599.229l320-235.877v-363.356h98.069v410.328l-521.288 389.164v-799.481zM701.878 458.325v-410.328h98.069v363.356l320 235.877v-599.229h98.069v800l-516.129-389.678z" />
<glyph unicode="&#xe950;" glyph-name="OMG" d="M288.842 425.684c-110.921 0-200.845-89.916-200.845-200.845s89.916-200.845 200.845-200.845c110.921 0 200.845 89.916 200.845 200.845v0c-0.251 110.819-90.021 200.585-200.818 200.845h-0.027zM288.842 68.633c-86.27 0-156.215 69.934-156.215 156.215s69.934 156.215 156.215 156.215c86.27 0 156.215-69.934 156.215-156.215v0c0-86.27-69.934-156.215-156.215-156.215v0zM413.364 827.367h54.004v44.633h-178.531c-110.921 0-200.845-89.916-200.845-200.845s89.916-200.845 200.845-200.845c110.921 0 200.845 89.916 200.845 200.845v0c-0.167 63.252-29.806 119.542-75.898 155.893l-0.422 0.322zM288.842 514.949c-86.27 0-156.215 69.934-156.215 156.215s69.934 156.215 156.215 156.215c86.27 0 156.215-69.934 156.215-156.215v0c0-86.27-69.934-156.215-156.215-156.215v0zM735.158 872c-110.921 0-200.845-89.916-200.845-200.845s89.916-200.845 200.845-200.845c110.921 0 200.845 89.916 200.845 200.845v0c-0.251 110.819-90.021 200.585-200.818 200.845h-0.027zM735.158 514.949c-86.27 0-156.215 69.934-156.215 156.215s69.934 156.215 156.215 156.215c86.27 0 156.215-69.934 156.215-156.215v0c0-86.27-69.934-156.215-156.215-156.215v0z" />
<glyph unicode="&#xe951;" glyph-name="PLR" horiz-adv-x="1026" d="M323.183 628.486h25.909v-108.562h-25.909v108.562zM429.508 628.486h-25.909v-108.112h67.902v21.445h-41.99v86.668zM588.1 541.819h-41.99v86.668h-26.359v-108.112h68.349v21.445zM786.456 558.343h12.505l20.106-37.975h29.036l-24.122 44.677c11.202 5.196 18.822 16.337 18.822 29.269 0 0.705-0.027 1.404-0.070 2.096l0.006-0.092c0 26.359-19.207 33.95-42.44 33.95h-39.763v-109.9h25.909zM786.456 607.931h11.616c12.505 0 19.207-3.126 19.207-13.404s-6.702-15.632-19.207-15.632h-11.616zM231.601 628.486h-37.975v-108.112h25.909v35.738h12.955c22.783 0 44.677 11.616 44.677 37.076s-21.445 35.288-45.566 35.288zM231.601 576.658h-12.066v31.273h10.718c12.505 0 19.657-3.576 19.657-14.743s-6.253-16.53-18.764-16.53zM653.773 544.946h32.162l6.253-24.571h27.697l-33.95 108.112h-31.273l-33.505-108.112h26.359zM660.924 574.431c2.677 10.718 5.364 23.678 8.041 34.849v0c2.677-11.167 5.364-24.122 8.49-34.849v-9.379h-16.53zM936.109 749.548c-118.454 81.651-265.063 130.415-423.061 130.415s-304.607-48.764-425.593-132.059l2.532 1.647-9.828-6.702v-12.505c6.669-280.074 150.844-525.097 367.377-670.905l2.966-1.881 62.546-41.551 70.587 46.905c217.274 146.306 359.109 390.191 362.297 667.387l0.005 0.484v11.616zM559.065 99.991l-44.677-30.374-37.975 25.020c-204.75 137.499-340.509 364.067-351.53 622.929l-0.055 1.614c109.197 72.783 243.418 116.142 387.772 116.142s278.575-43.359 390.36-117.762l-2.587 1.62c-6.831-257.69-139.509-482.981-338.59-617.446l-2.725-1.733z" />
<glyph unicode="&#xe952;" glyph-name="QASH" d="M619.379 316.24c13.976 16.61 22.642 38.103 23.139 61.606l0.002 0.107v185.139c0 0.090 0.001 0.2 0.001 0.311 0 55.229-44.515 100.067-99.617 100.587h-80.275c-55.319-0.177-100.11-44.968-100.287-100.267v-185.159c0.177-55.319 44.968-100.11 100.267-100.287h80.246c13.605 0.027 26.541 2.861 38.267 7.959l-0.621-0.243 38.88-45.36c4.449-5.299 11.070-8.643 18.477-8.643 0.125 0 0.243 0.001 0.364 0.003h-0.022c0.026 0 0.047 0 0.078 0 6.108 0 11.692 2.218 16.010 5.893l-0.031-0.027c5.268 4.61 8.583 11.343 8.583 18.853 0 6.114-2.19 11.711-5.839 16.059l0.027-0.036zM593.153 377.953c-0.023-9.004-2.542-17.416-6.906-24.59l0.121 0.209-8.334 9.873c-4.309 3.765-9.99 6.067-16.207 6.067-13.635 0-24.687-11.049-24.687-24.687 0-4.505 1.208-8.721 3.312-12.352l-0.065 0.121 3.699-4.014h-82.080c-28.116 0-50.913 22.796-50.913 50.913v0 185.139c0 28.116 22.796 50.913 50.913 50.913h80.847c28.116 0 50.913-22.796 50.913-50.913v0zM895.247 443.68v8.64h-20.673c-0.432 19.526-2.21 38.282-5.255 56.612l0.314-2.296 20.673 3.393-1.539 8.946-20.673-3.699c-3.747 20.172-8.661 37.779-14.931 54.729l0.733-2.274 19.746 7.101-3.087 8.334-19.134-7.101c-7.048 19.197-14.743 35.469-23.674 50.947l0.837-1.573 18.207 10.179-4.626 7.713-18.819-10.179c-9.938 17.006-20.13 31.621-31.351 45.373l0.499-0.624 16.047 13.266-5.859 6.786-16.047-13.266c-11.957 13.661-24.454 26.062-37.773 37.548l-0.486 0.405 13.266 16.047-6.786 5.859-13.266-16.047c-13.118 10.722-27.734 20.924-43.114 29.968l-1.635 0.891 10.494 18.207-7.713 4.626-10.179-18.207c-13.932 8.299-30.199 16.188-47.146 22.704l-2.228 0.751 7.101 19.746-8.334 3.087-7.101-19.746c-14.672 5.535-32.28 10.449-50.412 13.873l-2.040 0.32 3.699 20.673-9.261 0.927-3.393-20.673c-16.025 2.727-34.78 4.509-53.865 4.932l-0.444 0.009v20.673h-8.64v-20.673c-19.526-0.432-38.282-2.21-56.612-5.255l2.296 0.314-2.781 20.673-8.64-1.539 3.699-20.673c-20.172-3.747-37.779-8.661-54.729-14.931l2.274 0.733-7.101 19.746-8.334-3.087 6.48-19.134c-19.338-7.263-35.608-14.947-51.15-23.761l1.776 0.928-10.494 18.207-7.713-4.626 10.494-18.819c-17.006-9.938-31.621-20.13-45.373-31.351l0.624 0.499-13.266 16.047-6.786-5.859 13.266-16.047c-13.661-11.957-26.062-24.454-37.548-37.773l-0.405-0.486-16.047 13.266-5.859-6.786 16.047-13.266c-10.665-13.032-20.944-27.535-30.207-42.739l-0.96-1.701-17.901 10.494-4.626-7.713 17.901-10.179c-7.776-13.69-15.554-30.051-22.209-46.975l-0.94-2.705-19.44 7.101-3.087-8.334 19.746-7.101c-5.625-14.661-10.639-32.26-14.17-50.382l-0.339-2.079-20.367 3.699-1.233-9.261 20.673-3.393c-2.727-16.025-4.509-34.78-4.932-53.865l-0.009-0.444h-20.673v-8.64h20.673c0.432-19.526 2.21-38.282 5.255-56.612l-0.314 2.296-20.673-2.781 1.539-8.64 20.367 3.699c3.861-20.201 8.883-37.793 15.255-54.727l-0.747 2.266-19.746-7.101 3.087-8.334 19.134 6.48c7.379-19.332 15.162-35.595 24.068-51.125l-0.929 1.755-18.207-10.494 4.626-7.713 18.207 10.494c10.125-17.050 20.317-31.666 31.439-45.493l-0.578 0.744-16.047-13.266 5.859-6.786 16.047 13.266c12.027-13.645 24.633-26.055 38.054-37.524l0.513-0.429-13.266-16.047 6.786-5.859 13.266 16.047c13.032-10.665 27.535-20.944 42.739-30.207l1.701-0.96-10.8-17.901 7.713-4.626 10.494 18.207c13.779-7.977 30.041-15.759 46.914-22.306l2.457-0.837-7.101-19.44 8.334-3.087 7.101 19.746c14.661-5.625 32.26-10.639 50.382-14.17l2.079-0.339-3.699-20.367 8.64-1.539 3.699 20.673c16.042-2.739 34.799-4.518 53.885-4.933l0.421-0.008v-20.673h8.64v20.673c19.526 0.432 38.282 2.21 56.612 5.255l-2.296-0.314 3.393-20.673 8.946 1.539-3.699 20.367c20.201 3.861 37.793 8.883 54.727 15.255l-2.266-0.747 7.101-19.746 8.334 3.087-6.786 19.134c19.522 7.498 35.782 15.175 51.398 23.872l-2.025-1.039 10.179-17.901 7.713 4.626-10.179 18.207c17.050 10.125 31.666 20.317 45.493 31.439l-0.744-0.578 13.266-16.047 6.786 5.859-13.266 16.047c13.797 11.961 26.297 24.471 37.875 37.803l0.393 0.459 16.047-13.266 5.859 6.786-16.047 13.266c10.722 13.118 20.924 27.734 29.968 43.114l0.891 1.635 18.207-10.8 4.626 7.713-18.207 10.494c7.886 13.767 15.572 30.037 22.007 46.914l0.825 2.457 19.746-7.101 3.087 8.334-19.746 7.101c5.535 14.672 10.449 32.28 13.873 50.412l0.32 2.040 20.673-3.699 1.539 8.64-20.673 3.699c2.727 16.025 4.509 34.78 4.932 53.865l0.009 0.444zM512 115.981c-183.369 0-332.019 148.65-332.019 332.019s148.65 332.019 332.019 332.019c183.369 0 332.019-148.65 332.019-332.019v0c-0.351-183.231-148.797-331.673-331.989-332.019h-0.030zM512 880c-238.59 0-432-193.41-432-432s193.41-432 432-432c238.59 0 432 193.41 432 432v0c0 238.59-193.41 432-432 432v0zM512 46.861c-221.542 0-401.139 179.597-401.139 401.139s179.597 401.139 401.139 401.139c221.542 0 401.139-179.597 401.139-401.139v0c0-221.542-179.597-401.139-401.139-401.139v0z" />
<glyph unicode="&#xe953;" glyph-name="ICX" d="M315.398 346.89c-19.528 29.722-31.148 66.148-31.148 105.301 0 0.141 0 0.291 0.001 0.432v-0.027c0.294 123.135 100.027 222.87 223.13 223.163h0.027c0.186 0.001 0.402 0.001 0.618 0.001 38.812 0 75.098-10.828 105.999-29.623l-0.901 0.513 102.13 102.13c-56.368 41.788-127.287 66.901-204.065 66.901-0.073 0-0.135 0-0.208 0h0.013c-197.42 0-357.466-160.040-357.466-357.466v0c0.595-76.147 23.775-146.768 63.16-205.622l-0.855 1.362zM161.682 178.879c-1.93 0.163-4.186 0.253-6.455 0.253-45.129 0-81.703-36.583-81.703-81.703s36.583-81.703 81.703-81.703c2.272 0 4.519 0.090 6.746 0.275l-0.296-0.023c44.389 1.36 80.064 36.854 81.703 81.046l0.005 0.151c0.055 1.095 0.082 2.372 0.082 3.658 0 43.149-34.977 78.136-78.136 78.136-1.286 0-2.566-0.027-3.841-0.090l0.183 0.008zM689.71 577.711c23.169-35.372 37.319-78.497 38.295-124.862l0.005-0.252c-1.427-121.26-99.348-219.18-220.476-220.605l-0.135-0.001c-0.78-0.012-1.696-0.019-2.614-0.019-45.831 0-88.304 14.342-123.19 38.773l0.69-0.459-98.049-96.008c60.365-47.49 137.297-76.409 220.962-77.111l0.159-0.001c2.62-0.074 5.699-0.111 8.79-0.111 192.628 0 348.782 156.154 348.782 348.782 0 3.094-0.038 6.176-0.122 9.247l0.011-0.458c0 0.126 0 0.268 0 0.411 0 83.764-29.062 160.744-77.651 221.402l0.543-0.7zM944.535 798.318c0-45.129-36.583-81.703-81.703-81.703s-81.703 36.583-81.703 81.703c0 45.129 36.583 81.703 81.703 81.703s81.703-36.583 81.703-81.703z" />
<glyph unicode="&#xe954;" glyph-name="IOST" horiz-adv-x="1068" d="M553.073 16l-469.633 244.279 68.958 131.607 400.675-206.873 150.088 87.885-93.747 62.649-50.031-44.168-62.649 62.649 31.098 31.552-62.649 37.406-37.406-31.098-56.341 68.504 12.617 12.617-212.733 137.915 375.435 269.068 362.815-206.419-74.817-125.299-275.377 156.396-125.299-87.439 62.649-44.168 37.406 31.552 87.885-50.031-37.86-31.552 56.341-37.406 31.552 18.927 74.817-56.341-18.481-18.927 256.452-162.705-431.773-250.587z" />
<glyph unicode="&#xe955;" glyph-name="IOTA" horiz-adv-x="1071" d="M869.572 631.12c0.493-0.024 1.068-0.028 1.647-0.028 23.688 0 42.9 19.202 42.9 42.9 0 0.578-0.014 1.161-0.031 1.734l0.003-0.081c0 24.588-19.931 44.519-44.519 44.519s-44.519-19.931-44.519-44.519c0-24.588 19.931-44.519 44.519-44.519v0zM855.405 519.833c0.969-0.081 2.096-0.134 3.237-0.134 22.349 0 40.473 18.117 40.473 40.473s-18.117 40.473-40.473 40.473c-22.305 0-40.395-18.046-40.472-40.33v-0.008c-0.086-0.97-0.137-2.096-0.137-3.237 0-20.56 16.666-37.234 37.234-37.234 0.049 0 0.097 0 0.146 0h-0.009zM822.22 431.611c0.124-0.002 0.263-0.003 0.405-0.003 17.519 0 31.738 14.084 31.967 31.549v0.025c0.008 0.243 0.012 0.522 0.012 0.809 0 17.881-14.499 32.374-32.374 32.374s-32.374-14.499-32.374-32.374c0-17.877 14.492-32.373 32.367-32.374h0.001zM775.679 366.053c0.243-0.010 0.532-0.015 0.824-0.015 14.528 0 26.306 11.778 26.306 26.306 0 0.293-0.006 0.574-0.017 0.864l0.001-0.040c0.010 0.245 0.015 0.542 0.015 0.837 0 14.772-11.641 26.83-26.26 27.491l-0.060 0.003c-1.004 0.133-2.175 0.2-3.357 0.2-15.417 0-27.924-12.501-27.924-27.924s12.501-27.924 27.924-27.924c1.182 0 2.349 0.077 3.489 0.216l-0.135-0.016zM778.517 574.463c0.133 1.173 0.2 2.538 0.2 3.915 0 21.010-17.035 38.044-38.044 38.044s-38.044-17.035-38.044-38.044c0-1.377 0.077-2.741 0.217-4.082l-0.017 0.168c-0.007-0.243-0.011-0.524-0.011-0.812 0-20.335 16.491-36.826 36.826-36.826 0.142 0 0.294 0.001 0.436 0.003h-0.026c0.243-0.007 0.522-0.010 0.809-0.010 20.785 0 37.635 16.85 37.635 37.635 0 0.004 0 0.007 0 0.011v-0.001zM816.961 283.902c0.134-0.003 0.286-0.005 0.438-0.005 12.739 0 23.069 10.33 23.069 23.069 0 0.428-0.014 0.853-0.031 1.274l0.003-0.060c0.133 0.925 0.2 1.99 0.2 3.075 0 12.964-10.505 23.468-23.468 23.468s-23.468-10.505-23.468-23.468c0-1.085 0.077-2.15 0.216-3.199l-0.016 0.124c-0.024-0.36-0.028-0.783-0.028-1.215 0-12.739 10.33-23.069 23.069-23.069 0.013 0 0.027 0 0.030 0h-0.002zM754.232 735.124c-0.243 0.006-0.528 0.009-0.818 0.009-24.138 0-43.71-19.571-43.71-43.71 0-0.29 0.003-0.57 0.010-0.859l-0.001 0.041c0-24.588 19.931-44.519 44.519-44.519s44.519 19.931 44.519 44.519c0 24.588-19.931 44.519-44.519 44.519v0zM739.263 776.806c0.843-0.050 1.836-0.081 2.835-0.081 27.941 0 50.583 22.652 50.583 50.583 0 0.027 0 0.056 0 0.081v-0.005c0 0.027 0 0.067 0 0.098 0 27.916-21.74 50.753-49.222 52.504l-0.151 0.009c-0.482 0.019-1.053 0.027-1.62 0.027-28.028 0-50.777-22.611-50.991-50.589v-0.024c-0.035-0.729-0.061-1.593-0.061-2.456 0-27.167 21.584-49.288 48.542-50.152l0.081-0.002zM706.883 447.8c0.001 0 0.002 0 0.003 0 17.207 0 31.161 13.955 31.161 31.161 0 0.139-0.001 0.287-0.003 0.425v-0.026c0.002 0.119 0.003 0.253 0.003 0.398 0 17.656-14.314 31.97-31.97 31.97s-31.97-14.314-31.97-31.97c0-17.656 14.314-31.97 31.97-31.97 0.286 0 0.567 0.004 0.846 0.013l-0.039-0.001zM632.022 409.356c0.438-15.47 12.864-27.892 28.285-28.324l0.039-0.001c15.113 0.672 27.115 13.087 27.115 28.303 0 0.011 0 0.022 0 0.027v-0.002c0.030 0.495 0.052 1.067 0.052 1.647 0 14.303-11.593 25.896-25.896 25.896-0.448 0-0.891-0.013-1.324-0.030l0.063 0.003c-0.243 0.009-0.522 0.014-0.809 0.014-15.201 0-27.515-12.322-27.515-27.515 0-0.005 0-0.010 0-0.015v0.001zM671.276 331.654c-0.013 0-0.027 0-0.033 0-11.174 0-20.231-9.057-20.231-20.231 0-0.426 0.016-0.849 0.037-1.269l-0.003 0.058c-0.013-0.243-0.020-0.522-0.020-0.809 0-10.725 8.697-19.422 19.422-19.422 0.007 0 0.014 0 0.021 0h-0.001c0.128-0.003 0.273-0.005 0.419-0.005 11.399 0 20.641 9.242 20.641 20.641 0 0.289-0.007 0.567-0.021 0.852l0.002-0.038c0 11.174-9.057 20.231-20.231 20.231v0zM609.763 335.704c0.123-0.003 0.261-0.004 0.405-0.004 12.739 0 23.069 10.33 23.069 23.069 0 0.001 0 0.003 0 0.004v0c0.024 0.361 0.028 0.786 0.028 1.215 0 12.739-10.33 23.069-23.069 23.069-0.152 0-0.304-0.002-0.459-0.005h0.027c-0.361 0.025-0.786 0.029-1.215 0.029-12.514 0-22.659-10.145-22.659-22.659 0-0.152 0.002-0.304 0.005-0.459v0.027c-0.025-0.365-0.029-0.795-0.029-1.227 0-12.739 10.33-23.069 23.069-23.069 0.297 0 0.59 0.007 0.888 0.020l-0.040-0.002zM630.803 531.972c0.062 0.619 0.092 1.325 0.092 2.052 0 11.902-9.336 21.62-21.088 22.223l-0.054 0.003c-0.615 0.061-1.323 0.091-2.040 0.091-12.289 0-22.259-9.963-22.259-22.259 0-0.316 0.008-0.631 0.024-0.945l-0.002 0.043c0-0.005 0-0.011 0-0.017 0-12.964 10.505-23.468 23.468-23.468 0.287 0 0.567 0.006 0.848 0.018l-0.038-0.001c11.594 1.049 20.662 10.536 21.039 22.222l0.001 0.033zM636.878 610.889c0-11.174-9.057-20.231-20.231-20.231s-20.231 9.057-20.231 20.231c0 11.174 9.057 20.231 20.231 20.231s20.231-9.057 20.231-20.231zM640.115 657.426c0.793-0.133 1.709-0.2 2.646-0.2 9.61 0 17.404 7.794 17.404 17.404s-7.794 17.404-17.404 17.404c-0.937 0-1.853-0.077-2.743-0.215l0.097 0.015c-0.286 0.022-0.617 0.027-0.945 0.027-8.496 0-15.376-6.885-15.376-15.376 0-0.728 0.049-1.432 0.144-2.133l-0.011 0.081c-0.004-0.125-0.006-0.265-0.006-0.405 0-9.024 7.206-16.364 16.173-16.588h0.025zM600.451 688.587c0.243-0.012 0.525-0.019 0.814-0.019 11.259 0 20.418 9.020 20.636 20.226v0.024c0.027 0.375 0.039 0.814 0.039 1.258 0 10.503-8.513 19.022-19.022 19.022-0.444 0-0.883-0.018-1.318-0.043l0.060 0.004c-11.174 0-20.231-9.057-20.231-20.231s9.057-20.231 20.231-20.231v0zM539.748 640.022c-0.011-0.243-0.017-0.522-0.017-0.809 0-12.964 10.505-23.468 23.468-23.468 0.006 0 0.012 0 0.017 0h-0.001c12.832 0.45 23.073 10.959 23.073 23.862 0 0.144-0.002 0.297-0.005 0.442v-0.026c0.133 0.925 0.2 1.99 0.2 3.075 0 12.964-10.505 23.468-23.468 23.468s-23.468-10.505-23.468-23.468c0-1.085 0.077-2.15 0.216-3.199l-0.016 0.124zM385.97 328.414c12.974 0.659 23.266 11.235 23.468 24.264v0.023c-1.592 11.787-11.583 20.772-23.678 20.772s-22.086-8.991-23.662-20.656l-0.016-0.126c0.793-12.935 10.984-23.262 23.788-24.274l0.087-0.007zM383.945 394.38c0.243-0.012 0.525-0.019 0.814-0.019 11.259 0 20.418 9.020 20.636 20.226v0.024c-0.857 11.235-10.094 20.052-21.429 20.231h-0.022c-10.995-0.428-19.804-9.236-20.23-20.194l-0.001-0.037c0.621-10.918 9.315-19.616 20.174-20.228l0.057-0.003zM403.374 254.759c0.264-0.011 0.573-0.018 0.891-0.018 14.528 0 26.306 11.778 26.306 26.306 0 0.72-0.027 1.431-0.081 2.133l0.007-0.090c0 14.978-12.137 27.115-27.115 27.115v0c-1.004 0.133-2.175 0.2-3.357 0.2-15.417 0-27.924-12.501-27.924-27.924s12.501-27.924 27.924-27.924c1.182 0 2.349 0.077 3.489 0.216l-0.135-0.016zM454.766 589.439c-0.003 0-0.008 0-0.012 0-18.044 0-32.721-14.396-33.177-32.33l-0.001-0.040c-0.027-0.484-0.041-1.053-0.041-1.622 0-16.983 13.77-30.754 30.754-30.754 0.156 0 0.313 0.001 0.468 0.004h-0.027c0.513-0.027 1.107-0.041 1.701-0.041 17.936 0 32.627 13.891 33.902 31.501l0.008 0.111c0.019 0.374 0.027 0.815 0.027 1.259 0 17.656-14.314 31.97-31.97 31.97-0.575 0-1.156-0.018-1.722-0.044l0.081 0.004zM458.003 469.25c-13.316-0.225-24.058-10.962-24.277-24.262v-0.025c0.999-12.987 11.292-23.288 24.192-24.274l0.086-0.007c12.879 0.668 23.069 11.264 23.069 24.252 0 0.013 0 0.025 0 0.028v-0.002c0.003 0.127 0.004 0.271 0.004 0.416 0 12.903-10.233 23.412-23.032 23.86l-0.038 0.001zM441.818 174.633c17.793 0.227 32.153 14.587 32.374 32.355v0.025c0 0.008 0 0.017 0 0.027 0 17.455-13.808 31.677-31.099 32.351l-0.062 0.002c-0.243 0.008-0.524 0.012-0.812 0.012-17.962 0-32.553-14.448-32.777-32.367v-0.025c-0.002-0.124-0.003-0.263-0.003-0.405 0-17.656 14.314-31.97 31.97-31.97 0.14 0 0.289 0.001 0.428 0.003h-0.026zM502.522 374.958c0.009 0.243 0.014 0.52 0.014 0.806 0 15.417-12.501 27.924-27.924 27.924s-27.924-12.501-27.924-27.924c0-15.417 12.501-27.924 27.924-27.924 0.135 0 0.277 0.001 0.411 0.004h-0.025c0.123-0.002 0.261-0.004 0.405-0.004 14.978 0 27.115 12.137 27.115 27.115 0 0.001 0 0.003 0 0.004v0zM513.442 266.907c0.124-0.002 0.263-0.003 0.405-0.003 17.656 0 31.97 14.314 31.97 31.97 0 0.14-0.001 0.289-0.003 0.428v-0.026c-0.229 17.93-14.818 32.374-32.777 32.374-0.14 0-0.289-0.001-0.428-0.003h0.026c-17.48-0.229-31.564-14.449-31.564-31.967 0-0.14 0.001-0.289 0.003-0.428v0.026c0-17.881 14.499-32.374 32.374-32.374v0zM566.053 552.204c0 14.978-12.137 27.115-27.115 27.115v0c-0.243 0.009-0.524 0.014-0.813 0.014-15.059 0-27.298-12.098-27.514-27.104v-0.025c-0.022-0.364-0.027-0.793-0.027-1.225 0-14.528 11.778-26.306 26.306-26.306 0.297 0 0.587 0.006 0.884 0.017l-0.040-0.001c0.124-0.002 0.263-0.004 0.405-0.004 15.28 0 27.692 12.277 27.92 27.503v0.025zM547.84 714.893c13.013 0.227 23.472 10.827 23.472 23.874 0 0.14-0.002 0.29-0.004 0.429v-0.025c-1.592 11.787-11.583 20.772-23.678 20.772s-22.086-8.991-23.662-20.656l-0.016-0.126c-0.025-0.365-0.029-0.795-0.029-1.227 0-12.739 10.33-23.069 23.069-23.069 0.297 0 0.59 0.007 0.888 0.020l-0.040-0.002zM466.096 660.253c0.452-15.072 12.771-27.119 27.91-27.119 0.143 0 0.297 0.001 0.44 0.004h-0.026c14.978 0 27.115 12.137 27.115 27.115v0c0.002 0.127 0.004 0.27 0.004 0.413 0 15.141-12.047 27.46-27.080 27.909l-0.039 0.001c-15.47-0.438-27.892-12.864-28.324-28.285l-0.001-0.039zM478.235 731.078c0.127-0.002 0.27-0.004 0.414-0.004 14.753 0 26.705 11.961 26.705 26.705 0 0.289-0.005 0.567-0.016 0.852l0.001-0.039c0.023 0.386 0.027 0.837 0.027 1.286 0 14.276-11.031 25.97-25.030 27.031l-0.088 0.007c-0.243 0.009-0.524 0.014-0.812 0.014-15.733 0-28.507-12.642-28.73-28.323v-0.025c0.226-15.105 12.41-27.298 27.499-27.514h0.025zM441.818 665.519c0-17.881-14.499-32.374-32.374-32.374s-32.374 14.499-32.374 32.374c0 17.881 14.499 32.374 32.374 32.374s32.374-14.499 32.374-32.374zM393.253 731.078c0.124-0.002 0.263-0.003 0.405-0.003 17.656 0 31.97 14.314 31.97 31.97 0 0.14-0.001 0.289-0.003 0.428v-0.026c-0.442 17.698-14.672 31.938-32.331 32.374l-0.039 0.001c-17.93-0.229-32.374-14.818-32.374-32.777 0-0.14 0.001-0.289 0.003-0.428v0.026c-0.002-0.131-0.003-0.279-0.003-0.428 0-17.207 13.955-31.161 31.161-31.161 0.427 0 0.852 0.010 1.274 0.027l-0.062-0.002zM317.174 538.047c-0.007-0.243-0.011-0.529-0.011-0.82 0-20.335 16.491-36.826 36.826-36.826 0.291 0 0.571 0.004 0.86 0.012l-0.040-0.001c20.916 1.729 37.234 19.13 37.234 40.339 0 0.044 0 0.088 0 0.135v-0.008c-0.675 19.809-16.892 35.614-36.802 35.614-0.147 0-0.297-0.001-0.45-0.003h0.027c-0.003 0-0.007 0-0.010 0-20.785 0-37.635-16.85-37.635-37.635 0-0.287 0.004-0.567 0.011-0.849l-0.001 0.040zM335.387 402.472c-0.18 9.572-7.548 17.361-16.929 18.207l-0.075 0.006c-0.243 0.014-0.522 0.022-0.809 0.022-9.61 0-17.404-7.794-17.404-17.404 0-0.008 0-0.016 0-0.024v0.001c0.222-9.963 8.24-17.991 18.188-18.213h0.025c0.002 0 0.004 0 0.006 0 9.385 0 16.994 7.609 16.994 16.994 0 0.139-0.002 0.287-0.006 0.425v-0.025zM286.013 351.889c0-0.027 0-0.061 0-0.089 0-11.583 8.841-21.091 20.146-22.162l0.085-0.008c11.087 0.223 20.008 9.153 20.231 20.216v0.025c0.012 0.243 0.019 0.522 0.019 0.809 0 11.174-9.057 20.231-20.231 20.231-0.007 0-0.013 0-0.020 0h0.001c-0.487 0.044-1.053 0.074-1.626 0.074-10.285 0-18.613-8.338-18.613-18.613 0-0.168 0.003-0.336 0.008-0.503l-0.001 0.027zM273.874 648.115c-0.007-0.243-0.010-0.524-0.010-0.812 0-20.65 16.624-37.407 37.221-37.632h0.025c0.243-0.007 0.529-0.011 0.82-0.011 20.335 0 36.826 16.491 36.826 36.826 0 0.291-0.004 0.571-0.012 0.86l0.001-0.040c0.071 0.845 0.107 1.836 0.107 2.835 0 20.785-16.85 37.635-37.635 37.635-0.034 0-0.079 0-0.113 0h0.007c-0.151 0.003-0.335 0.004-0.513 0.004-20.335 0-36.826-16.491-36.826-36.826 0-0.999 0.037-1.985 0.119-2.965l-0.010 0.133zM294.914 708.819c0.243-0.007 0.529-0.011 0.82-0.011 20.335 0 36.826 16.491 36.826 36.826 0 0.291-0.004 0.571-0.012 0.86l0.001-0.040c-2.038 19.036-18.018 33.736-37.435 33.736s-35.397-14.7-37.418-33.57l-0.017-0.166c-0.035-0.621-0.061-1.335-0.061-2.065 0-19.67 15.947-35.614 35.614-35.614 0.59 0 1.175 0.017 1.757 0.041l-0.081-0.004zM135.062 463.176c-26.572-2.425-47.224-24.598-47.224-51.598s20.656-49.168 47.021-51.585l0.2-0.018c1.374-0.133 2.963-0.2 4.571-0.2 28.606 0 51.802 23.194 51.802 51.802s-23.194 51.802-51.802 51.802c-1.609 0-3.207-0.077-4.779-0.218l0.2 0.018zM245.54 601.578c0.007 0.278 0.012 0.604 0.012 0.931 0 23.002-17.77 41.855-40.329 43.577l-0.145 0.011c-24.49-0.229-44.29-20.020-44.519-44.493v-0.026c-0.025-0.505-0.028-1.094-0.028-1.686 0-23.299 18.225-42.334 41.194-43.635l0.116-0.006c24.278 0.675 43.712 20.521 43.712 44.902 0 0.145-0.001 0.297-0.003 0.446v-0.027zM245.54 536.828c-0.027 0-0.066 0-0.098 0-22.349 0-40.473-18.117-40.473-40.473 0-0.999 0.033-1.983 0.107-2.963l-0.009 0.135c0-24.588 19.931-44.519 44.519-44.519s44.519 19.931 44.519 44.519v0c-1.274 24.227-21.238 43.39-45.667 43.39-1.016 0-2.025-0.029-3.030-0.097l0.135 0.008zM332.55 289.157c0.003 0.124 0.004 0.264 0.004 0.405 0 13.041-10.46 23.646-23.457 23.874h-0.025c-0.243 0.011-0.532 0.017-0.825 0.017-13.132 0-23.829-10.422-24.271-23.447l-0.001-0.038c0.203-13.492 10.864-24.436 24.22-25.084l0.060-0.003c13.413 0 24.278 10.874 24.278 24.278v0zM353.597 220.361c-0.226 15.554-12.771 28.108-28.309 28.324h-0.025c-15.113-0.672-27.115-13.087-27.115-28.303 0-0.011 0-0.022 0-0.027v0.002c-0.054-0.628-0.081-1.369-0.081-2.108 0-14.528 11.778-26.306 26.306-26.306 0.739 0 1.48 0.027 2.201 0.088l-0.093-0.008c0.135-0.003 0.297-0.005 0.458-0.005 14.753 0 26.705 11.961 26.705 26.705 0 0.567-0.021 1.138-0.053 1.701l0.005-0.081zM363.711 176.661c-0.124 0.002-0.263 0.003-0.405 0.003-17.656 0-31.97-14.314-31.97-31.97 0-0.14 0.001-0.289 0.003-0.428v0.026c0-0.027 0-0.058 0-0.085 0-18.331 14.858-33.184 33.184-33.184 0.853 0 1.701 0.028 2.54 0.093l-0.112-0.008c0.26-0.010 0.567-0.015 0.88-0.015 16.767 0 30.352 13.585 30.352 30.352 0 0.719-0.027 1.431-0.077 2.133l0.006-0.093c0.049 0.66 0.081 1.43 0.081 2.198 0 17.207-13.955 31.161-31.161 31.161-1.164 0-2.32-0.066-3.455-0.189l0.136 0.015zM428.461 105.837c-20.799-1.052-37.396-17.645-38.44-38.35l-0.005-0.094c1.649-20.277 18.037-36.245 38.354-37.231l0.090-0.004c0.243-0.007 0.524-0.011 0.812-0.011 20.335 0 36.826 16.491 36.826 36.826 0 0.142-0.001 0.294-0.003 0.436v-0.026c0.007 0.243 0.010 0.522 0.010 0.809 0 20.785-16.85 37.635-37.635 37.635-0.004 0-0.007 0-0.011 0h0.001zM505.35 168.569c-0.095 0.001-0.211 0.002-0.328 0.002-21.010 0-38.044-17.035-38.044-38.044s17.035-38.044 38.044-38.044c20.157 0 36.644 15.676 37.956 35.5l0.007 0.115c0.087 0.971 0.138 2.099 0.138 3.242 0 20.56-16.666 37.234-37.234 37.234-0.189 0-0.385-0.002-0.571-0.005h0.027zM615.827 222.389c-1.006 20.539-17.185 36.99-37.504 38.436l-0.133 0.009c-21.010 0-38.044-17.035-38.044-38.044s17.035-38.044 38.044-38.044v0c0.123-0.002 0.263-0.003 0.405-0.003 20.56 0 37.234 16.666 37.234 37.234 0 0.14-0.001 0.289-0.003 0.428v-0.026zM600.451 105.028c-24.403-0.448-44.071-20.115-44.518-44.47l-0.001-0.040c-0.013-0.359-0.020-0.784-0.020-1.215 0-23.913 19.387-43.3 43.3-43.3 0.146 0 0.297 0.001 0.447 0.003h-0.027c24.588 0 44.519 19.931 44.519 44.519s-19.931 44.519-44.519 44.519v0zM672.485 196.893c-24.403-0.448-44.071-20.115-44.518-44.47l-0.001-0.040c0-24.588 19.931-44.519 44.519-44.519s44.519 19.931 44.519 44.519v0c-0.659 24.319-20.2 43.86-44.456 44.517l-0.063 0.002zM714.975 277.018c-0.243 0.014-0.522 0.022-0.809 0.022-9.61 0-17.404-7.794-17.404-17.404 0-0.008 0-0.016 0-0.024v0.001c0.421-9.208 7.786-16.573 16.958-16.993l0.036-0.002c0.793-0.133 1.709-0.2 2.646-0.2 9.61 0 17.404 7.794 17.404 17.404s-7.794 17.404-17.404 17.404c-0.937 0-1.853-0.077-2.743-0.215l0.097 0.015zM723.074 368.074c-13.013-0.227-23.472-10.827-23.472-23.874 0-0.14 0.002-0.29 0.004-0.429v0.025c0-13.188 10.689-23.878 23.878-23.878s23.878 10.689 23.878 23.878v0c-0.225 13.316-10.962 24.058-24.262 24.277h-0.025zM764.35 254.759c0.006 0 0.012 0 0.019 0 11.174 0 20.231 9.057 20.231 20.231 0 0.287-0.007 0.567-0.021 0.847l0.002-0.038c0.004 0.135 0.006 0.291 0.006 0.446 0 10.503-8.513 19.022-19.022 19.022-0.428 0-0.853-0.017-1.273-0.040l0.058 0.004c-0.124 0.003-0.264 0.005-0.405 0.005-11.259 0-20.41-9.012-20.636-20.221v-0.025c0.45-11.265 9.693-20.231 21.032-20.231 0.006 0 0.013 0 0.019 0h-0.001zM798.748 147.518c-0.368 0.012-0.803 0.018-1.24 0.018-27.716 0-50.184-22.467-50.184-50.184 0-0.571 0.011-1.149 0.027-1.715l-0.003 0.081c2.425-26.572 24.598-47.224 51.598-47.224s49.168 20.656 51.585 47.021l0.018 0.2c0.011 0.364 0.018 0.794 0.018 1.227 0 27.941-22.652 50.583-50.583 50.583-0.432 0-0.863-0.006-1.292-0.019l0.065 0.001zM868.763 386.287c-15.642 0-28.324-12.681-28.324-28.324s12.681-28.324 28.324-28.324v0c15.135 1.282 26.951 13.802 27.115 29.124v0.019c0.002 0.123 0.004 0.261 0.004 0.405 0 14.978-12.137 27.115-27.115 27.115-0.001 0-0.003 0-0.004 0v0zM916.109 461.149c-17.615-0.388-31.898-14.115-33.181-31.456l-0.008-0.112c-0.007-0.242-0.012-0.514-0.012-0.797 0-17.881 14.499-32.374 32.374-32.374s32.374 14.499 32.374 32.374c0 17.59-14.030 31.905-31.51 32.367l-0.040 0.001zM949.698 560.296c-21.010 0-38.044-17.035-38.044-38.044s17.035-38.044 38.044-38.044v0c0.001 0 0.002 0 0.003 0 20.871 0 37.811 16.803 38.042 37.612v0.026c0.007 0.243 0.010 0.524 0.010 0.812 0 20.785-16.85 37.635-37.635 37.635-0.142 0-0.294-0.001-0.436-0.003h0.026z" />
<glyph unicode="&#xe956;" glyph-name="KCS" horiz-adv-x="907" d="M446.416-16l-403.9 682.745 399.040 245.255 423.345-245.255-418.485-682.745z" />
<glyph unicode="&#xe957;" glyph-name="ETH" horiz-adv-x="614" d="M297.702-48v225.53l-288.108 150.774 288.108-376.306zM297.702 198.531v745.050l-288.108-593.435 288.108-151.615zM315.34-48l289.369 376.306-289.369-150.774v-225.53zM315.34 944v-745.469l289.369 151.615-289.369 593.857z" />
<glyph unicode="&#xe958;" glyph-name="ETN" horiz-adv-x="1019" d="M112.325 450.134c-0.003 0.508-0.004 1.107-0.004 1.708 0 218.437 177.082 395.519 395.519 395.519 0.599 0 1.204-0.002 1.804-0.005h-0.089c1.873 0.031 4.073 0.054 6.286 0.054 86.343 0 165.698-29.931 228.256-79.977l-0.727 0.562 48.637 26.456c-75.031 63.172-172.747 101.557-279.429 101.557-1.062 0-2.124-0.004-3.184-0.013l0.162 0.001c-0.252 0.001-0.553 0.001-0.856 0.001-245.773 0-445.011-199.238-445.011-445.011 0-0.303 0-0.598 0.001-0.901v0.045c0.028-133.085 57.863-252.661 149.763-334.983l0.423-0.373 34.985 35.416c-83.472 73.583-136.008 180.575-136.534 299.854v0.090zM504.862 810.668c-199.213-1.428-360.153-163.248-360.153-362.658 0-107.803 47.035-204.619 121.707-271.050l0.364-0.318 110.078 114.773-127.998 88.321 189.869 105.813-101.549 75.093 366.505 194.131c-56.651 34.978-125.301 55.757-198.788 55.894h-0.035zM874.356 445.866c0.006 0.724 0.010 1.583 0.010 2.436 0 99.166-40.465 188.881-105.792 253.534l-0.028 0.028-132.266-150.186 114.773-92.589-185.602-105.813 97.281-66.557-312.321-162.989c46.587-25.004 101.93-39.689 160.699-39.689 0.954 0 1.906 0.004 2.858 0.013l-0.142-0.001c198.984 1.445 359.816 162.727 360.534 361.742v0.071zM822.73 763.734l-30.717-35.416c70.554-73.138 114.205-172.643 114.773-282.34l0.001-0.112c0.008-0.881 0.013-1.93 0.013-2.972 0-218.437-177.082-395.519-395.519-395.519-75.691 0-146.418 21.261-206.536 58.144l1.722-0.98-48.637-26.456c70.474-48.678 157.669-77.839 251.674-78.082h0.061c245.859 0.968 444.899 200.008 445.866 445.777v0.089c-0.864 124.177-51.396 236.38-132.699 317.878l0.010-0.010z" />
<glyph unicode="&#xe959;" glyph-name="GBYTE" d="M858.403 864h-692.8c-0.132 0.001-0.295 0.002-0.457 0.002-38.191 0-69.139-30.96-69.139-69.139 0-0.163 0.001-0.325 0.002-0.488v0.026-692.8c-0.005-0.277-0.008-0.598-0.008-0.919 0-37.935 30.756-68.683 68.683-68.683 0.327 0 0.65 0.003 0.967 0.008l-0.048-0.001h686.853c0.41-0.011 0.897-0.017 1.378-0.017 37.935 0 68.683 30.756 68.683 68.683 0 0.33-0.003 0.65-0.008 0.977l0.001-0.049h4.124v692.8c0.005 0.276 0.008 0.598 0.008 0.913 0 37.779-30.498 68.426-68.205 68.681h-0.026zM508.11 97.482c-194.388 0.783-351.66 158.541-351.66 353.038 0 194.977 158.057 353.042 353.042 353.042 194.497 0 352.256-157.276 353.038-351.591v-0.078c0.002-0.407 0.003-0.894 0.003-1.378 0-194.977-158.057-353.042-353.042-353.042-0.488 0-0.963 0.001-1.45 0.004h0.078z" />
</font>
</defs>
</svg>
