<?xml version="1.0" standalone="no"?>
<!DOCTYPE svg PUBLIC "-//W3C//DTD SVG 1.1//EN" "http://www.w3.org/Graphics/SVG/1.1/DTD/svg11.dtd" >
<svg xmlns="http://www.w3.org/2000/svg">
<metadata>Generated by IcoMoon</metadata>
<defs>
<font id="iconfont" horiz-adv-x="1024">
<font-face units-per-em="1024" ascent="960" descent="-64" />
<missing-glyph horiz-adv-x="1024" />
<glyph unicode="&#x20;" horiz-adv-x="512" d="" />
<glyph unicode="&#xe900;" glyph-name="WAX" d="M912.032 543.806l87.402 6.723-97.487-84.040-40.339 30.255 50.424 47.063zM609.487 614.4h97.487l309.269-265.568h-97.487l-73.956 60.509-63.871-60.509h-84.040l-36.978 47.063h-134.465l26.893 40.339h73.956l-43.701 53.786h-26.893l-171.442-208.42h-80.679l50.424 53.786-87.402 13.446-47.063 127.741-47.063-127.741h-90.764l-73.956 198.335h70.594l50.424-141.188 43.701 137.826h90.764l50.424-137.826 40.339 141.188h67.232l-57.147-188.251 157.996 184.889h84.040l127.741-157.996 63.871 57.147-188.251 171.442z" />
<glyph unicode="&#xe901;" glyph-name="FOO" d="M415.86-55.057l425.176 596.215h-278.358l74.527 403.563c224.536-57.502 387.86-258.039 387.86-496.722 0-282.77-229.23-512-512-512-0.243 0-0.487 0-0.73 0.001h0.038c-34.198 0.124-67.556 3.373-99.906 9.476l3.394-0.532zM388.285-48.722c-224.535 57.503-387.859 258.039-387.859 496.722 0 282.62 228.987 511.756 511.549 512h0.024c34.306-0.060 67.783-3.448 100.174-9.859l-3.289 0.543-422.568-595.47h278.358l-74.527-403.936z" />
<glyph unicode="&#xe902;" glyph-name="GVT" d="M219.95 683.885v-67.395c0-172.235 138.535-310.77 310.77-310.77 123.56 0 228.395 86.115 258.35 198.445h-101.095c-26.21-59.905-86.115-101.095-153.515-101.095-108.58 0-198.445 78.63-213.42 183.465h580.355c-18.72-198.445-187.21-351.955-389.4-351.955-104.84 0-202.19 41.185-277.070 112.325-74.885 74.885-112.325 172.235-112.325 277.070v63.65h-97.35v-63.65c0-131.050 52.42-250.865 142.28-344.47 93.605-93.605 213.42-142.28 344.47-142.28 269.585 0 486.75 217.165 486.75 486.75v59.905h-778.795z" />
<glyph unicode="&#xe903;" glyph-name="WPR" d="M103.784 459.030c-18.388 0-36.776-7.356-47.808-18.388v11.032h-51.488v-250.076h55.164v69.876c11.032-7.356 25.744-7.356 40.452-7.356 55.164 0 95.616 40.452 95.616 99.296-3.676 55.164-40.452 95.616-91.94 95.616zM89.076 311.926c-11.032 0-25.744 3.676-33.1 11.032v73.552c7.356 7.356 22.064 14.712 33.1 14.712 25.744 0 44.132-22.064 44.132-51.488 3.676-25.744-14.712-47.808-40.452-47.808 0 0 0 0-3.676 0v0zM313.408 459.030c-58.84 0-99.296-40.452-99.296-99.296s40.452-99.296 99.296-99.296c58.84 0 99.296 40.452 99.296 99.296s-40.452 99.296-99.296 99.296zM313.408 308.25c-25.744 0-44.132 22.064-44.132 51.488s18.388 51.488 44.132 51.488c25.744 0 44.132-22.064 44.132-51.488s-18.388-51.488-44.132-51.488zM1019.512 459.030c-14.712 0-33.1-7.356-44.132-22.064v18.388h-55.164v-191.236h55.164v125.040c7.356 14.712 22.064 22.064 40.452 22.064h3.676v47.808c0 0 0 0 0 0v0zM806.208 459.030c-55.164 0-91.94-40.452-91.94-95.616 0-58.84 40.452-99.296 99.296-99.296 25.744 0 51.488 11.032 73.552 29.42l-33.1 33.1c-11.032-11.032-22.064-14.712-36.776-14.712-22.064-3.676-40.452 11.032-44.132 33.1h125.040c-3.676 69.876-33.1 114.009-91.94 114.009v0zM773.112 378.125c3.676 18.388 18.388 29.42 36.776 29.42s29.42-11.032 33.1-29.42h-69.876zM559.808 499.486c25.744 0 51.488 11.032 73.552 29.42l-33.1 33.1c-11.032-11.032-22.064-14.712-36.776-14.712-22.064-3.676-40.452 11.032-44.132 33.1h121.36c0 73.552-29.42 114.009-88.264 114.009-55.164 0-91.94-40.452-91.94-95.616 0-62.52 40.452-99.296 99.296-99.296v0zM556.132 646.59c18.388 0 29.42-11.032 33.1-29.42h-69.876c3.676 18.388 18.388 29.42 36.776 29.42zM618.652 326.638l-29.42 128.716h-58.84l-29.42-128.716-99.296 364.084v3.676h-58.84l-36.776-128.716-29.42 128.716h-58.84l-29.42-128.716-36.776 128.716h-51.488l51.488-187.56v-3.676h62.52l29.42 106.652 29.42-106.652h62.52v3.676l29.42 106.652 95.616-345.696v-3.676h62.52l29.42 106.652 29.42-106.652h62.52v3.676l51.488 187.56h-51.488l-25.744-128.716z" />
<glyph unicode="&#xe904;" glyph-name="TNB" d="M905.6 499.2c3.2 0 9.6 3.2 12.8 6.4 3.2 9.6 6.4 19.2 9.6 28.8h-25.6c0 9.6 0 16-3.2 22.4-6.4 32-32 48-60.8 54.4-60.8 16-124.8 3.2-188.8 9.6-3.2-12.8-6.4-25.6-9.6-38.4-22.4-96-44.8-195.2-67.2-291.2-3.2-12.8 0-16 12.8-16 44.8 0 86.4 0 131.2 0 22.4 0 48 3.2 70.4 9.6 38.4 6.4 70.4 22.4 89.6 57.6 6.4 16 12.8 28.8 35.2 22.4 3.2 12.8 6.4 22.4 9.6 35.2h-32c0 0 3.2 3.2 3.2 3.2-6.4 12.8-12.8 25.6-22.4 35.2s-25.6 16-32 19.2c16 9.6 35.2 22.4 51.2 35.2 0 3.2 3.2 6.4 16 6.4zM777.6 352c-12.8-12.8-32-16-48-16-22.4 0-44.8 0-67.2 0 6.4 25.6 12.8 51.2 19.2 76.8 0 3.2 3.2 6.4 6.4 6.4 25.6 0 51.2 0 73.6-3.2 16 0 25.6-12.8 28.8-25.6s0-25.6-12.8-38.4zM784 492.8c-9.6-6.4-22.4-9.6-32-9.6-19.2-3.2-35.2 0-54.4 0 6.4 22.4 9.6 48 16 70.4 0 3.2 3.2 3.2 6.4 3.2 19.2 0 38.4 0 54.4-3.2 12.8 0 22.4-6.4 25.6-19.2 3.2-19.2 0-32-16-41.6zM467.2 624h12.8c-25.6-118.4-51.2-233.6-76.8-352h-80c22.4 92.8 41.6 188.8 64 281.6h-108.8c-6.4-28.8-12.8-57.6-19.2-86.4-12.8-60.8-28.8-124.8-41.6-185.6 0-3.2-6.4-9.6-9.6-9.6-25.6 0-51.2 0-80 0 6.4 32 12.8 64 22.4 96 19.2 80 35.2 160 54.4 240 3.2 9.6 6.4 16 19.2 16 80 0 160 0 243.2 0zM576 454.4c3.2-6.4 0-19.2 0-28.8-6.4-38.4-16-80-25.6-121.6-9.6 25.6-19.2 51.2-28.8 73.6-12.8 28.8-22.4 57.6-35.2 89.6-3.2 9.6-6.4 19.2-3.2 32 9.6 41.6 16 80 25.6 124.8 22.4-57.6 44.8-115.2 67.2-169.6zM185.6 569.6c0-3.2-3.2-6.4-6.4-6.4-28.8 0-54.4 0-83.2 0 6.4 19.2 9.6 35.2 12.8 51.2 0 3.2 6.4 3.2 9.6 3.2 25.6 0 51.2 0 80 0-3.2-16-6.4-32-12.8-48z" />
<glyph unicode="&#xe905;" glyph-name="BRD" d="M332.8 393.6c-3.2 19.2-12.8 35.2-28.8 41.6-9.6 6.4-22.4 9.6-35.2 12.8 6.4 3.2 9.6 3.2 16 3.2 28.8 9.6 44.8 32 44.8 64 0 28.8-16 54.4-44.8 60.8-16 6.4-35.2 6.4-51.2 9.6h-172.8c-9.6-6.4-12.8-16-12.8-25.6 0-76.8 0-156.8 0-233.6 0-12.8 3.2-22.4 12.8-25.6h166.4c16 3.2 32 6.4 48 9.6 41.6 12.8 64 41.6 57.6 83.2zM243.2 371.2c-6.4-3.2-12.8-6.4-22.4-6.4-32 0-67.2 0-99.2 0v169.6c38.4-3.2 76.8-3.2 115.2-6.4 9.6 0 16-9.6 16-22.4s-3.2-22.4-16-22.4c-22.4-3.2-41.6-3.2-64-3.2-9.6 0-22.4-3.2-25.6-6.4-3.2-12.8 0-28.8 0-44.8 0-3.2 9.6-6.4 12.8-6.4 22.4 0 41.6 0 64 0 6.4 0 9.6-3.2 16-3.2 12.8-3.2 16-12.8 16-22.4 3.2-16-3.2-22.4-12.8-25.6zM662.4 464c-9.6-38.4-28.8-57.6-67.2-64-3.2 0-9.6-3.2-12.8-3.2 6.4-6.4 12.8-12.8 19.2-19.2l67.2-73.6h-105.6c-19.2 22.4-35.2 44.8-57.6 67.2-16 16-25.6 35.2-22.4 60.8s0 28.8 28.8 28.8c16 0 35.2 0 51.2 3.2s25.6 19.2 25.6 32c0 16-9.6 28.8-28.8 28.8-35.2 0-70.4 0-108.8 0v-220.8h-80c0 6.4 0 12.8 0 19.2 0 80 0 160 0 240 0 12.8 3.2 22.4 16 28.8h179.2c6.4 0 9.6 0 16-3.2 19.2-6.4 38.4-9.6 54.4-19.2 32-25.6 35.2-64 25.6-105.6zM848 588.8c-6.4 0-12.8 3.2-19.2 3.2h-124.8c-12.8-6.4-12.8-16-12.8-28.8 0-76.8 0-153.6 0-230.4 0-9.6 6.4-19.2 9.6-28.8h134.4c12.8 3.2 28.8 3.2 41.6 6.4 64 16 102.4 73.6 102.4 140.8-3.2 70.4-57.6 134.4-131.2 137.6zM892.8 419.2c-9.6-28.8-32-44.8-60.8-48-22.4-3.2-44.8 0-67.2 0v156.8c38.4-3.2 80 9.6 112-25.6 22.4-22.4 25.6-54.4 16-83.2z" />
<glyph unicode="&#xe906;" glyph-name="YOYOW" d="M211.2 582.4c35.2-35.2 35.2-89.6 0-124.8s-89.6-35.2-124.8 0c-35.2 35.2-35.2 89.6 0 124.8 38.4 35.2 92.8 35.2 124.8 0zM265.6 406.4c35.2 35.2 89.6 35.2 121.6 0 35.2-35.2 35.2-89.6 0-121.6-35.2-35.2-89.6-35.2-121.6 0-35.2 32-35.2 86.4 0 121.6zM915.2 585.6c35.2-35.2 35.2-89.6 0-121.6-35.2-35.2-89.6-35.2-121.6 0-35.2 35.2-35.2 89.6 0 121.6s89.6 32 121.6 0zM566.4 460.8c16 12.8 38.4 12.8 51.2 0 16-16 16-38.4 0-51.2 35.2 32 89.6 32 121.6 0 35.2-35.2 35.2-89.6 0-124.8s-89.6-35.2-121.6 0c-35.2 35.2-35.2 89.6 0 121.6-16-12.8-38.4-12.8-51.2 0-16 16-16 38.4 0 54.4-35.2-35.2-89.6-35.2-124.8 0s-35.2 89.6 0 124.8c35.2 35.2 89.6 35.2 124.8 0 32-35.2 32-89.6 0-124.8zM563.2 460.8c0 0 0 0 0 0v0zM617.6 409.6c0 0 0-3.2 0 0v0zM739.2 460.8c16 16 38.4 16 54.4 0s16-38.4 0-54.4c-16-16-38.4-16-54.4 0-12.8 16-12.8 41.6 0 54.4zM265.6 457.6c16-16 16-38.4 0-54.4s-38.4-16-54.4 0c-16 16-16 38.4 0 54.4s38.4 16 54.4 0zM387.2 460.8c16 16 38.4 16 54.4 0s16-38.4 0-54.4c-16-16-38.4-16-54.4 0-12.8 16-12.8 38.4 0 54.4z" />
<glyph unicode="&#xe907;" glyph-name="FUEL" d="M678.4 480c44.8 0 89.6 0 131.2 3.2 9.6 0 12.8 6.4 12.8 12.8 0 25.6 0 51.2 0 80 0 9.6-6.4 12.8-12.8 12.8-28.8 0-57.6 0-86.4 0-19.2-38.4-32-73.6-44.8-108.8zM560 172.8c-41.6 0-80 0-121.6-3.2 25.6 67.2 51.2 137.6 80 204.8-70.4 0-140.8-3.2-211.2-3.2 0-35.2 0-70.4 3.2-105.6 41.6 0 83.2 0 128 3.2-6.4-16-9.6-28.8-16-44.8-6.4-19.2-12.8-38.4-19.2-54.4-64 0-124.8-3.2-188.8-3.2-9.6 9.6-9.6 19.2-9.6 32 0 54.4-3.2 105.6-3.2 160 0 3.2 0 9.6 0 12.8-35.2 0-67.2 0-99.2-3.2 0 0 0 0 0 3.2 9.6 28.8 22.4 57.6 32 89.6 3.2 6.4 6.4 9.6 12.8 9.6 19.2 0 35.2 0 54.4 0 0 6.4 0 9.6 0 12.8 0 54.4-3.2 112-3.2 166.4 0 22.4 0 25.6 22.4 25.6 121.6 3.2 240 3.2 361.6 6.4 3.2 0 6.4 0 12.8 0 0-3.2 0-6.4-3.2-6.4-9.6-25.6-19.2-54.4-28.8-80-3.2-9.6-6.4-12.8-16-12.8-73.6 0-150.4-3.2-224-3.2-3.2 0-9.6 0-12.8 0 0-35.2 0-70.4 3.2-105.6 3.2 0 9.6 0 12.8 0 67.2 0 134.4 3.2 201.6 3.2 19.2 0 38.4 3.2 38.4 25.6 0 0 0 0 0 3.2 9.6 28.8 22.4 54.4 32 83.2 12.8 28.8 22.4 57.6 35.2 89.6 3.2 6.4 6.4 9.6 12.8 9.6 86.4 0 176 3.2 262.4 3.2 12.8 0 19.2-3.2 19.2-19.2 3.2-86.4 3.2-176 6.4-262.4 0-12.8-9.6-25.6-25.6-25.6-57.6 0-115.2-3.2-172.8-3.2-28.8 0-54.4 0-83.2 0-3.2 0-9.6-3.2-9.6-6.4-9.6-25.6-22.4-48-32-73.6-19.2-41.6-35.2-86.4-51.2-128z" />
<glyph unicode="&#xe908;" glyph-name="AMB" d="M508.416 663.132c118.324 0 215.132-96.808 215.132-215.132s-96.808-215.132-215.132-215.132c-118.324 0-215.132 96.808-215.132 215.132s96.808 215.132 215.132 215.132zM580.124 505.368c0-25.1-14.344-50.196-39.44-60.956l25.1-129.080h-118.324l25.1 129.080c-21.512 10.756-35.856 35.856-35.856 60.956 0 39.44 32.268 71.712 71.712 71.712s71.712-32.268 71.712-71.712zM508.416 247.208c111.152 0 197.204 89.64 200.792 200.792 0 111.152-89.64 200.792-200.792 200.792s-200.792-89.64-200.792-200.792c0-111.152 89.64-200.792 200.792-200.792zM770.16 430.072c3.584 0 7.172-3.584 3.584-10.756-3.584-60.956-32.268-121.908-78.88-164.936 0-3.584 0-3.584-3.584-3.584 0 0-3.584 3.584-3.584 3.584-3.584 3.584-3.584 7.172 0 10.756 43.028 43.028 68.124 96.808 75.296 157.764 0 3.584 3.584 7.172 7.172 7.172zM329.136 638.032c0 0 0-7.172-3.584-7.172-39.44-39.44-64.54-93.224-71.712-147.008 0-3.584-3.584-7.172-7.172-7.172 0 0 0 0 0 0-3.584 0-7.172 3.584-7.172 7.172 10.756 57.368 35.856 111.152 78.88 154.18 3.584 3.584 7.172 3.584 10.756 0zM512 745.6c-358.556 0-501.976-297.6-501.976-297.6s129.080-297.6 501.976-297.6c358.556 0 501.976 297.6 501.976 297.6s-150.592 297.6-501.976 297.6zM637.492 211.356c14.344 7.172 25.1 14.344 39.44 25.1 3.584 3.584 3.584 7.172 0 10.756s-7.172 3.584-10.756 0c-32.268-25.1-68.124-39.44-103.98-50.196-17.928 0-32.268 0-50.196 0-21.512 0-43.028 0-60.956 3.584-96.808 21.512-172.108 96.808-193.62 193.62 7.172 3.584 10.756 10.756 10.756 21.512 0 14.344-10.756 21.512-25.1 21.512-7.172 0-17.928-10.756-17.928-25.1 0-10.756 7.172-21.512 21.512-21.512 17.928-78.88 68.124-143.42 136.252-179.276-197.204 46.612-290.428 186.448-319.112 236.644 28.684 50.196 129.080 186.448 311.944 236.644-7.172-3.584-14.344-7.172-21.512-14.344-3.584-3.584-3.584-7.172-3.584-10.756 3.584-3.584 7.172-3.584 10.756-3.584 25.1 17.928 53.784 32.268 86.052 39.44 21.512 3.584 43.028 3.584 64.54 3.584 17.928 0 32.268 0 50.196-3.584 96.808-21.512 175.692-96.808 197.204-193.62-7.172-3.584-14.344-10.756-14.344-21.512 0-14.344 10.756-25.1 25.1-25.1s25.1 10.756 25.1 25.1c0 10.756-7.172 21.512-17.928 21.512-17.928 78.88-68.124 143.42-136.252 179.276 190.032-43.028 294.016-186.448 326.284-240.232-35.856-46.612-136.252-186.448-329.868-229.476z" />
<glyph unicode="&#xe909;" glyph-name="MOOLYA" d="M860.8 345.6c3.2 3.2 6.4 6.4 9.6 9.6l38.4-38.4c-3.2-3.2-6.4-6.4-9.6-9.6-38.4-38.4-92.8-60.8-144-60.8s-105.6 19.2-144 60.8l-99.2 99.2 38.4 38.4 99.2-99.2c60.8-57.6 153.6-57.6 211.2 0zM918.4 576c54.4-73.6 54.4-172.8 0-246.4l-38.4 38.4c35.2 51.2 35.2 118.4 0 169.6l38.4 38.4zM144 537.6c-35.2-51.2-35.2-118.4 0-169.6l-38.4-38.4c-54.4 73.6-54.4 172.8 0 246.4l38.4-38.4zM374.4 345.6l99.2 99.2 38.4-38.4-99.2-99.2c-38.4-38.4-92.8-60.8-144-60.8s-105.6 19.2-144 60.8c-3.2 3.2-6.4 6.4-9.6 9.6l38.4 38.4c3.2-3.2 6.4-6.4 9.6-9.6 57.6-57.6 150.4-57.6 211.2 0zM649.6 556.8l-99.2-99.2-38.4 38.4 99.2 99.2c80 80 208 80 288 0 3.2-3.2 6.4-6.4 9.6-9.6l-38.4-38.4c-3.2 3.2-6.4 6.4-9.6 9.6-57.6 60.8-150.4 60.8-211.2 0zM124.8 595.2c80 80 208 80 288 0l99.2-99.2-38.4-38.4-99.2 99.2c-57.6 57.6-153.6 57.6-211.2 0-3.2-3.2-6.4-6.4-9.6-9.6l-38.4 38.4c3.2 3.2 6.4 6.4 9.6 9.6z" />
<glyph unicode="&#xe90a;" glyph-name="BOS" d="M512 15.999c238.592 0 431.993 193.401 431.993 431.993s-193.401 432.020-431.993 432.020c-238.592 0-431.993-193.428-431.993-432.020s193.401-431.993 431.993-431.993zM512 959.992c282.759 0 512-229.214 512-512 0-282.759-229.241-512-512-512s-512 229.241-512 512c0 282.786 229.241 512 512 512zM695.861 263.227c-14.921-15.030-32.941-25.836-52.661-31.815-11.52-3.483-23.615-5.321-36.012-5.376l-19.391-0.082 0.302-77.041-68.98-0.302-0.384 77.041-59.271-0.274 0.357-77.041-83.874-0.384-0.329 73.778-81.926-0.357-0.357 77.645 81.954 0.357-1.262 282.686-81.954-0.384-0.329 77.672 81.926 0.357-0.384 87.409 83.819 0.384 0.439-90.672 59.134 0.247-0.384 90.672 69.282 0.302 0.384-90.645 19.282 0.082c33.571 0.137 65.168-12.781 89.030-36.423 23.835-23.614 37.027-55.1 37.192-88.67 0.165-35.325-14.372-67.332-37.823-90.288 23.615-22.737 38.453-54.552 38.618-89.85 0.165-33.57-12.781-65.166-36.396-89.027zM669.538 507.697c-0.081 15.685-5.709 30.395-15.863 41.442s-23.619 17.073-37.919 17.014l-143.14-0.709 0.458-117.444 143.167 0.709c29.517 0.148 53.432 26.614 53.297 58.988zM615.756 408.615l-143.141-0.709 0.458-117.444 143.194 0.709c14.274 0.059 27.686 6.233 37.758 17.398 10.072 11.136 15.566 25.905 15.513 41.59-0.135 32.374-24.238 58.604-53.782 58.456zM511.986 841.846c-217.501 0-393.832-176.326-393.832-393.846 0-217.493 176.332-393.846 393.832-393.846 217.555 0 393.86 176.353 393.86 393.846 0 217.52-176.304 393.846-393.86 393.846z" />
<glyph unicode="&#xe90b;" glyph-name="TRAC" d="M1007.078 545.411c-85.591-29.463-169.032-58.167-252.689-86.969h-1.552v86.969h254.241zM378.725 237.854c119.314-62.287 225.845-37.323 319.876 56.567 63.594-53.213 127.258-106.496 190.923-159.744-133.155-164.228-379.48-236.756-597.804-133.897-224.362 105.719-337.638 349.961-274.255 586.929 63.206 236.297 281 376.726 485.517 372.171v-246.819c-141.418-14.654-230.435-87.428-251.692-231.283-13.912-94.137 39.724-198.126 127.435-243.924zM722.792 331.095c6.674 14.089 12.535 26.518 18.997 40.148 78.848-28.566 156.637-56.744 236.968-85.839-12.465-26.906-24.364-52.542-37.358-80.437-73.905 42.655-145.902 84.18-218.606 126.129zM889.206 780.595c-63.206-53.071-126.976-106.602-191.064-160.415-10.311 10.487-20.056 20.445-31.32 31.85 53.071 63.382 106.178 126.835 161.898 193.395 20.268-21.716 39.583-42.443 60.487-64.83z" />
<glyph unicode="&#xe90c;" glyph-name="INSUR" horiz-adv-x="983" d="M354.744 13.504l67.544 0.254-67.481-40.495c-67.481 0-119.455 41.097-143.302 82.449l-189.41 328.113c-29.459 51.023-29.459 114.381 0 165.373l10.56 18.297 20.232-47.186c-17.6-36.88-16.363-80.546 4.249-116.252l189.441-328.082c22.229-38.529 63.707-62.471 108.166-62.471zM246.572 857.063l-164.358-284.669-21.69 43.381 151.008 261.552c29.428 50.991 84.319 82.67 143.207 82.67h378.851c58.887 0 113.779-31.679 143.238-82.67l56.414-97.733-119.931-120.089-34.914 83.558c-18.012 43.222-58.253 71.952-104.329 75.979l-20.644 41.288h9.735c66.942 0 126.844-39.892 152.593-101.665l11.606-27.779 55.304 55.336-40.875 70.842c-22.261 38.529-63.707 62.471-108.198 62.471h-378.851c-44.459 0-85.937-23.942-108.166-62.471zM304.111 757.395l-131.854-228.446c-22.261-38.497-22.261-86.381 0-124.91l131.854-228.414c22.229-38.529 63.707-62.439 108.166-62.439h263.772c44.49 0 85.905 23.91 108.198 62.439l25.179 43.666-69.701 60.156c-30.252-47.091-82.861-76.011-139.148-76.011h-112.828c-58.856 0-113.779 31.679-143.238 82.702l-56.382 97.67c-29.459 51.023-29.459 114.381 0 165.404l56.382 97.701c29.459 50.991 84.383 82.67 143.238 82.67h112.828c48.169 0 93.389-21.437 124.466-57.080 16.299 5.201 34.819 1.554 47.725-11.384 18.456-18.456 18.456-48.359 0-66.783-18.456-18.456-48.328-18.456-66.783 0-13.699 13.699-17.187 33.709-10.528 50.674-23.466 27.525-58.063 44.11-94.879 44.11h-112.828c-44.459 0-85.905-23.942-108.166-62.471l-56.382-97.67c-22.261-38.529-22.261-86.412 0-124.941l56.382-97.67c22.261-38.529 63.707-62.439 108.166-62.439h112.828c44.49 0 85.937 23.91 108.166 62.439l20.549 35.548 131.918-113.842-41.922-72.682c-29.491-51.023-84.351-82.702-143.238-82.702h-263.772c-58.887 0-113.779 31.679-143.207 82.702l-131.886 228.414c-29.428 51.023-29.428 114.381 0 165.404l131.886 228.414c29.428 51.023 84.319 82.702 143.207 82.702h192.644l31.489-40.495h-224.133c-44.459 0-85.937-23.91-108.166-62.439zM948.209 202.33c18.424-18.456 18.424-48.359 0-66.783-9.196-9.196-21.246-13.794-33.297-13.826l-38.085-66.022c-29.459-50.991-84.351-82.67-143.238-82.67h-311.624l48.581 40.463h263.042c44.49 0 85.937 23.942 108.198 62.471l36.563 63.327c-15.094 18.551-14.207 45.759 3.076 63.041 18.424 18.456 48.328 18.456 66.783 0z" />
<glyph unicode="&#xe90d;" glyph-name="XMM" horiz-adv-x="1117" d="M884.716 215.064c-113.863 14.642-254.098 56.972-395.729 119.688-143.107 63.355-270.097 139.716-357.509 215.040-4.189 3.591-8.219 7.221-12.248 10.812-3.773-28.583-3.574-28.782-3.335-28.981 89.128-76.76 218.192-154.478 363.414-218.75 137.522-60.881 273.847-102.693 387.112-119.249-79.313-86.575-193.257-140.873-319.927-140.873-239.536 0-433.671 194.134-433.671 433.671 0 15.48 0.798 30.72 2.394 45.801-92.12 79.485-131.019 150.141-109.395 198.894 18.791 42.37 79.034 61.959 174.346 56.852l-1.317-23.898c-83.183 4.588-136.963-10.612-151.126-42.649-15.918-35.944 17.43-94.107 91.507-160.808 35.232 204.144 213.047 359.495 427.246 359.495 239.536 0 433.711-194.174 433.711-433.711 0-102.678-35.777-196.981-95.447-271.303-5.905-7.336-12.009-14.517-18.353-21.459 6.343-0.918 12.966-2.114 19.19-2.873 27.289-3.391 52.423-5.027 75.244-5.027 78.555 0 129.622 19.709 146.379 57.61 18.193 41.053-5.665 96.868-69.1 161.38l-17.076-16.756c55.136-56.134 77.997-104.049 64.352-134.929-16.796-37.822-88.569-51.905-196.887-38.54-1.223 0.158-2.525 0.433-3.75 0.593zM308.947 45.525c0-41.133-33.353-74.486-74.486-74.486-41.093 0-74.446 33.353-74.446 74.486s33.353 74.446 74.446 74.446c41.133 0 74.486-33.313 74.486-74.446z" />
<glyph unicode="&#xe90e;" glyph-name="BIZ" horiz-adv-x="1122" d="M736.144 442.83c0.283-0.48 0.568-0.963 0.854-1.448l1.215-1.18c-0.214 0.070-0.428 0.14-0.643 0.21 8.61-14.596 18.674-31.676 35.307-59.913-103.949 0-197.556-14.754-284.698 3.458-129.652 27.096-178.379 148.491-126.327 272.931 84.834 202.747 403.884 353.491 608.181 287.336 140.056-45.372 191.492-166.545 118.232-298.029-30.504-54.732-78.493-100.009-122.88-145.032-11.759-11.898-39.647-6.885-60.116-9.614 5.571 19.767 6.464 43.215 17.699 58.635 24.871 34.172 60.516 60.856 81.848 96.836 51.344 86.747 20.901 165.053-71.413 197.417-142.057 49.814-377.689-52.194-441.776-191.23-39.8-86.334-9.081-162.356 82.371-186.28 42.884-11.236 88.247-12.427 133.044-15.669-30.784 11.494-61.486 23.661-93.297 27.979-75.14 10.209-85.555 16.198-103.542 119.777 86.45-8.192 170.823-4.592 247.784-26.034 140.313-39.129 193.953-161.047 142.581-293.578-92.041-237.413-470.874-396.288-722.364-327.090-115.458 31.806-211.3 102.99-167.309 252.245 52.106 132.034 143.252 230.586 279.285 303.197 17.891-29.913 35.685-59.702 50.86-85.116-50.253-53.434-105.746-98.676-143.125-155.214-67.952-102.741-24.919-196.732 95.491-228.942 169.737-45.366 426.307 67.584 500.329 220.253 40.656 83.914 22.892 140.867-57.594 184.094z" />
<glyph unicode="&#xe90f;" glyph-name="BTK" horiz-adv-x="931" d="M628.061 557.677c67.503-67.154 104.67-156.608 104.67-251.811 0-195.903-159.371-355.242-355.274-355.242-102.192 0-194.187 43.774-258.895 113.279v109.435c48.094-94.314 145.966-159.181 258.895-159.181 160.864 0 291.741 130.845 291.741 291.71 0 78.177-30.527 151.62-85.96 206.767-55.4 55.178-128.082 84.276-207.211 84.943l-45.521-0.222c-74.524-0.381-133.196-43.806-198.698-135.833 0 109.403 89.009 198.793 198.38 199.365l47.332 0.222c94.568 0 183.482-36.69 250.541-103.431zM330.348 924.787c296.538-72.522 522.777-294.918 560.929-587.454 7.37-56.417 16.36-98.158 16.36-98.158h-61.087l-21.188 139.2c-44.918 207.561-211.309 327.987-393.235 354.321l-101.779 14.74v177.351zM116.354 344.874v-278.547c-58.508 58.32-93.091 129.015-93.091 205.299v646.754l93.091 32.31v-605.817z" />
<glyph unicode="&#xe910;" glyph-name="BTO" horiz-adv-x="630" d="M215.303 644.337c-49.591 15.602-89.988 49.624-113.81 95.793-23.789 46.168-28.084 98.846-12.079 148.235l8.153 25.265c39.592 29.023 88.277 46.37 141.089 46.37 132.063 0 239.062-107.033 239.062-239.062 0-54.12-18.219-103.879-48.517-143.974l-213.898 67.374zM417.766 562.734c123.541-42.679 212.388-159.71 212.388-297.779 0-174.104-141.156-315.26-315.26-315.26-160.482 0-292.612 119.951-312.442 274.997l-0.168-0.134-0.034 1.376c-1.577 12.851-2.248 488.828-2.248 488.828-0.268 57.576 19.662 113.441 56.234 157.898l17.212 20.903c-35.968-111.059 25.466-230.171 136.794-265.233l194.806-61.334c2.55-0.772 5.066-1.577 7.616-2.416l5.301-1.678-0.201-0.168z" />
<glyph unicode="&#xe911;" glyph-name="IDHUB" horiz-adv-x="979" d="M528.824 239.263c110.58 0 200.557 89.977 200.557 200.557 0 110.613-89.977 200.59-200.557 200.59h-44.043c-7.498-24.284-26.345-43.333-50.528-51.169v-294.181c25.703-8.342 45.563-29.317 51.98-55.796h42.59zM410.307 193.16c15.266 0 27.696 12.395 27.696 27.696 0 15.266-12.429 27.662-27.696 27.662s-27.696-12.395-27.696-27.662c0-15.3 12.429-27.696 27.696-27.696zM410.307 691.14c-15.266 0-27.696-12.429-27.696-27.696s12.429-27.696 27.696-27.696c15.266 0 27.696 12.429 27.696 27.696s-12.429 27.696-27.696 27.696zM524.207 866.281c235.142 0 426.445-191.302 426.445-426.445s-191.302-426.445-426.445-426.445h-186.945c-9.896-31.917-39.314-55.324-74.474-55.324s-64.612 23.406-74.508 55.324h-35.43c-9.896-31.917-39.348-55.324-74.508-55.324-43.198 0-78.358 35.126-78.358 78.358 0 35.464 23.879 65.152 56.269 74.778v661.891c-32.39 9.592-56.269 39.28-56.269 74.778 0 43.198 35.16 78.358 78.358 78.358 36.849 0 67.618-25.635 75.96-59.951h32.525c8.342 34.316 39.112 59.951 75.96 59.951s67.584-25.635 75.926-59.951h185.493zM524.207 64.054c207.21 0 375.782 168.572 375.782 375.782s-168.572 375.782-375.782 375.782h-190.221c-9.727-21.346-28.709-37.423-51.845-43.401v-660.168c24.757-6.35 44.718-24.386 53.702-47.994h188.364zM528.824 691.072c138.546 0 251.219-112.674 251.219-251.253 0-138.512-112.674-251.219-251.219-251.219h-47.285c-12.362-27.121-39.517-46.103-71.232-46.103-43.198 0-78.358 35.126-78.358 78.358 0 33.775 21.616 62.349 51.642 73.326v295.904c-30.026 10.977-51.642 39.584-51.642 73.36 0 43.198 35.16 78.358 78.358 78.358 33.437 0 61.842-21.177 73.056-50.73h45.461zM262.787 8.731c15.266 0 27.662 12.395 27.662 27.696 0 15.266-12.395 27.662-27.662 27.662s-27.729-12.395-27.729-27.662c0-15.3 12.463-27.696 27.729-27.696zM189.698 64.054c7.498 19.691 22.562 35.667 41.78 44.11v667.97c-17.698 7.768-31.917 21.886-39.956 39.483h-41.949c-8.41-18.441-23.71-33.066-42.658-40.53v-665.91c20.501-8.072 36.646-24.487 44.516-45.124h38.267zM78.341 8.731c15.266 0 27.696 12.395 27.696 27.696 0 15.266-12.429 27.662-27.696 27.662s-27.696-12.395-27.696-27.662c0-15.3 12.429-27.696 27.696-27.696zM78.341 875.569c-15.266 0-27.696-12.429-27.696-27.696s12.429-27.696 27.696-27.696c15.266 0 27.696 12.429 27.696 27.696s-12.429 27.696-27.696 27.696zM262.787 875.569c-15.266 0-27.729-12.429-27.729-27.696s12.463-27.696 27.729-27.696c15.266 0 27.662 12.429 27.662 27.696s-12.395 27.696-27.662 27.696z" />
<glyph unicode="&#xe912;" glyph-name="ALI" horiz-adv-x="884" d="M752.902 960l-752.902-446.609 122.039-70.43-122.039-72.396 752.902-434.564v146.29l67.106-38.726-63.676-37.165 64.881-37.821v74.3l63.151-36.479v881.174l-131.462-77.951v150.378zM403.531 446.018l205.983 122.169v-241.060l-205.983 118.892zM0 448l46.545 46.545v-93.091l-46.545 46.545zM837.818 913.455v-93.091l-46.545 46.565 46.545 46.526z" />
<glyph unicode="&#xe913;" glyph-name="CPC" horiz-adv-x="986" d="M729.345 726.562l175.623-204.185-220.167 163.008 44.543 41.177zM835.239 313.999c-100.002-31.52-169.809 1.564-173.107 3.366-78.988 42.435-66.441 115.065-61.341 130.23 17.647 52.534 81.878 40.259 80.246 41.585-31.52 26.046-46.005 28.426-60.083 28.596-43.251 0.408-82.66-22.986-89.495-27.338-41.891-26.692-66.407-29.956-74.466-30.228 2.414 21.354 7.447 37.335 10.201 42.843 44.509 84.87 116.799 63.857 115.949 66.373-37.811 32.778-58.824 31.928-95.785 29.412s-102.518-48.726-117.649-57.974c-46.209-27.746-78.988-30.262-102.484-17.647-89.937 40.327-10.949 191.604-10.949 191.604-42.843-45.393-62.157-88.237-73.105-103.368-41.177-68.073-43.693-164.708-42.843-180.656 10.065-81.504 89.903-42.027 100.002-38.661 66.339 26.896 106.734 21.014 121.831 18.497 43.693-12.615 71.405-53.792 60.491-51.276-10.915 2.55-47.468 12.615-82.762-9.657-60.729-38.287-60.049-108.298-57.566-126.455 17.715-113.024 149.577-144.511 173.107-148.727 162.464-20.368 270.626 32.268 296.4 47.57-159.948-114.385-364.405-66.917-360.291-70.249 73.139-29.412 173.957-27.746 194.971-26.896 143.967 9.249 241.146 115.099 251.245 125.197 110.066 123.497 115.099 247.879 114.283 243.696-0.714-3.536-26.114-27.61-40.293-40.803-30.908-22.17-69.331-36.791-76.506-39.035zM342.001 618.179l161.308 74.772 357.945-257.127-322.65 376.442-196.603-194.087zM541.137-21.824c161.002 0 302.351 83.918 382.869 210.34-84.904-149.645-245.566-250.701-429.928-250.701-272.87 0-494.091 221.221-494.091 494.091s221.221 494.091 494.091 494.091c184.362 0 345.024-101.056 429.928-250.701-80.518 126.421-221.867 210.374-382.869 210.374-250.599 0-453.764-203.165-453.764-453.764 0-250.565 203.165-453.73 453.764-453.73z" />
<glyph unicode="&#xe914;" glyph-name="HB" d="M64.928 895.072h123.911v-223.674h259.299l-7.434-430.709-245.5-2.506 3.965-221.882-123.911-2.594-6.404 357.257 250.171 2.594 2.892 163.718h-256.986v357.794zM835.161 895.072h123.911v-357.794h-256.986l2.848-163.718 250.171-2.594-6.404-357.257-123.863 2.594 3.926 221.882-245.461 2.506-7.434 430.709h259.299v223.674z" />
<glyph unicode="&#xe915;" glyph-name="TEN" horiz-adv-x="985" d="M780.166 832.317c107.040-78.528 181.12-198.88 197.952-337.28l-199.776 334.784c0.672 0.768 1.184 1.696 1.824 2.496zM697.072 874.662l-417.792-10.112c-1.632 4.608-3.968 8.864-6.88 12.736 65.504 32.16 138.912 50.72 216.8 50.72 75.424 0 146.656-17.44 210.592-47.744-0.864-1.92-2.080-3.584-2.72-5.6zM683.165 57.395l-240.064 209.344c2.4 5.696 3.744 12 3.744 18.56 0 11.936-4.544 22.72-11.808 31.104l39.136 65.632c2.464-0.416 4.928-0.768 7.488-0.768 3.488 0 6.88 0.416 10.144 1.152l191.36-325.024zM782.915 443.802c-5.824 9.44-14.848 16.576-25.6 20.128v343.040l207.072-346.976c-4.096-4.704-7.232-10.176-9.216-16.192h-172.256zM689.978 443.802h-163.264c-1.664 5.088-4.128 9.792-7.36 13.984l39.296 65.888c3.36-0.736 6.816-1.216 10.4-1.216 7.808 0 15.072 2.048 21.6 5.376l99.328-84.032zM521.382 570.115c0-11.936 4.576-22.72 11.808-31.104l-38.464-64.48c-4.192 1.216-8.512 2.048-13.056 2.048-3.52 0-6.88-0.416-10.176-1.12l-179.744 305.28 232.032-196.352c-1.408-4.512-2.4-9.248-2.4-14.272zM188.445 45.162c-98.016 75.744-166.464 187.392-185.952 315.424l188.256-308.16c-0.992-2.304-1.632-4.768-2.304-7.264zM423.382 244.458l271.584-236.8c0.224-6.432 1.696-12.512 4.192-18.016-63.776-30.144-134.752-47.456-209.952-47.456-81.088 0-157.312 19.904-224.8 54.56 10.784 8.768 17.792 21.92 17.792 36.896 0 6.912-1.568 13.472-4.224 19.424l110.816 185.792c3.328-0.768 6.816-1.216 10.368-1.216 8.896 0 17.12 2.592 24.224 6.816zM192.042 827.693c1.792-3.488 3.808-6.848 6.336-9.824l-198.368-324.704c16.032 136.48 87.872 255.552 192.032 334.528zM975.258 356.442l-177.92-305.76c93.152 74.752 158.144 182.624 177.92 305.76zM279.635 414.051h156.96c2.336-6.976 6.016-13.312 11.040-18.464l-38.048-63.84c-3.36 0.768-6.816 1.216-10.432 1.216-8.864 0-17.088-2.592-24.192-6.816l-96.512 84.128c0.512 1.216 0.768 2.528 1.184 3.776zM351.507 285.302c0-11.936 4.576-22.72 11.808-31.104l-106.56-178.656c-2.336 1.248-4.768 2.304-7.328 3.136v305.12c3.264 1.088 6.4 2.464 9.344 4.192l96.48-84.128c-2.4-5.696-3.744-11.968-3.744-18.56zM695.29 414.051c1.952-18.944 14.816-34.464 32.352-40.256v-319.456c-2.304-0.768-4.48-1.632-6.592-2.72l-203.744 345.984c4.192 4.768 7.392 10.304 9.376 16.448h168.608zM955.165 414.051c2.048-6.208 5.312-11.84 9.568-16.64l-201.12-345.6c-2.048 0.992-4.096 1.792-6.304 2.528v319.456c17.536 5.792 30.432 21.312 32.352 40.256h165.504zM616.698 570.115c0 11.968-4.544 22.72-11.776 31.104l122.72 205.728v-343.008c-3.552-1.184-6.912-2.656-10.016-4.576l-106.016 89.696c3.136 6.4 5.088 13.472 5.088 21.056zM23.229 443.802c-1.952 5.888-4.928 11.2-8.864 15.84l205.344 336.128v-321.856c-14.304-4.704-25.44-15.872-30.208-30.112h-166.272zM189.478 414.051c4.672-14.336 15.904-25.536 30.208-30.272v-305.088c-2.816-0.928-5.472-2.080-8-3.488l-197.344 323.008c3.904 4.64 6.944 9.952 8.896 15.84h166.24zM279.571 443.802c-4.704 14.24-15.904 25.408-30.144 30.112v320.16l196.544-333.824c-4.192-4.768-7.328-10.304-9.376-16.448h-157.024zM697.76 844.957c1.984-5.632 5.024-10.72 8.864-15.136l-127.168-213.248c-3.392 0.736-6.816 1.216-10.4 1.216-10.464 0-20-3.456-27.872-9.152l-262.528 222.080c0.544 1.312 0.896 2.752 1.28 4.096l417.824 10.144z" />
<glyph unicode="&#xe916;" glyph-name="TNT" d="M1000.945 531.534c27.039-108.865 11.651-230.277-43.672-333.337-27.482-51.544-64.678-98.473-109.374-137.442-11.319-9.563-22.334-19.623-34.733-27.831l-18.211-12.907-19.207-11.387c-25.24-15.919-52.667-28.080-80.37-39.467-112.059-43.971-240.806-43.612-355.051-2.515-57.15 20.535-111.118 51.074-157.613 90.679-46.467 39.688-85.518 87.694-115.823 140.51-30 52.954-51.421 111.297-60.665 171.657-9.271 60.278-8.275 122.048 3.57 181.579 23.165 119.063 89.725 229.669 185.676 302.162 47.408 36.509 100.324 65.805 157.115 83.383 56.624 17.771 115.989 25.565 174.412 22.856 116.819-6.854 229.099-55.469 308.418-135.148-92.132 63.926-201.811 96.124-308.611 90.734-106.717-4.975-208.841-47.481-286.25-116.216-38.608-34.326-71.68-74.594-96.339-119.505-24.438-44.966-41.652-93.664-49.899-143.826-16.965-100.076 0.166-205.679 51.421-293.18 49.401-88.275 129.467-159.165 224.782-195.564 94.706-37.2 202.641-42.175 301.582-11.221 98.083 32.004 188.914 95.599 247.199 185.31 60.554 88.192 88.701 198.991 81.643 310.675zM770.925 413.336l141.066 187.868c-7.936 9.994-12.822 22.278-12.822 35.774 0 32.865 27.931 59.534 62.414 59.534s62.414-26.669 62.414-59.534c0-32.865-27.931-59.534-62.414-59.534-6.834 0-13.33 1.32-19.487 3.26l-141.066-187.868c7.936-9.994 12.822-22.278 12.822-35.774 0-32.865-27.959-59.507-62.414-59.507s-62.385 26.642-62.385 59.507c0 14.089 5.309 26.831 13.867 37.040l-58.46 82.593c-5.677-1.616-11.607-2.775-17.82-2.775-6.128 0-11.946 1.104-17.51 2.667l-132.989-190.266c8.67-10.237 14.121-23.086 14.121-37.283 0-32.865-27.959-59.534-62.414-59.534s-62.414 26.669-62.414 59.534c0 15.463 6.326 29.39 16.465 39.977l-122.568 199.775c-4.547-0.997-9.207-1.643-14.092-1.643-34.455 0-62.385 26.642-62.385 59.534 0 32.865 27.931 59.534 62.385 59.534s62.414-26.669 62.414-59.534c0-15.463-6.326-29.417-16.437-39.977l122.568-199.802c4.519 0.997 9.207 1.67 14.064 1.67 6.1 0 11.918-1.104 17.51-2.667l132.989 190.266c-8.698 10.21-14.121 23.086-14.121 37.256 0 32.892 27.931 59.534 62.414 59.534 34.426 0 62.414-26.642 62.414-59.534 0-14.035-5.366-26.804-13.923-37.013l58.46-82.593c5.705 1.643 11.607 2.775 17.849 2.775 6.863 0 13.33-1.32 19.487-3.26z" />
<glyph unicode="&#xe917;" glyph-name="ABA" horiz-adv-x="985" d="M970.358 237.77c-2.389-6.64-4.748-13.312-7.137-19.952-9.154-25.259-30.192-34.32-54.241-22.807-6.423 3.072-12.753 7.106-17.749 12.071-35.933 35.499-72.487 70.47-106.868 107.458-24.111 25.879-35.902 57.685-26.531 93.556 8.502 32.334 34.847 43.256 64.698 28.517 0.528-0.248 1.086-0.372 1.489-0.745 47.414-41.705 96.566-81.951 130.048-136.564 8.626-14.119 11.016-32.023 16.291-48.19v-13.343zM491.843 759.544c1.738-27.958-27.927-44.187-56.91-42.046-30.348 2.203-56.32 15.112-77.886 37.298-30.224 31.123-61.316 61.378-91.819 92.222-21.38 21.659-27.617 42.139-18.68 59.33 8.844 17.129 34.723 25.383 61.999 21.814 33.513-4.406 60.85-19.425 84.154-43.38 25.166-25.91 51.138-51.076 76.459-76.893 13.064-13.374 23.49-28.3 22.683-48.345zM780.297 565.679c-0.465 29.913 14.801 42.791 44.187 37.423 21.814-3.972 43.504-9.495 65.474-11.388 41.922-3.6 75.28-64.171 70.191-96.442-2.42-15.391-11.14-23.955-27.12-23.024-28.238 1.676-56.599 3.258-84.62 7.106-35.126 4.81-67.46 47.135-68.112 86.326zM523.782 882.241c-0.652 27.493 8.409 36.461 31.899 35.902 34.661-0.838 73.945-31.93 81.237-65.722 5.585-25.972 9.93-52.286 13.964-78.538 2.979-19.673-8.44-33.327-28.144-35.53-42.977-4.81-89.181 33.637-92.75 76.924-1.955 23.769-4.375 47.507-6.206 66.963zM694.207 722.075c0.186 20.449 52.1 66.746 72.456 64.636 27.617-2.917 62.371-38.291 65.040-66.405 0.279-3.258 0.869-7.664-0.869-9.744-16.787-20.418-33.296-41.208-51.759-60.075-4.034-4.127-15.95-2.762-23.49-0.9-33.699 8.347-61.688 42.077-61.378 72.487zM236.479 91.909c-73.263 0.093-122.849 62.247-107.21 133.834 8.006 36.771 26.438 66.901 55.017 90.95 51.107 42.884 102.090 85.923 153.6 128.31 31.682 26.096 67.677 32.768 106.124 17.656 38.974-15.267 59.516-45.987 63.55-86.575 2.762-27.493-6.547-52.752-24.483-74.069-42.201-50.207-84.496-100.352-127.038-150.28-31.341-36.74-69.818-59.702-119.56-59.826zM763.389 76.347c-0.217-36.368-8.13-65.97-27.493-91.757-31.651-42.108-83.192-44.063-118.66-4.624-27.245 30.286-33.482 67.77-36.492 106.465-4.189 54.21-9.775 108.327-12.443 162.599-1.086 22.28-0.31 46.328 7.013 66.932 19.053 53.589 77.979 65.722 120.087 27.369 26.779-24.452 34.723-56.91 40.308-90.764 8.409-50.859 17.532-101.593 25.972-152.421 1.552-9.278 1.365-18.804 1.707-23.8zM315.116 531.499c-69.663 5.989-139.543 10.24-208.896 18.773-28.61 3.537-56.010 16.508-78.32 36.833-39.843 36.336-36.771 88.405 7.727 119.125 37.454 25.879 79.313 29.075 122.911 21.132 54.52-9.93 109.382-18.494 163.53-30.161 18.866-4.096 37.95-13.126 53.776-24.328 30.161-21.411 41.208-55.637 31.403-84.651-10.768-31.806-41.55-54.272-77.11-56.165-4.965-0.279-9.992-0.062-14.988-0.062 0-0.155 0-0.341-0.031-0.496z" />
<glyph unicode="&#xe918;" glyph-name="MXCA" d="M512 960c282.331 0 512-229.669 512-512 0-282.29-229.669-512-512-512s-512 229.71-512 512c0 282.331 229.669 512 512 512zM512-33.573c265.571 0 481.573 216.043 481.573 481.573 0 265.571-216.001 481.614-481.573 481.614s-481.573-216.043-481.573-481.614c0-265.529 216.001-481.573 481.573-481.573zM195.266 717.082c-15.882-18.683-30.051-38.828-42.465-60.103l-30.804 17.763c76.57 131.448 217.631 220.599 379.883 224.193v-35.485c-23.615-0.585-46.77-3.051-69.256-7.44l10.992-49.695c-84.052-15.966-157.905-60.646-210.902-123.632l-37.449 34.398zM120.857 307.164c8.234-22.946 18.557-44.889 30.553-65.745l-30.762-17.763c-37.992 66.079-59.852 142.649-59.852 224.36 0 75.442 18.641 146.495 51.367 208.98l30.845-17.805c-9.864-19.017-18.39-38.828-25.245-59.476l48.483-15.256c-12.372-36.571-19.226-75.692-19.226-116.443 0-44.178 8.025-86.392 22.403-125.555l-48.567-15.297zM823.835 173.326c14.002 15.882 26.749 32.852 38.201 50.74l30.804-17.805c-78.367-123.173-214.706-205.72-370.73-209.147v35.485c22.904 0.543 45.307 2.926 67.124 7.022l-11.034 49.695c82.463 15.13 155.105 57.846 208.185 118.366l37.449-34.356zM445.795 89.328l-11.034-49.695c21.817-4.096 44.22-6.478 67.124-7.022v-35.485c-156.024 3.427-292.362 85.974-370.73 209.147l30.804 17.805c11.452-17.889 24.2-34.858 38.201-50.74l37.491 34.356c53.039-60.52 125.68-103.278 208.144-118.366zM580.366 806.308l11.034 49.695c-22.486 4.389-45.641 6.896-69.298 7.44v35.485c162.252-3.594 303.313-92.745 379.883-224.152l-30.804-17.805c-12.413 21.316-26.582 41.42-42.465 60.103l-37.449-34.398c-52.997 62.986-126.809 107.666-210.902 123.632zM911.836 657c32.726-62.485 51.367-133.538 51.367-208.98 0-81.711-21.859-158.281-59.852-224.36l-30.762 17.763c11.995 20.856 22.319 42.799 30.553 65.745l-48.567 15.297c14.378 39.163 22.403 81.377 22.403 125.555 0 40.751-6.855 79.872-19.226 116.443l48.483 15.256c-6.855 20.647-15.381 40.458-25.245 59.476l30.845 17.805zM544.53 304.757l25.245-134.75c-18.641-3.803-37.992-5.851-57.762-5.851-19.811 0-39.163 2.048-57.804 5.851l25.245 134.75c-29.341 6.604-55.296 22.026-75.107 43.342l-104.030-89.192c-25.621 28.714-45.516 62.652-57.887 100.059l129.149 45.432c-4.263 13.793-6.604 28.421-6.604 43.635 0 15.047 2.299 29.592 6.52 43.301l-129.149 45.432c12.288 37.407 32.141 71.429 57.804 100.143l104.030-89.234c19.769 21.441 45.767 36.906 75.191 43.593l-25.245 134.708c18.683 3.887 38.034 5.935 57.887 5.935 19.811 0 39.163-2.048 57.846-5.935l-25.245-134.708c29.424-6.687 55.421-22.152 75.233-43.593l103.988 89.234c25.663-28.714 45.516-62.736 57.846-100.143l-129.191-45.432c4.263-13.709 6.52-28.254 6.52-43.301 0-15.214-2.299-29.842-6.604-43.635l129.149-45.432c-12.372-37.407-32.266-71.346-57.887-100.059l-104.030 89.192c-19.811-21.316-45.767-36.739-75.107-43.342z" />
<glyph unicode="&#xe919;" glyph-name="BP" horiz-adv-x="983" d="M504.906 571.985c-45.366 0-82.23 36.864-82.23 82.199 0 45.304 36.864 82.199 82.23 82.199 45.304 0 82.168-36.895 82.168-82.199 0-45.335-36.864-82.199-82.168-82.199zM658.165 654.184c0 84.527-68.763 153.29-153.259 153.29-84.558 0-153.321-68.763-153.321-153.29v-685.615c23.024-6.827 46.794-11.698 71.090-15.081v571.733c23.8-15.236 51.914-24.359 82.23-24.359 84.496 0 153.259 68.794 153.259 153.321zM773.179 130.060c83.596 76.707 136.409 186.43 136.409 308.534 0 126.604-56.661 240.050-145.656 316.975 11.078-29.603 17.377-61.595 17.377-95.108v-21.504c0-74.193-28.734-143.515-80.834-195.15-13.157-13.033-27.431-24.359-42.512-34.133 73.325-40.339 123.345-119.436 123.345-210.261 0-25.228-3.041-48.128-8.13-69.353zM71.118 438.595c0-118.163 49.338-224.877 128.279-301.149v465.61c0 66.932 19.89 129.179 53.9 181-109.909-75.652-182.179-202.224-182.179-345.46zM587.618 919.223c223.915-45.273 393.061-243.557 393.061-480.628 0-215.847-140.381-399.174-334.476-464.524-34.568-11.605-70.687-19.766-108.172-23.397-0.31 0-0.621-0.031-0.9-0.031v71.090c7.758 0 41.891 0.993 77.824 16.539 46.142 19.984 95.232 64.047 95.232 161.14 0 92.408-73.014 167.595-162.754 167.595l-34.413 0.031c-0.124 0-0.217-0.031-0.341-0.031l0.341 35.561v35.561h0.31c51.665 0.217 100.073 19.487 137.061 56.165 38.54 38.198 59.795 89.584 59.795 144.663v21.504c0 89.305-57.965 164.864-137.216 189.13-17.315 5.306-35.623 8.285-54.613 8.285-4.655 0-9.216-0.465-13.808-0.714-130.234-7.447-234.031-118.412-234.031-254.107v-602.143c-25.041 12.66-48.78 27.338-71.121 43.908-120.677 89.429-199.401 232.417-199.401 393.775 0 270.398 220.005 490.372 490.372 490.372 4.748 0 9.371-0.559 14.15-0.714 28.3-0.807 56.134-3.6 83.099-9.030zM649.3 188.438c0-67.956-58.709-123.035-131.103-123.035-1.738 0-3.413 0.403-5.182 0.496v245.077c1.769 0.062 3.444 0.496 5.182 0.496 72.394 0 131.103-55.11 131.103-123.035z" />
<glyph unicode="&#xe91a;" glyph-name="EQC" horiz-adv-x="981" d="M160.914 792.758c-9.894-6.404-23.085-3.566-29.489 6.327s-3.566 23.084 6.327 29.488c9.855 6.404 23.085 3.566 29.489-6.289 6.404-9.893 3.566-23.122-6.327-29.526zM950.534-33.126c-76.117 81.282-140.829 170.723-188.956 271.437-27.753 58.126-63.053 110.092-113.888 150.513-0.474 0.372-0.508 1.32-1.658 4.469 97.913-67.368 166.754-156.843 225.272-255.56-19.664 77.829-48.5 151.257-99.132 214.597-42.509 53.116-95.612 90.897-161 110.667-48.127 14.557-97.27 17.367-147.090 12.458-3.689-0.372-8.732-0.406-11 1.76-9.138 8.463-17.396 17.807-26.027 26.914 16.618 0.982 32.525 0.846 48.094 3.148 18.987 2.81 26.737 15.166 20.307 33.176-4.501 12.593-11.067 25.085-19.224 35.715-24.673 32.127-49.752 64.085-76.32 94.688-33.371 38.356-67.385 76.509-114.531 99.191-0.914 0.44-2.065 0.846-2.471 1.591-8.326 15.877-19.968 30.942-23.895 47.835-4.941 21.395-10.255 41.775-23.658 60.293 4.874 5.315 9.612 10.461 16.246 17.638-8.597 0-14.756 0.102-20.916-0.068-3.588-0.102-8.055-2.234-10.627-0.779-9.443 5.383-19.935 10.562-26.568 18.619-2.741 3.351 3.215 13.812 5.212 21.057 0.102 0.271-0.135 0.609-0.372 1.456-10.966 0.339-19.089-6.026-27.313-12.018-13.166-9.581-33.54-3.047-36.925 12.56-1.489 6.94-0.372 14.489-0.44 21.768h-1.963c-14.181-8.531-20.848-21.463-22.845-37.577-0.406-3.081-3.757-7.008-6.735-8.362-34.86-16.148-54.896-43.705-63.798-80.47-1.083-4.536-4.501-9.479-8.258-12.221-9.612-6.974-20.002-12.797-30.054-19.060v-1.997c9.206-3.622 18.344-7.515 27.685-10.765 5.449-1.828 6.803-4.976 6.464-10.427-1.151-18.586-1.151-37.273-2.911-55.791-6.397-65.913 10.932-126.036 45.183-181.522 33.27-53.895 77.742-93.876 139.644-114.188 53.61-17.604 105.935-39.101 158.597-59.413 4.028-1.557 7.987-6.805 9.375-11.172 6.667-20.888 12.421-42.080 18.547-63.137 0.677-2.302 1.692-4.503 3.080-8.193 6.431 13.711 12.083 25.796 18.31 39.135 14.519-17.875 29.513-33.075 33.066-58.228 4.941 13.745 9.037 25.018 13.64 37.78 3.452-4.401 5.957-7.38 8.258-10.528 52.29-72.277 54.287-158.874 5.347-233.487-29.75-45.296-70.025-79.657-114.227-110.024-2.132-1.49-4.231-3.148-6.329-4.739 45.149 10.088 86 28.437 121.436 57.822 40.445 33.515 64.948 76.035 70.871 128.542 4.501 40.015-1.929 78.912-14.215 116.93-4.264 13.135-9.206 26.067-14.35 40.624 3.892-2.268 6.397-3.622 8.867-5.146 57.807-35.986 111.316-77.287 157.751-127.729-34.86 92.014-102.821 161.075-163.268 235.722 1.218 0.068 1.929 0.339 2.403 0.102 81.397-40.523 147.022-97.6 187.873-180.337 52.595-106.537 128.475-192.457 227.742-257.659 10.424-6.838 21.661-12.357 32.491-18.484-9.612 11.375-21.018 20.38-30.799 30.874z" />
<glyph unicode="&#xe91b;" glyph-name="RATING" horiz-adv-x="975" d="M854.084 641.422c27.739-56.356 43.724-119.546 43.724-186.593 0-234.125-189.803-423.905-423.905-423.905h-396.49v199.203l237.558 184.261c6.084 4.715 14.42 5.455 21.221 1.755l110.084-59.591c26.785-14.53 60.386-11.019 83.606 8.769l324.201 276.093zM362.293 464.346c-25.903 14.066-57.703 11.406-80.946-6.636l-203.948-158.192v579.193h396.49c147.118 0 276.617-74.972 352.655-188.765l-332.239-282.895c-6.061-5.179-14.861-6.117-21.906-2.305l-110.117 59.591z" />
<glyph unicode="&#xe91c;" glyph-name="LBA" horiz-adv-x="1170" d="M661.845 960l-75.229-132.312-1.474 2.507-1.434-2.507-75.229 132.312-508.481-894.236h150.497l-73.795-129.764h1016.881l-73.755 129.764h150.457l-508.441 894.236zM616.126 775.726l45.719 80.43 419.911-738.511h-91.437l-374.192 658.081zM508.481 856.156l45.679-80.43-374.152-658.081h-91.437l419.911 738.511zM585.143 721.297l343.208-603.652h-686.417l343.208 603.652zM209.517 65.764h751.211l44.325-77.883h-839.781l44.245 77.883z" />
<glyph unicode="&#xe91d;" glyph-name="HSC" d="M755.163 271.726h-328.485l34.121 85.321h243.237l105.874 198.4h-208.311l34.121 85.358h350.574c-76.142 187.173-259.73 319.195-474.295 319.195-282.77 0-512-229.23-512-512 0-31.049 2.926-61.403 8.192-90.953h100.133l172.763 283.758h303.433l-34.158-85.358h-221.33l-120.832-198.4h207.799l-34.158-85.321h-350.683c71.826-195.913 259.986-335.726 480.841-335.726 282.77 0 512 229.23 512 512 0 36.901-3.986 72.814-11.41 107.447h-105.947l-151.479-283.721z" />
<glyph unicode="&#xe91e;" glyph-name="PNT" horiz-adv-x="951" d="M768.163 491.638l-52.455-51.138c-44.338-43.214-64.574-105.458-54.1-166.495l12.366-72.17c4.497-26.022-22.841-45.846-46.175-33.562l-64.821 34.083c-54.813 28.791-120.264 28.791-175.077 0l-64.821-34.083c-23.362-12.284-50.672 7.541-46.203 33.562l12.366 72.17c10.474 61.037-9.762 123.281-54.072 166.495l-52.482 51.138c-18.892 18.426-8.445 50.508 17.659 54.292l72.499 10.557c61.256 8.884 114.232 47.382 141.625 102.88l32.411 65.698c11.681 23.664 45.408 23.664 57.089 0l32.438-65.698c27.393-55.498 80.368-93.996 141.625-102.88l72.471-10.557c26.131-3.784 36.551-35.865 17.659-54.292zM948.587 331.559l-34.522 123.856c-3.181 11.407-2.989 23.472 0.521 34.769l25.226 81.136c7.678 24.705-0.905 51.55-21.497 67.179l-53.634 40.719c-10.694 8.116-18.426 19.523-22.046 32.438l-31.259 112.093c-7.376 26.57-31.588 44.942-59.173 44.942h-116.343c-13.408 0-26.488 4.387-37.182 12.504l-87.306 66.302c-21.963 16.671-52.345 16.671-74.308 0l-87.333-66.302c-10.666-8.116-23.746-12.504-37.154-12.504h-71.32c-25.857 0-48.945-16.178-57.747-40.499l-30.519-84.070c-4.031-11.105-11.187-20.812-20.62-27.968l-102.249-77.654c-20.592-15.629-29.175-42.474-21.497-67.179l31.533-101.482c4.003-12.833 3.674-26.597-0.905-39.211l-35.564-98.027c-9.186-25.281-0.823-53.606 20.592-69.894l89.417-67.865c10.173-7.76 17.686-18.481 21.497-30.71l29.943-96.244c7.979-25.693 31.752-43.187 58.652-43.187h93.283c13.408 0 26.488-4.415 37.154-12.531l68.934-52.345c21.415-16.26 50.946-16.699 72.855-1.069l76.31 54.511c10.447 7.431 22.923 11.434 35.728 11.434h116.563c26.927 0 50.7 17.494 58.679 43.187l32.219 103.538c3.948 12.833 12.037 23.993 22.951 31.78l86.647 61.832c21.031 15.026 30.436 41.624 23.472 66.521z" />
<glyph unicode="&#xe91f;" glyph-name="MTH" d="M505.803-2.219c-88.603 0-171.447 25.245-241.749 68.873 52.778-23.652 111.234-36.806 172.795-36.806 233.702 0 423.164 189.462 423.164 423.205 0 233.661-189.462 423.123-423.164 423.123-81.659 0-157.844-23.121-222.509-63.154 79.412 65.237 180.965 104.453 291.464 104.453 253.555 0 459.847-206.292 459.847-459.847s-206.292-459.847-459.847-459.847zM53.881 374.050v157.966c36.642 177.86 194.405 311.97 382.967 311.97 215.565 0 390.974-175.368 390.974-390.933 0-215.606-175.409-391.015-390.974-391.015-188.563 0-346.325 134.151-382.967 312.011zM505.803 958.815c-199.061 0-371.039-116.014-451.922-284.193v285.377h-53.881v-1004.743h53.881v285.336c80.883-168.138 252.861-284.193 451.922-284.193 276.799 0 501.228 224.388 501.228 501.228 0 276.799-224.429 501.187-501.228 501.187z" />
<glyph unicode="&#xe920;" glyph-name="QKC" horiz-adv-x="1472" d="M1017.826 448l38.502 46.17 138.672 166.482v-425.304l-177.174 212.652zM722.878 262.834l-151.362 184.788 151.038 185.004 152.766-186.84-152.442-182.952zM399.958 415.33l-149.958-179.982v425.304l177.174-212.652-27.216-32.67zM1262.5 880c-12.852 0-24.246-3.618-34.452-8.64-1.728-0.756-3.078-1.674-4.644-2.538-4.698-2.754-8.856-5.67-12.528-9.288-1.080-1.026-2.916-1.674-3.834-2.862l-229.068-287.766-30.456-36.558-183.492 220.266c-1.134 1.296-2.646 1.89-3.834 3.024-1.188 1.242-1.782 2.754-3.078 3.888-1.566 1.296-3.564 1.674-5.238 2.754-3.024 2.052-6.048 3.834-9.45 5.13-3.24 1.296-6.426 2.16-9.72 2.862-3.456 0.594-6.696 0.972-10.206 0.972-3.456 0-6.75-0.378-10.152-0.972-3.348-0.702-6.48-1.566-9.774-2.862-3.348-1.296-6.372-3.078-9.45-5.13-1.674-1.080-3.618-1.458-5.184-2.754-1.35-1.134-1.944-2.646-3.078-3.888-1.188-1.134-2.754-1.728-3.834-3.024l-181.224-217.458-254.934 311.418c-2.268 4.428-6.102 7.992-9.612 11.718l-4.536 5.454h-0.108c-12.258 9.99-29.214 16.254-48.114 16.254-37.314 0-67.5-24.138-67.5-54v-756c0-29.646 29.754-53.46 66.69-53.892 0.27 0 0.486-0.108 0.756-0.108h0.054c12.852 0 27.432 0.702 44.874 14.256 2.106 1.512 3.834 3.132 5.67 4.86s3.51 2.646 5.454 4.644l261.738 320.598 180.792-216.972c0.972-1.134 2.484-1.566 3.51-2.646 1.296-1.35 1.944-3.024 3.402-4.266 2.538-2.106 5.508-3.132 8.316-4.698 1.998-1.134 3.726-2.484 5.778-3.348 6.588-2.7 13.446-4.428 20.412-4.428h0.108c6.966 0 13.824 1.728 20.412 4.428 2.052 0.864 3.78 2.214 5.832 3.348 2.754 1.566 5.778 2.592 8.316 4.698 1.404 1.242 2.106 2.916 3.348 4.266 1.080 1.080 2.538 1.512 3.564 2.646l181.008 217.242 256.716-313.848c0.324-0.378 1.080-0.81 1.512-1.242 11.232-17.334 33.156-29.538 59.238-29.538h0.054c0.27 0 0.54 0.108 0.81 0.108 36.882 0.432 66.636 24.246 66.636 53.892v756c0 29.862-30.132 54-67.5 54z" />
<glyph unicode="&#xe921;" glyph-name="DET" horiz-adv-x="910" d="M827.89 201.607c-3.612 5.853-6.581 10.193-8.933 14.841-0.56 1.092 0.728 3.444 1.652 4.956 9.017 14.617 18.286 29.067 27.051 43.824 2.016 3.388 3.556 7.813 3.192 11.565-0.196 2.1-4.788 5.433-7.225 5.292-3.136-0.196-7.085-2.632-8.961-5.292-8.177-11.817-15.737-24.082-23.578-36.123-0.98-1.568-2.268-2.912-3.584-4.564-4.76 2.828-5.517 5.096-2.772 10.277 16.41 30.999 32.483 62.138 47.996 93.557 7.365 14.981 13.357 30.635 19.854 46.036 3.192 7.589 1.176 12.685-5.601 15.009-6.945 2.38-12.097-0.812-14.813-8.009-14.085-37.271-28.451-74.431-47.856-109.406-4.312-7.785-8.793-15.457-14.085-24.726-4.144 5.264-7.981 9.521-10.921 14.281-0.7 1.12 0.98 4.452 2.38 6.077 22.962 26.378 40.296 56.369 54.185 88.18 10.053 23.046 17.39 47.156 22.346 71.995 4.62 23.186 6.525 46.428 7.085 69.95 0.14 6.217-1.372 11.705-7.897 12.125-6.889 0.448-8.345-5.573-9.101-11.341-2.716-21.394-4.704-42.928-8.457-64.126-5.965-33.715-19.406-64.882-35.871-94.621-10.389-18.706-22.514-36.431-33.995-54.493-1.456-2.268-3.668-4.032-5.797-6.273-8.037 7.533-15.709 14.757-23.942 22.486 1.652 1.54 3.024 3.052 4.592 4.312 19.266 15.009 37.355 31.335 51.021 51.665 13.665 20.274 22.178 42.9 28.479 66.59 7.505 28.395 8.065 57.181 6.721 86.024-1.148 24.81-3.92 49.621-11.845 73.367-8.345 25.034-17.474 49.817-26.182 74.711-0.392 1.064-0.448 2.212 0.084 3.612 37.832-46.484 63.202-99.381 77.539-157.207 27.219-109.714 11.257-213.912-42.76-314.553zM643.801 28.103c-23.886-10.473-48.388-19.63-73.087-28.031-13.721-4.648-28.255-7.617-42.676-9.409-25.51-3.164-51.161-6.161-76.839-6.721-20.946-0.476-42.172 1.4-62.894 4.704-27.191 4.312-54.129 10.613-79.583 21.618-21.87 9.437-44.132 18.342-64.938 29.795-31.419 17.334-59.646 39.204-85.828 64.070-31.307 29.711-57.237 63.314-78.071 100.753-15.541 27.863-28.703 57.013-35.983 88.32-9.129 39.4 8.653 82.748 41.64 103.302 20.134 12.573 41.948 13.525 64.518 10.277 39.82-5.769 76.923-19.77 113.775-35.423 43.656-18.566 82.524-45.588 124.332-67.262 17.082-8.849 34.863-16.494 52.757-23.69 19.21-7.701 38.616-15.429 58.525-20.946 16.354-4.536 33.547-6.105 50.433-8.401 5.152-0.7 8.233-2.156 9.493-7.393 2.044-8.317 4.508-16.522 7.113-25.874-9.633 0-18.090-0.392-26.518 0.084-20.834 1.148-41.78 1.736-62.474 4.284-29.263 3.612-58.413 8.037-86.78 16.774-51.133 15.737-96.329 42.256-138.473 74.543-5.236 4.032-10.613 7.897-16.101 11.565-5.292 3.556-9.941 2.1-13.609-2.744-3.388-4.424-2.408-11.705 1.932-15.177 37.159-29.739 75.551-57.713 120.411-74.879 21.702-8.289 44.132-15.149 66.73-20.582 48.669-11.705 98.317-16.157 148.302-14.057 12.685 0.532 19.994-2.772 24.138-14.225 0.868-2.38 1.932-4.704 3.416-8.233-9.885-2.268-18.902-5.152-28.115-6.329-20.442-2.604-41.052-6.357-61.494-5.993-35.535 0.616-71.099 1.68-106.298 8.289-26.294 4.928-52.869 8.933-77.651 19.21-21.002 8.681-42.2 17.642-61.606 29.347-24.558 14.813-47.352 32.483-70.819 49.061-4.816 3.388-10.137 6.021-14.953 2.184-2.968-2.352-4.368-7.421-5.096-11.481-0.336-2.044 1.904-5.32 3.864-6.917 35.171-28.731 72.471-54.045 114.335-72.275 41.136-17.95 84.26-27.443 128.672-32.679 36.627-4.312 73.367-5.825 110.078-4.144 19.266 0.896 38.364 5.376 57.517 8.457 6.497 1.036 12.909 2.968 19.406 4.088 1.876 0.308 4.76-0.112 5.853-1.344 8.093-9.213 15.905-18.706 24.558-29.039-12.993-3.78-25.23-7.785-37.691-10.893-52.617-13.189-106.27-16.214-160.119-13.301-36.403 1.96-72.051 9.381-107.222 19.49-33.071 9.465-64.742 22.206-94.565 38.868-22.318 12.489-43.152 27.723-64.378 42.144-7.085 4.788-12.293 5.348-16.774-0.168-4.284-5.292-3.080-11.201 3.332-16.41 24.278-19.63 50.293-36.683 78.379-50.153 22.878-10.977 46.54-20.414 70.399-29.095 17.25-6.273 35.115-11.733 53.149-14.785 28.339-4.844 57.041-9.605 85.66-10.305 33.799-0.84 67.906 0.952 101.537 4.704 33.687 3.78 67.094 10.557 99.297 22.094 3.136 1.12 7.813 0.056 10.977-1.568 6.301-3.192 12.013-7.449 19.714-12.377-9.409-4.48-17.614-9.381-26.49-12.405-23.438-7.953-46.876-16.214-70.819-22.346-49.369-12.657-99.773-17.782-150.626-15.093-26.854 1.4-53.513 5.124-79.863 11.649-39.736 9.829-76.979 25.174-112.262 45.56-6.413 3.696-10.669 2.996-14.001-2.268-3.192-4.928-1.792-9.689 4.536-13.413 31.643-18.734 65.134-33.155 100.753-42.396 17.53-4.536 34.919-10.221 52.701-13.049 20.050-3.22 40.492-4.34 60.822-5.292 16.578-0.812 33.323-1.12 49.817 0.364 23.774 2.128 47.52 5.348 71.015 9.521 18.006 3.164 35.815 7.925 53.401 13.077 24.978 7.309 49.089 17.082 71.435 30.579 6.805 4.088 12.545 5.404 19.518 0.896 4.564-2.996 9.801-4.928 15.457-7.701-21.758-18.174-44.412-32.623-68.998-43.404zM510.145 350.693c8.877-0.196 15.849-7.477 15.821-16.522-0.028-8.513-7.253-15.541-15.961-15.541-8.989 0.028-17.838 7.925-17.782 15.849 0.056 8.933 8.317 16.41 17.922 16.214zM900.025 505.855c-7.337 35.479-18.342 69.81-33.995 102.209-11.845 24.53-26.546 47.856-41.752 70.511-18.034 26.91-40.8 50.013-64.826 71.659-5.124 4.592-5.741 8.037-2.296 14.281 12.041 21.702 18.566 45.42 22.374 69.838 1.848 11.677 2.268 23.55 3.668 35.311 2.072 17.446-0.308 34.499-4.284 51.413-1.344 5.629-5.264 8.597-11.313 8.961-11.761 0.644-22.43-2.212-32.567-8.121-20.302-11.845-37.215-27.667-52.393-45.168-18.062-20.75-33.855-43.124-42.004-69.978-4.144-13.609-4.172-13.609-19.126-13.301-4.984-0.224-10.109 0.308-14.897-0.784-23.27-5.348-46.26-11.845-67.038-24.138-17.082-10.109-34.079-20.554-45.952-37.131-5.152-7.169-5.32-14.841 1.036-20.61 7.421-6.749 15.653-13.049 24.53-17.698 35.283-18.538 73.283-25.762 112.962-24.39 7.953 0.28 15.849 2.1 23.83 2.548 3.192 0.196 7.645-0.224 9.521-2.24 27.443-29.235 41.304-62.922 35.143-103.946-3.024-20.19-10.137-38.392-21.898-54.549-38.028-52.225-90.504-78.491-154.098-83.644-27.807-2.24-55.333 0.924-82.244 8.345-18.818 5.208-37.691 10.389-56.145 16.774-18.678 6.497-36.711 14.897-55.305 21.73-31.195 11.453-63.79 16.522-96.861 15.737-25.51-0.56-50.909-3.976-74.963-14.029-22.598-9.465-43.096-21.422-57.321-42.2-1.624-2.38-4.396-4.508-7.085-5.629-44.496-18.958-70.875-51.581-76.559-100.193-2.184-18.818-1.008-37.607 4.284-55.501 8.429-28.507 19.966-55.893 35.031-81.684 26.518-45.364 58.301-86.472 98.345-120.775 39.26-33.659 82.328-61.158 131.108-79.555 30.663-11.593 61.718-21.506 94.005-27.191 31.447-5.545 63.314-7.113 94.985-5.405 51.217 2.772 101.173 13.133 148.47 33.603 21.618 9.381 42.928 19.742 63.398 31.335 16.298 9.269 31.391 20.778 46.568 31.951 6.301 4.648 11.677 6.749 19.182 2.828 5.545-2.912 11.901-4.396 17.894-6.357 28.899-9.381 57.713-19.014 86.78-27.779 7.701-2.324 16.718-3.080 23.158 4.088 7.169 7.953 10.361 16.83 6.301 27.751-5.965 16.129-10.669 32.707-16.858 48.725-8.289 21.562-17.614 42.732-26.098 64.238-1.092 2.716-1.036 6.861 0.308 9.437 5.040 9.885 11.761 18.93 16.101 29.067 9.213 21.646 18.202 43.488 25.594 65.806 7.141 21.646 13.245 43.768 17.754 66.114 3.36 16.55 3.752 33.743 4.9 50.685 2.688 39.456-1.372 78.351-9.353 117.051zM482.26 842.275c3.892-1.512 8.037-2.296 12.069-3.416 11.397 0.588 17.222 4.732 17.474 12.993 0.252 9.017-6.021 14.729-16.802 15.177-2.38 0.112-4.732 0.14-7.113 0.168-6.357 0.028-10.445-3.612-11.593-9.297-1.204-5.993-1.456-12.685 5.965-15.625zM531.074 834.194c-9.549 1.26-13.189 5.18-12.629 14.421 0.504 8.905 5.096 13.273 13.945 13.217h2.828c0.084 0.308 0.14 0.56 0.224 0.868 13.553-3.108 27.191-5.769 40.548-9.465 13.525-3.724 26.854-8.149 40.044-12.853 11.005-3.948 13.609-14.813 6.413-24.026-3.5-4.424-7.673-5.629-13.217-3.864-19.49 6.189-39.036 12.293-58.665 18.034-6.301 1.848-12.937 2.772-19.49 3.668zM24.893 407.387c-1.148-7.617-5.545-10.053-14.057-9.353-6.385 0.56-10.473 4.732-10.725 11.705-0.252 7.113-0.056 14.253-0.056 21.366 0.364 32.147 5.713 63.622 13.777 94.593 9.073 34.695 22.234 67.822 38.644 99.829 18.006 35.143 40.576 66.87 67.178 95.825 35.619 38.728 76.839 70.539 123.267 95.125 19.714 10.445 40.856 18.482 61.858 26.182 17.194 6.301 34.975 11.229 52.841 15.429 13.917 3.276 28.283 4.956 42.508 6.525 17.194 1.848 34.415 3.164 51.637 4.004 11.229 0.532 17.95-8.485 14.925-18.65-1.4-4.788-4.284-7.505-9.605-7.757-17.026-0.728-34.079-0.84-50.993-2.744-17.278-1.96-34.555-4.928-51.525-8.821-47.576-10.893-92.241-29.207-132.956-56.229-21.982-14.617-43.432-30.159-61.746-49.565-8.373-8.933-18.118-16.69-25.902-26.098-11.705-14.113-22.598-28.955-33.211-43.936-15.989-22.57-29.879-46.512-39.736-72.387-8.485-22.234-17.082-44.636-22.766-67.682-6.441-26.042-11.901-52.533-11.257-79.779 0.196-9.185-0.756-18.482-2.1-27.583z" />
<glyph unicode="&#xe922;" glyph-name="FKX" horiz-adv-x="737" d="M389.217 371.079c33.251 14.672 56.549 47.849 56.549 86.52 0 52.31-42.394 94.667-94.667 94.667-52.31 0-94.704-42.357-94.704-94.667 0-41.619 27.095-76.603 64.475-89.285v-171.381h68.346v174.146zM181.194 756.124h361.009l114.684-101.892v-235.856c0-207.507-123.199-395.182-313.565-477.684-181.555 82.797-298.009 263.909-298.009 463.417v250.122l135.881 101.892zM430.38 959.985h90.649l67.867-45.269v-113.246l22.708-22.708v113.283l90.575-67.94v-181.223l-158.552 135.881h-362.41l-181.223-135.881v181.223l90.612 67.94v-113.283l22.634 22.708v113.246l45.269 45.269h113.32v-67.94h158.552v67.94z" />
<glyph unicode="&#xe923;" glyph-name="ENJ" horiz-adv-x="1126" d="M311.56 400.796c-26.601 0.284-37.912-6.577-30.736-34.651 3.22-12.564-11.343-162.594 159.69-162.594 85.516-6.198 171.559-5.598 257.391-6.545 89.925-1.014 179.924-0.105 269.883-0.284 40.185-0.073 60.277-15.647 66.618-50.866 5.703-31.473-15.331-71.616-46.278-79.845-33.956-8.997-69.101-17.92-103.857-18.414-145.482-2.031-291.063-3.252-436.474 0.284-59.052 1.431-119.020 10.744-176.315 25.275-84.254 21.319-142.012 74.983-159.342 163.573-29.053 148.315-27.895 297.123 0.421 445.228 18.273 95.355 84.19 148.767 174.148 168.266 68.607 14.879 139.665 22.476 209.892 24.717 124.229 3.925 248.673 2.378 372.971 0.737 36.997-0.453 74.417-6.408 110.718-14.247 39.171-8.471 57.937-38.292 53.381-75.509-5.146-42.394-22.613-58.495-68.959-58.77-138.476-0.737-276.953-0.768-415.439-0.494-62.693 0.137-125.249 1.61-185.628-20.092-53.802-19.361-97.523-102.074-80.897-156.503 1.789-5.809 10.259-12.143 16.557-13.406 11.691-2.378 24.149-1.431 36.261-1.431 209.261-0.032 418.512 0.105 627.741 0 52.823-0.032 74.278-22.297 72.037-73.584-1.894-42.985-18.625-59.789-65.736-60.873-55.59-1.326-549.886-1.014-658.057 0.032z" />
<glyph unicode="&#xe924;" glyph-name="BCPT" horiz-adv-x="981" d="M621.197 192.36c24.822 9.727 47.131 24.377 65.787 42.808l156.711-175.249c-39.59-34.183-84.365-62.42-133.146-83.253l-89.353 215.695zM778.183 263.933l0.353-0.827 153.451-104.401c-23.212-33.947-50.43-64.941-80.948-92.39l-126.744 138.427c21.798 15.753 40.14 35.877 53.887 59.191zM313.776 447.957c0-77.228 44.264-143.941 108.716-176.391l-133.656-284.731c-170.89 82.82-288.836 258.070-288.836 461.123 0 282.801 228.626 512.043 510.667 512.043 109.737 0 211.266-34.814 294.452-93.847l-190.371-250.744c-30.164 18.943-65.866 29.97-104.081 29.97-108.755 0-196.891-88.373-196.891-197.421zM674.239 557.836c-1.218 1.812-2.514 3.544-3.81 5.317l263.031 171.863c3.967-5.947 7.973-11.972 11.704-18.076l-270.926-159.103zM637.611 598.754c-0.746 0.63-1.492 1.181-2.199 1.772l207.024 236.449c4.006-3.466 8.052-6.892 11.979-10.476l-216.804-227.745zM301.655-19.203l130.632 286.031c19.402-8.428 40.415-13.823 62.488-15.595l-0.196-314.898c-68.576 2.127-133.696 17.761-192.924 44.462zM516.601 232.703c24.665 0 48.27 4.647 69.99 13.075l107.302-275.87c-55.144-21.266-114.882-33.199-177.292-33.908l-7.934 296.9c2.631-0.118 5.263-0.197 7.934-0.197z" />
<glyph unicode="&#xe925;" glyph-name="SNM" d="M810.871 115.541c2.287 5.803 3.482 11.605 3.482 17.374 0 17.408-8.124 32.461-22.016 41.711 6.929-1.161 15.053-2.321 23.177-2.321 26.624 0 49.801 9.284 68.335 25.498-20.855-30.14-45.193-57.924-72.977-82.261zM140.186 198.929c18.534-16.179 41.677-25.463 68.335-25.463 9.25 0 17.34 1.161 25.498 3.482-13.926-9.284-23.177-25.463-23.177-42.871 0-6.929 1.126-13.892 4.642-20.821-27.819 24.303-53.316 53.248-75.298 85.675zM103.117 626.381c-5.803-18.534-8.124-38.195-8.124-59.085 0-49.801 17.374-96.119 47.479-132.028-6.929 3.482-13.892 4.642-22.016 4.642-26.624 0-47.479-19.695-50.961-45.193-2.287 17.374-3.447 33.587-3.447 50.961-1.161 64.853 12.732 126.259 37.069 180.702zM324.335 852.275c-8.090-9.284-12.732-20.855-12.732-33.587 0-18.534 10.445-34.748 25.498-43.998-10.445 1.126-22.016 2.287-32.427 2.287-59.119 0-112.367-24.337-150.596-63.693 43.998 60.211 103.083 107.725 170.257 138.991zM869.922 714.445c-38.229 39.356-91.477 63.693-150.596 63.693-11.571 0-21.982-1.161-32.427-2.321 15.087 9.25 25.498 25.498 25.498 44.032 0 12.732-4.642 24.337-12.732 33.587 67.174-32.427 126.259-79.94 170.257-138.991zM904.704 441.037c-8.124 0-15.053-2.287-22.016-4.642 28.945 35.942 47.479 82.295 47.479 132.096 0 20.821-3.447 40.516-8.090 59.051 24.337-54.443 38.229-115.849 38.229-179.541 0-17.374-1.161-34.748-3.516-50.961-4.608 24.337-25.463 43.998-52.087 43.998zM904.704 337.954c20.821 0 39.356 12.766 47.479 30.106-6.929-39.39-19.695-77.585-35.908-113.527 1.161 5.803 2.321 12.766 2.321 19.695 0 24.337-8.124 46.353-23.142 63.727h9.25zM756.395 275.422c0 32.427 26.692 59.051 59.119 59.051s59.051-26.624 59.051-59.051c0-32.461-26.624-59.085-59.051-59.085s-59.119 26.624-59.119 59.085zM763.358 183.91c-21.982 0-40.516-13.892-47.479-32.427 4.642 17.374 6.963 34.714 6.963 54.409 0 10.445-1.161 20.855-2.321 31.266 9.25-23.142 26.624-41.677 47.479-53.248h-4.642zM763.358 112.060c-11.571 0-20.855 9.284-20.855 20.855 0 11.605 9.284 20.855 20.855 20.855 11.605 0 20.89-9.25 20.89-20.855 0-11.571-9.284-20.855-20.89-20.855zM712.397 142.199c0-3.482-1.161-5.803-1.161-9.284 0-27.819 23.177-50.961 50.961-50.961h6.963c-57.924-40.55-125.099-68.335-198.076-77.619 67.174 19.695 120.457 71.851 141.312 137.865zM262.963 81.954c27.819 0 50.961 23.142 50.961 50.961 23.177-62.532 74.138-110.046 137.83-129.741-72.943 10.445-141.312 37.069-198.076 78.78h9.284zM262.963 153.771c11.571 0 20.855-9.25 20.855-20.855 0-11.571-9.284-20.855-20.855-20.855-11.605 0-20.855 9.284-20.855 20.855 0 11.605 9.25 20.855 20.855 20.855zM303.514 237.158c-1.161-10.411-2.355-20.821-2.355-31.266 0-16.213 2.355-31.266 4.642-45.158-8.090 13.892-24.303 23.177-42.837 23.177-2.321 0-4.608 0-8.124-1.161 22.016 12.732 39.39 31.266 48.674 54.409zM208.521 333.312c32.427 0 59.085-26.624 59.085-59.085 0-32.427-26.658-59.051-59.085-59.051-32.461 0-59.085 26.624-59.085 59.051 0 32.461 26.624 59.085 59.085 59.085zM119.296 337.954c3.516 0 6.963 0 10.445 1.161-13.892-17.374-23.177-39.39-23.177-63.693 0-6.997 1.161-12.732 2.355-19.729-17.408 35.908-28.979 72.977-35.942 113.562 6.963-18.534 24.337-31.3 46.319-31.3zM119.296 368.060c-11.571 0-20.821 9.284-20.821 20.855 0 11.605 9.25 20.855 20.821 20.855 11.605 0 20.89-9.25 20.89-20.855-1.195-11.571-10.445-20.855-20.89-20.855zM165.649 409.771c15.053-12.732 32.427-24.337 49.835-32.427h-6.963c-15.087 0-30.106-3.482-42.871-9.284 3.482 6.963 4.608 13.926 4.608 22.016 0 6.963-1.126 13.892-4.608 19.695zM462.199 567.296c0-86.869-70.656-157.525-157.525-157.525-86.903 0-157.559 70.656-157.559 157.525 0 86.903 70.656 157.559 157.559 157.559 86.869 0 157.525-70.656 157.525-157.559zM408.917 795.511c0-20.821 6.963-40.55 17.34-57.89-17.34 12.732-38.195 23.142-59.051 30.071 18.534 2.355 33.587 12.732 41.711 27.819zM363.725 839.543c11.571 0 20.855-9.284 20.855-20.855s-9.284-20.855-20.855-20.855c-11.571 0-20.855 9.284-20.855 20.855s9.284 20.855 20.855 20.855zM414.72 827.938c-3.482 23.177-22.016 40.55-45.193 42.871 34.748 11.571 70.656 19.695 108.885 21.982-31.266-10.411-54.443-34.714-63.693-64.853zM609.314 826.778c-9.284 31.3-33.621 55.603-63.693 66.014 38.229-2.287 74.103-10.411 108.851-21.982-23.177-2.321-41.711-20.855-45.158-44.032zM660.275 798.959c-11.571 0-20.821 9.284-20.821 20.89 0 11.571 9.25 20.821 20.821 20.821 11.605 0 20.855-9.25 20.855-20.821 0-11.605-9.25-20.89-20.855-20.89zM595.422 737.621c11.571 16.179 18.5 37.069 18.5 59.051v1.161c8.124-16.213 23.177-26.658 41.711-28.945-21.982-8.124-41.711-18.534-60.211-31.266zM719.326 409.771c-86.869 0-157.525 70.656-157.525 157.525 0 86.903 70.656 157.559 157.525 157.559 86.903 0 157.594-70.656 157.594-157.559 0-86.869-70.69-157.525-157.594-157.525zM858.385 368.060c-12.766 5.803-27.819 9.284-42.871 9.284h-6.963c18.534 8.090 34.748 19.695 49.835 32.427-3.516-5.803-4.642-12.732-4.642-20.855 0-6.929 1.126-15.053 4.642-20.855zM638.259 373.862c24.337-10.411 52.156-16.213 81.067-16.213 13.926 0 27.819 1.161 41.711 4.642-28.945-18.534-47.479-49.801-47.479-86.869v-6.997c-13.892 41.711-40.55 78.78-75.298 105.438zM310.443 267.298v6.929c0 35.908-19.661 68.335-47.479 86.869 13.892-2.287 26.658-4.608 41.711-4.608 28.945 0 55.603 5.803 81.067 16.213-35.908-25.498-61.406-62.566-75.298-105.404zM512 363.452c86.869 0 157.525-70.69 157.525-157.559s-70.656-157.525-157.525-157.525c-86.869 0-157.525 70.656-157.525 157.525s70.656 157.559 157.525 157.559zM512 532.582c9.284-54.477 38.229-101.956 81.101-133.257-24.337 10.445-52.122 16.247-81.101 16.247-28.945 0-55.603-5.803-81.101-16.247 41.711 32.461 71.851 79.94 81.101 133.257zM512 693.589c18.534 0 35.908 4.608 49.801 12.732-25.463-28.945-43.998-64.887-49.801-104.243-6.963 39.356-24.337 75.298-49.801 104.243 15.053-8.124 31.266-12.732 49.801-12.732zM452.949 795.511c0 32.427 26.624 59.051 59.051 59.051s59.085-26.624 59.085-59.051c0-32.427-26.658-59.085-59.085-59.085-32.427 1.195-59.051 27.819-59.051 59.085zM883.849 388.915c0 11.605 9.25 20.855 20.855 20.855 11.571 0 20.821-9.25 20.821-20.855 0-11.571-9.25-20.855-20.821-20.855-11.605 0-20.855 9.284-20.855 20.855zM512 960c-282.624 0-512-229.342-512-512 0-282.624 229.376-512 512-512s512 229.376 512 512c0 282.658-229.376 512-512 512z" />
<glyph unicode="&#xe926;" glyph-name="CTR" d="M512 307.718c-77.472 0-140.288 62.816-140.288 140.288s62.816 140.288 140.288 140.288c46.688 0 87.936-22.912 113.44-58.016l97.888 132.832c-54.464 53.472-129.024 86.496-211.328 86.496-166.56 0-301.6-135.040-301.6-301.6s135.040-301.6 301.6-301.6c84.448 0 160.704 34.752 215.456 90.656l-97.312 135.52c-24.896-38.944-68.448-64.864-118.144-64.864zM512-0.874c-247.904 0-448.864 200.96-448.864 448.864s200.96 448.896 448.864 448.896c247.904 0 448.864-200.992 448.864-448.896s-200.96-448.864-448.864-448.864zM512 959.99c-282.784 0-512-229.216-512-512s229.216-512 512-512c282.784 0 512 229.216 512 512s-229.216 512-512 512z" />
<glyph unicode="&#xe927;" glyph-name="MDA" horiz-adv-x="788" d="M112.527 566.154c0 176.068 125.918 318.828 281.319 318.828s281.319-142.76 281.319-318.828c0-176.068-125.918-318.828-281.319-318.828s-281.319 142.76-281.319 318.828zM787.692 566.154c0 217.516-176.331 393.846-393.846 393.846s-393.846-176.331-393.846-393.846c0-204.838 156.413-373.029 356.337-391.933v-39.422h-131.282v-75.018h131.282v-93.773h75.018v93.773h131.282v75.018h-131.282v39.422c199.924 18.905 356.337 187.096 356.337 391.933z" />
<glyph unicode="&#xe928;" glyph-name="SUB" horiz-adv-x="801" d="M711.674 251.573l-704.593 519.253c-4.323 3.254-6.945 8.208-7.043 13.648-0.146 5.343 2.234 10.491 6.363 13.891l188.011 153.624c6.557 5.488 16.222 5.197 22.633-0.486l57.943-51.678c7.14-6.411 7.771-17.436 1.36-24.576-6.363-7.237-17.339-7.82-24.576-1.409l-46.869 41.769-159.064-130.020 705.953-520.322c4.517-3.254 7.188-8.597 7.14-14.182-0.097-5.585-2.866-10.831-7.431-14.085l-61.829-43.518c-3.108-2.186-6.557-3.206-10.054-3.206-5.391 0-10.879 2.574-14.231 7.431-5.537 7.82-3.643 18.699 4.226 24.285l42.061 29.579zM47.122 645.392l704.69-516.776c4.42-3.254 7.043-8.402 7.091-13.939 0-5.488-2.477-10.685-6.897-14.036l-179.512-135.557c-3.108-2.38-6.751-3.497-10.491-3.497s-7.431 1.166-10.54 3.497l-54.446 41.429c-7.722 5.828-9.18 16.756-3.4 24.43 5.877 7.625 16.805 9.082 24.479 3.303l43.955-33.416 150.224 113.506-705.127 517.165c-4.517 3.254-7.188 8.597-7.14 14.134 0 5.585 2.768 10.879 7.285 14.085l61.003 43.567c7.917 5.585 18.699 3.837 24.333-4.031 5.585-7.868 3.788-18.699-4.031-24.333l-41.478-29.53zM628.15 163.775c5.828-7.674 4.371-18.602-3.351-24.43l-229.975-174.266c-3.108-2.331-6.8-3.497-10.54-3.497-3.788 0-7.528 1.166-10.637 3.594l-351.592 272.327c-5.974 4.517-8.257 12.337-5.877 19.428 2.38 7.043 9.034 11.754 16.514 11.754h167.709c3.837 0 7.625-1.214 10.637-3.594l226.527-174.266c7.625-5.877 9.082-16.805 3.206-24.43-5.877-7.674-16.854-8.985-24.43-3.206l-221.864 170.623h-110.835l300.74-232.889 219.387 166.204c7.577 5.78 18.553 4.323 24.382-3.351zM138.757 735.036c-5.925 7.577-4.614 18.553 3.011 24.479l231.821 180.823c6.265 4.808 15.008 4.857 21.225 0.097l357.226-272.327c5.925-4.517 8.305-12.337 5.925-19.428s-9.034-11.802-16.514-11.802h-181.649c-3.74 0-7.383 1.166-10.442 3.448l-219.63 164.504c-7.722 5.828-9.277 16.708-3.546 24.382 5.828 7.722 16.756 9.277 24.382 3.546l215.016-161.104h124.289l-305.403 232.841-221.281-172.469c-7.577-5.925-18.553-4.565-24.43 3.011z" />
<glyph unicode="&#xe929;" glyph-name="CMT" horiz-adv-x="981" d="M779.716 178.735c38.281 18.517 67.851 42.504 86.732 75.75 13.279 23.361 20.954 50.939 26.428 77.628 4.146 20.297-9.975 33.081-29.472 39.078-20.954 6.458-37.277-0.692-48.872-17.858-5.83-8.731-9.716-19.704-11.497-30.181-8.097-46.326-15.125-92.85-23.319-144.416zM607.061 56.462c-50.167 11.466-99.817 18.616-146.745 34.267-176.638 58.88-280.86 206.524-272.18 380.462 9.878 197.826 208.799 339.671 394.57 281.714 67.494-21.087 121.257-61.087 162.291-119.045 14.736-20.824 34.427-29.654 58.329-23.427 22.8 5.898 39.642 23.427 38.508 46.623-0.939 19.341-9.166 41.351-21.084 56.606-93.987 120.132-217.478 176.508-367.754 162.142-193.221-18.418-351.755-181.615-371.835-376.805-21.796-211.829 98.424-405.668 290.349-466.36 81.194-25.7 160.153-20.923 235.55 23.822zM0 499.758c5.409 25.7 9.263 51.928 16.485 77.134 55.997 195.618 178.484 326.393 375.203 369.984 198.37 43.987 363.155-23.987 491.893-182.999 33.294-41.153 48.062-87.381 33.52-140.099-14.153-51.203-49.52-83.723-98.521-94.926-53.536-12.257-100.302 4.811-135.701 50.61-15.902 20.593-33.067 41.615-53.633 56.903-73.454 54.662-154.939 63.526-235.194 21.812-84.789-44.152-128.706-119.275-126.244-217.892 2.623-104.613 54.669-180.725 140.138-233.971 72.741-45.305 153.547-62.933 238.238-62.076 41.488 0.461 45.73 4.876 52.337 47.611 6.413 41.384 10.331 83.262 17.716 124.448 9.36 51.961 29.213 98.649 80.352 121.911 47.868 21.713 95.12 19.045 136.511-15.585 41.358-34.531 48.84-82.867 37.148-131.994-27.529-115.519-110.148-175.816-214.725-212.192-9.457-3.295-20.145-8.633-25.91-16.376-51.463-69.127-120.22-107.414-203.293-121.252-5.182-0.857-10.17-3.163-15.222-4.811h-102.213c-2.073 1.615-3.854 4.185-6.154 4.646-205.56 45.008-330.8 175.256-387.348 378.057-6.542 23.46-10.331 47.677-15.384 71.598v109.457z" />
<glyph unicode="&#xe92a;" glyph-name="ADX" horiz-adv-x="658" d="M312.625 583.433l188.266 188.291 124.354-124.329-188.291-188.316 188.291-188.241-124.354-124.379-188.266 188.266-188.266-188.266-124.354 124.379 188.266 188.241-188.266 188.316 124.354 124.329 188.266-188.291zM132.351 779.711l180.274 180.274 179.675-179.675-95.906-95.906-83.768 83.743-84.393-84.343-95.881 95.906zM312.625 150.011l84.393 84.368 95.906-95.906-180.299-180.299-179.7 179.7 95.956 95.906 83.743-83.768z" />
<glyph unicode="&#xe92b;" glyph-name="DGD" d="M506.573 959.989l506.539-506.539-185.173-185.202-321.365 321.365-321.365-321.365-185.202 185.202 506.567 506.539zM226.355 227.086l280.206 280.206 280.235-280.206-280.235-280.206-280.206 280.206z" />
<glyph unicode="&#xe92c;" glyph-name="POE" horiz-adv-x="1069" d="M954.191 619.729c8.554 9.942 15.913 20.916 21.917 32.762 4.583 8.844 8.392 18.366 11.329 27.888 3.066 10.103 5.132 20.464 6.294 31.019 1.937 17.946 0.936 36.571-2.97 54.259-3.357 15.461-8.876 30.438-16.365 44.188-4.325 8.037-9.296 15.622-14.88 22.82-10.942 14.138-24.144 26.597-38.927 36.732-12.298 8.231-25.661 14.977-39.701 19.851-11.878 4.035-24.208 6.778-36.635 8.231-3.712 0.42-7.392 0.646-11.104 0.871h-12.136c-3.034 0-6.036-0.226-9.102-0.452-8.747-0.613-17.43-2.098-26.016-4.228-9.264-2.098-18.334-5.261-27.081-9.070-8.876-3.809-17.462-8.457-25.564-13.75-6.036-4.002-11.846-8.231-17.333-13.072-0.452-0.226-0.904-0.646-1.323-1.033v-195.183l111.971 111.939c2.033 1.485 3.906 3.389 6.133 4.648 6.036 3.615 8.069 3.163 14.848 4.002 2.55-0.387 5.1-0.613 7.714-1.033 6.262-2.55 8.328-2.744 13.298-7.618 1.808-1.904 3.421-4.002 4.713-6.133 2.582-4.616 3.97-9.716 3.97-15.009 0-2.518-0.355-5.035-1.001-7.585-1.808-6.746-3.518-7.811-7.682-13.298l-111.648-111.745h197.281zM540.618 682.897v-195.376l114.553 114.456v195.602l-114.553-114.682zM894.542 560.403h-197.023l-114.618-114.489h197.055l114.586 114.489zM369.837 512.245v-195.602l111.358 111.519v195.376l-111.358-111.293zM720.566 386.362h-197.055l-112.455-112.391h197.055l112.455 112.391zM210.934 353.181v-195.376l99.48 99.48v195.376l-99.48-99.48zM548.687 214.645h-197.055l-99.512-99.706h197.055l99.512 99.706zM0-53.195l149.316 149.542v282.397l495.881 496.333c6.391 6.326 12.782 12.717 19.173 19.044 0.71 0.646 1.388 1.452 2.163 2.098 1.743 1.678 3.518 3.389 5.358 4.874 4.164 3.776 8.457 7.359 12.846 10.748 2.356 1.904 4.68 3.583 7.069 5.294 4.035 2.97 8.199 5.713 12.459 8.457 1.033 0.613 2.066 1.259 3.099 1.872 4.228 2.55 8.586 4.874 13.008 7.198 6.681 3.357 13.524 6.552 20.529 9.296 10.393 4.002 21.11 7.359 32.019 9.942 10.748 2.518 21.723 4.422 32.697 5.261 3.195 0.194 6.423 0.42 9.586 0.613 2.776 0.226 5.552 0.226 8.36 0.226h9.586c5.519-0.226 11.007-0.646 16.494-1.259 11.039-1.065 21.917-2.97 32.665-5.713 6.714-1.711 13.395-3.809 19.948-6.1 3.066-1.065 6.133-2.13 9.199-3.421 15.59-6.326 30.47-14.138 44.349-23.627 25.887-17.753 48.094-40.767 64.878-67.17 6.811-10.748 12.717-22.175 17.656-34.021 3.809-8.844 7.004-18.14 9.619-27.63 6.391-23.046 9.135-47.319 8.134-71.204-0.646-15.622-2.937-31.245-6.714-46.48-2.84-11.394-6.52-22.368-11.039-33.149-4.261-10.135-9.361-20.27-15.041-29.76-3.744-6.165-7.714-12.040-11.943-17.753-4.938-6.778-10.232-13.105-15.848-19.237-1.969-2.098-4.002-4.196-6.036-6.326l-0.581-0.42c-2.195-2.324-4.454-4.422-6.714-6.552-2.55-2.324-5.132-4.648-7.779-6.778l1.162 0.871-500.852-500.787h-284.172l-106.516-106.678h-84.019z" />
<glyph unicode="&#xe92d;" glyph-name="CDT" horiz-adv-x="860" d="M494.259 338.683c-47.595-76.228-138.69-111.227-223.659-85.933-85.004 25.295-143.405 104.861-143.405 195.233 0 90.407 58.401 169.938 143.405 195.267 84.969 25.26 176.064-9.739 223.659-85.967h141.237c-52.275 153.936-205.695 246.82-363.003 219.77-157.343-27.050-272.493-166.153-272.493-329.070s115.151-302.021 272.493-329.070c157.308-27.050 310.727 65.835 363.003 219.77h-141.237zM828.010 447.983c-0.241-282.645-224.519-511.707-501.314-511.983v130.362c181.605 0.069 336.882 133.493 367.993 316.234h-179.402c14.213 42.226 14.213 88.101 0 130.327h179.402c-30.939 182.912-186.251 316.578-367.993 316.716v130.362c276.795-0.275 501.073-229.337 501.314-512.017z" />
<glyph unicode="&#xe92e;" glyph-name="DLT" horiz-adv-x="975" d="M921.932-42.398c-19.814 0-38.881 11.080-48.057 30.112l-385.815 796.61-349.483-720.004h589.224c29.466 0 53.359-23.859 53.359-53.359 0-29.466-23.893-53.359-53.359-53.359h-674.462c-18.353 0-35.448 9.448-45.202 25.048-9.754 15.566-10.808 35.108-2.787 51.626l434.756 895.647c8.938 18.387 27.597 30.078 47.989 30.078h0.034c20.46-0.034 39.118-11.725 47.989-30.112l433.77-895.681c12.847-26.509 1.767-58.423-24.742-71.27-7.477-3.603-15.43-5.336-23.213-5.336z" />
<glyph unicode="&#xe92f;" glyph-name="PAY" d="M948.248 442.183l-240.299-256.659-189.405 196.675-207.581-188.678-235.211 248.662v12.725l241.391 254.477 190.495-197.765 204.309 190.858c58.894-61.803 121.423-126.875 183.587-192.677 18.54-19.632 36.353-41.444 52.713-62.166zM313.508 575.602c-33.447-31.265-75.252-69.8-115.243-109.062-3.115-4.708-4.97-10.486-4.97-16.698 0-4.624 1.027-9.008 2.868-12.936l-0.078 0.188c42.171-40.717 85.795-79.979 121.058-111.971l137.418 122.877zM717.765 579.237l-145.415-129.784 135.236-130.511c36.353 33.081 75.252 69.073 113.061 106.517 6.569 6.004 10.672 14.61 10.672 24.175s-4.103 18.17-10.646 24.153l-0.026 0.023z" />
<glyph unicode="&#xe930;" glyph-name="PPP" d="M972.096 544.907h-182.437v171.061c0.003 0.254 0.004 0.553 0.004 0.852 0 37.253-29.843 67.538-66.935 68.246l-0.069 0.001h-421.333c-37.153-0.709-66.996-30.994-66.996-68.247 0-0.299 0.002-0.598 0.005-0.897v0.045-117.973c2.316-23.399 21.9-41.534 45.715-41.534s43.399 18.127 45.702 41.339l0.012 0.194v95.221h372.459v-171.061c0 0 0-0.001 0-0.001 0-37.699 30.557-68.256 68.256-68.256 0.152 0 0.296 0 0.448 0.001h205.163c25.127 0 45.504 20.377 45.504 45.504s-20.377 45.504-45.504 45.504v0zM743.733 343.509c-25.034-0.239-45.265-20.47-45.504-45.478v-95.247h-372.459v171.061c0 0.005 0 0.011 0 0.017 0 37.107-29.609 67.292-66.484 68.23l-0.087 0.001h-207.296c-25.127 0-45.504-20.377-45.504-45.504s20.377-45.504 45.504-45.504v0h182.437v-171.061c-0.003-0.254-0.004-0.553-0.004-0.852 0-37.253 29.843-67.538 66.935-68.246l0.069-0.001h421.333c0.125-0.001 0.269-0.001 0.421-0.001 37.699 0 68.256 30.557 68.256 68.256 0 0 0 0.001 0 0.001v0 117.973c0.001 0.133 0.002 0.294 0.002 0.454 0 25.364-20.561 45.925-45.925 45.925-0.593 0-1.183-0.009-1.772-0.035l0.085 0.002z" />
<glyph unicode="&#xe931;" glyph-name="SNGLS" d="M554.26 232.048c266.67 18.17 464.871 211.309 464.871 211.309-119.697 113.34-276.143 188.962-449.684 207.214l-3.355 0.287-54.093 88.328-53.674-88.328c-177.009-18.644-333.572-94.239-453.834-207.853l0.37 0.351s197.782-190.6 464.871-211.309l42.26-75.226zM56.005 443.349c102.676 81.161 229.344 136.405 367.783 153.875l3.69 0.377-31.697-48.598 24.508-52.405 66.35 106.073h55.362l61.7-105.654 24.934 51.562-30.003 49.45c141.374-18.534 267.224-73.836 370.934-155.879l-1.573 1.201c-107.224-81.641-238.208-137.59-380.901-156.351l-4.1-0.439 98.047 172.005-28.315 48.598-114.53-225.672h-51.98l-115.374 225.672-27.89-48.18 97.622-173.692c-146.756 19.609-277.572 75.975-386.504 159.479l1.928-1.419z" />
<glyph unicode="&#xe932;" glyph-name="WTC" d="M1016.213 476.71c-9.308 43.835-96.592 55.471-168.355 57.799h-31.809l15.128 38.789 89.608 44.224-63.229 96.977-110.941-51.593-49.265-133.443c-30.256-2.717-62.065-6.595-94.264-11.251l-52.368 144.693h-89.997l-72.541-186.585-55.085-14.743-77.583 201.328h-109.392l85.341-232.748c-32.973-11.636-63.619-24.051-91.161-36.076-116.372-54.307-137.32-94.264-132.279-116.372 8.533-44.224 95.813-55.86 167.58-57.799h31.035c4.578-0.098 9.979-0.156 15.388-0.156 30.25 0 60.093 1.745 89.433 5.144l-3.573-0.336 15.903-43.060 81.849 28.707 7.759 23.276c38.789 5.82 81.075 12.415 122.581 20.559 131.427 25.212 247.613 61.581 357.709 109.34l-10.917-4.219c117.925 53.532 137.32 93.485 133.443 117.536zM693.857 515.499l-44.224-120.253-41.896 112.105c29.092 4.267 59.352 7.759 85.341 10.087zM383.531 461.192l-26.764-64.004-19.009 53.921zM176.383 228.444c-94.264 3.103-151.284 20.948-155.165 48.876s38.789 66.721 124.52 105.511c27.153 12.415 57.409 24.44 89.997 36.076l68.66-186.585q-64.004-4.656-128.012-3.492zM534.040 264.52q-58.188-11.636-116.372-19.784l77.583 221.497h13.964l67.496-191.241zM877.729 370.42c-38.631-18.030-86.215-36.218-135.158-51.309l-8.368-2.223 77.583 207.923h35.687c94.264-2.717 151.284-20.559 157.104-48.491s-41.117-67.111-126.848-105.9z" />
<glyph unicode="&#xe933;" glyph-name="SWT" d="M921.6 471.893c-5.553 45.341-31.216 83.735-67.652 106.48l-0.614 0.357c-34.218 21.505-75.822 34.263-120.406 34.263-17.817 0-35.158-2.037-51.803-5.892l1.542 0.301c-47.346-9.598-89.131-28.532-125.136-54.894l0.89 0.622c-52.928-36.633-99.285-74.538-142.426-115.78l0.431 0.409c-3.755-3.755-6.144-4.096-9.899 0l-70.997 72.021c-1.399 2.017-3.235 3.635-5.379 4.74l-0.082 0.039h-5.12s0-3.413 0-5.12l2.048-2.731 69.973-79.189 4.096-4.437-20.48-18.091c-29.567-26.474-63.263-49.259-99.804-67.121l-2.596-1.146c-18.438-9.731-40.297-15.443-63.491-15.443-1.68 0-3.352 0.030-5.017 0.089l0.241-0.007c-0.032 0-0.070 0-0.108 0-26.144 0-49.509 11.9-64.973 30.579l-0.113 0.141c-12.858 16.93-20.599 38.36-20.599 61.598 0 12.304 2.17 24.1 6.148 35.029l-0.227-0.712c9.848 33.743 35.15 60.057 67.522 71.118l0.745 0.221c2.494 1.419 4.631 3.121 6.47 5.103l0.016 0.017h-5.12c-56.688-12.305-98.528-62.044-98.528-121.555 0-5.279 0.329-10.482 0.968-15.588l-0.062 0.609c7.093-47.242 43.699-84.194 90.168-91.735l0.627-0.084c8.067-1.241 17.372-1.95 26.843-1.95 28.414 0 55.338 6.382 79.415 17.791l-1.128-0.481c33.168 16.114 61.753 34.656 87.751 56.21l-0.711-0.573 37.888 31.061 3.413-2.731c16.043-12.629 31.403-26.283 48.128-38.229 61.843-46.578 139.958-74.597 224.616-74.597 18.293 0 36.281 1.308 53.875 3.836l-2.011-0.237c46.145 5.378 87.044 24.501 119.354 53.106l-0.229-0.199c32.466 26.866 52.996 67.168 52.996 112.265 0 7.237-0.529 14.35-1.549 21.303l0.095-0.789zM837.632 356.181c-24.921-23.21-56.822-39.233-92.221-44.595l-0.963-0.12c-13.56-1.909-29.223-2.998-45.142-2.998-42.752 0-83.669 7.86-121.383 22.213l2.344-0.783c-54.182 19.588-101.073 45.802-142.793 78.339l1.14-0.856-3.072 2.731 24.576 21.504c36.982 34.251 77.193 66.441 119.629 95.628l3.592 2.335c31.714 22.522 69.691 38.428 110.807 44.864l1.491 0.192c9.187 1.754 19.754 2.758 30.556 2.758 40.202 0 77.157-13.9 106.322-37.156l-0.345 0.265c27.206-22.7 44.393-56.617 44.393-94.548 0-29.944-10.71-57.386-28.509-78.704l0.159 0.196c-3.413-3.755-7.168-7.509-10.923-11.264zM265.216 511.829c0.102-0.001 0.223-0.002 0.343-0.002 17.035 0 30.868 13.714 31.059 30.704v0.018c-0.578 16.701-14.255 30.020-31.044 30.020-17.155 0-31.061-13.907-31.061-31.061 0-16.788 13.319-30.466 29.967-31.042l0.053-0.001z" />
<glyph unicode="&#xe934;" glyph-name="CFI" d="M490.155 455.509l136.533-138.923c34.601-35.675 82.982-57.815 136.533-57.815s101.932 22.141 136.487 57.767l0.046 0.048c34.976 35.878 56.549 84.967 56.549 139.093s-21.573 103.215-56.59 139.135l0.041-0.042c-34.682 35.503-83.037 57.519-136.533 57.519s-101.851-22.016-136.497-57.482l-0.036-0.037-136.533-139.264zM763.221 189.952c-71.765 0.333-136.522 30.066-182.897 77.764l-0.058 0.060-184.661 187.733 184.661 187.733c46.906 48.021 112.306 77.801 184.661 77.801s137.756-29.78 184.613-77.751l0.049-0.050c47.067-48.487 76.084-114.722 76.084-187.733s-29.017-139.246-76.148-187.8l0.064 0.067c-46.855-48.033-112.218-77.824-184.54-77.824-0.043 0-0.085 0-0.128 0h0.007zM260.779 189.952c-0.036 0-0.079 0-0.121 0-72.322 0-137.685 29.791-184.488 77.771l-0.051 0.053c-47.067 48.487-76.084 114.722-76.084 187.733s29.017 139.246 76.148 187.8l-0.064-0.067c46.906 48.021 112.306 77.801 184.661 77.801s137.756-29.78 184.613-77.751l0.049-0.050 8.875-8.875-48.469-49.835-8.533 8.875c-34.682 35.503-83.037 57.519-136.533 57.519s-101.851-22.016-136.497-57.482l-0.036-0.037c-34.976-35.878-56.549-84.967-56.549-139.093s21.573-103.215 56.59-139.135l-0.041 0.042c34.601-35.675 82.982-57.815 136.533-57.815s101.932 22.141 136.487 57.767l0.046 0.048 8.533 8.875 48.469-46.763-8.875-9.216c-46.695-48.027-111.922-77.825-184.108-77.825-0.195 0-0.389 0-0.583 0.001h0.030z" />
<glyph unicode="&#xe935;" glyph-name="WINGS" d="M957.867 719.787l-198.4-148.907-138.667 230.4-620.8 30.72 468.907-138.667 69.973-288-453.12-339.627 832.427 330.24v171.947l105.813-6.827-66.133 158.72z" />
<glyph unicode="&#xe936;" glyph-name="XAUR" d="M594.803 432.523h-171.363l-230.763-239.037v-177.477l329.4 340.923 308.157-325.437v180.003l-210.957 221.043h-24.483zM511.643 534.4l-329.4 345.6v-174.96l251.997-251.997h171.363l236.163 244.437v177.477zM197.72 711.52v129.957l303.123-317.877-53.277-55.080h-7.917zM825.2 703.603l-227.157-235.083h-127.797l354.963 368.28z" />
</font>
</defs>
</svg>
